<?xml version="1.0" encoding="utf-8"?>
<!-- Track map generated with TinyPedal -->
<svg viewBox="-1160.0214 -157.3626 1852.0580 1045.6007" version="1.1" xmlns="http://www.w3.org/2000/svg">
	<title>Autodromo Enzo e Dino Ferrari</title>
	<!-- Sector coordinates index -->
	<desc>159,355</desc>
	<!-- Raw global coordinates -->
	<polyline id="map" fill="none" stroke="black" stroke-width="10" points="0.6928,-9.084 -18.662,-10.8612 -31.6269,-12.1362 -44.6348,-13.5182 -57.6863,-14.9787 -70.7734,-16.5718 -83.9005,-18.2433 -97.0717,-19.9542 -110.2836,-21.7128 -123.5391,-23.4953 -136.8369,-25.2994 -150.1816,-27.0978 -163.5699,-28.9056 -176.9952,-30.7614 -190.4454,-32.7396 -203.937,-34.7236 -217.4711,-36.6975 -231.0468,-38.6586 -244.6665,-40.5852 -258.3364,-42.4223 -272.0556,-44.1576 -285.8378,-45.6363 -299.6662,-47.0064 -313.5516,-48.0999 -327.4877,-48.821 -341.4683,-49.1381 -355.4814,-49.0976 -369.5159,-48.6789 -383.5696,-47.9719 -397.6516,-47.2034 -413.134,-46.1498 -425.826,-45.2293 -439.9252,-43.8841 -454.0393,-42.374 -468.1727,-40.7694 -482.2987,-38.8877 -496.4506,-36.9627 -510.631,-35.028 -524.8388,-33.0827 -538.8508,-31.1552 -552.0653,-29.3118 -564.4272,-27.2637 -575.9614,-24.9738 -586.6896,-22.6917 -596.7859,-20.4742 -606.25,-18.0808 -615.2316,-15.6899 -623.5444,-13.4683 -631.1356,-11.3224 -638.0317,-9.1855 -644.2512,-7.1237 -649.839,-5.0387 -654.9211,-2.6625 -659.7258,0.0898 -664.5024,3.0539 -669.1688,6.3212 -673.4475,9.9827 -677.2705,14.0521 -680.7042,18.4818 -683.8406,23.217 -686.9117,28.1523 -689.7683,33.3248 -692.2766,38.8156 -694.5869,44.6125 -697.0109,50.6119 -699.7747,56.6049 -703.051,62.4047 -706.7918,67.9921 -710.9942,73.3052 -715.6512,78.333 -720.8117,83.0192 -727.0104,87.8921 -732.4296,91.7129 -738.6677,95.9448 -745.0665,100.2373 -751.7368,104.4389 -758.7331,108.4345 -765.9711,112.357 -773.3901,116.3044 -780.931,120.3737 -788.4551,124.7747 -795.7923,129.6956 -802.8667,135.1671 -809.5891,141.059 -815.7996,147.3483 -821.563,154.0737 -826.9241,161.2592 -831.8897,168.8562 -836.4309,176.8486 -840.9907,186.0428 -844.6119,193.7579 -848.4756,202.5197 -852.082,211.5058 -855.9951,221.572 -859.1993,229.925 -862.629,239.3734 -865.7977,249.0309 -868.7443,258.8664 -871.7161,268.8001 -874.8284,278.8008 -878.0685,288.8792 -881.4063,299.0402 -885.1151,310.3342 -888.1798,319.6631 -891.7184,330.0825 -895.5014,340.5186 -899.4062,351.0129 -903.4004,361.5749 -907.5008,372.1953 -911.6438,382.8963 -915.8216,393.6785 -920.0346,404.5398 -924.2849,415.4772 -928.5234,426.477 -932.6289,437.6074 -936.7261,448.8257 -940.8551,460.1157 -945.0148,471.4757 -949.1052,482.6413 -952.8539,493.1222 -956.0307,503.0258 -958.6442,512.448 -960.6757,521.4531 -962.0952,530.2859 -962.8945,539.0939 -963.0615,547.9415 -962.648,556.7123 -961.7262,565.2634 -960.2747,573.5244 -958.3152,581.6342 -956.236,589.2514 -954.5311,596.3575 -953.3102,603.3181 -952.5227,610.1498 -952.2289,616.8104 -952.4373,623.3645 -953.1948,629.7867 -954.469,636.0381 -956.264,642.0719 -958.5679,647.8926 -961.3799,653.5372 -964.6941,659.0343 -968.51,664.3441 -972.814,669.405 -977.5203,674.3179 -982.5529,679.1866 -987.8699,684.0451 -993.3873,688.9792 -999.0713,694.0193 -1005.0219,699.0269 -1011.3084,703.9017 -1017.832,708.752 -1024.5016,713.6923 -1031.2996,718.7356 -1038.1854,723.9261 -1045.0842,729.3508 -1052.108,734.858 -1059.3422,740.326 -1067.4484,746.4105 -1074.1283,751.5239 -1081.5723,757.3783 -1089.0939,763.3364 -1096.6223,769.377 -1103.6914,775.398 -1110.0718,781.4355 -1116.2913,787.8635 -1120.8918,792.7794 -1125.4403,797.9391 -1129.3281,802.9357 -1132.8943,808.3491 -1135.2628,812.781 -1137.3,817.4983 -1138.7393,822.0396 -1139.6414,826.243 -1140.0214,830.1968 -1139.8785,834.2001 -1139.2007,838.2748 -1137.9526,842.3353 -1136.1716,846.1722 -1133.968,849.6117 -1131.3929,852.6304 -1128.4229,855.3039 -1124.6835,857.8761 -1121.2764,859.6779 -1117.1726,861.459 -1112.7384,863.2351 -1107.9574,864.7985 -1102.8635,866.0438 -1097.4546,867.0872 -1091.799,867.8743 -1085.9359,868.2381 -1079.8691,868.1589 -1073.5939,867.7382 -1067.1799,866.8977 -1060.6058,865.7707 -1053.8309,864.5763 -1046.855,863.3682 -1039.6897,862.1213 -1032.3577,860.7763 -1024.9031,859.3178 -1017.3011,857.6978 -1009.5325,856.036 -1001.6001,854.342 -993.5095,852.6165 -985.264,850.8644 -976.0201,848.9026 -968.3254,847.2704 -958.765,845.2414 -950.8195,843.5517 -941.8652,841.6418 -932.7803,839.6967 -923.5675,837.7202 -914.2306,835.7144 -904.7821,833.6807 -895.2438,831.6232 -885.5914,829.5402 -875.8021,827.5889 -865.8907,825.7236 -855.8624,823.9699 -845.7299,822.2719 -835.494,820.6557 -825.1447,819.2123 -814.6893,817.9664 -804.1176,817.163 -793.4495,816.727 -782.6974,816.7058 -771.86,816.7565 -760.9429,816.858 -749.9523,817.1773 -738.8954,817.7089 -727.7766,818.4974 -716.597,819.4943 -705.3663,820.7927 -694.0712,822.2629 -682.7119,823.9047 -671.2781,825.6423 -659.7627,827.4269 -648.1597,829.2169 -635.3716,831.1802 -625.2585,832.7283 -614.7659,834.3354 -605.0613,835.8111 -596.1152,837.1038 -587.848,838.121 -580.1732,838.7345 -572.9172,838.9146 -565.956,838.5394 -559.2278,837.5979 -552.7489,836.068 -546.5648,833.9507 -540.6363,831.2757 -534.362,827.6995 -529.3928,824.3152 -524.0247,820.0765 -518.9102,815.3133 -514.0551,810.0303 -509.3875,804.3105 -504.9213,798.1848 -500.7368,791.6393 -496.759,784.7405 -492.8651,777.5779 -489.1229,770.1326 -485.6742,762.3607 -482.5353,754.284 -479.7365,745.9081 -477.2573,737.2654 -475.1743,728.3655 -473.42,719.2384 -472.0312,709.9031 -471.0597,700.3785 -470.5146,690.7089 -470.4439,680.8894 -470.8744,670.9516 -471.8309,660.9205 -473.2869,650.8215 -475.2891,640.6887 -477.8017,630.5457 -480.7128,620.3564 -483.6046,610.0109 -486.4841,599.5118 -489.2548,588.8479 -492.0484,578.0596 -494.8864,567.1545 -497.7628,556.1373 -500.6227,544.9974 -503.4397,533.7338 -506.2215,522.5979 -508.8715,511.0424 -510.5936,502.037 -512.0504,492.5355 -513.0078,483.4908 -513.4065,474.6823 -513.2127,465.9196 -512.4646,457.0589 -511.123,448.1255 -508.8377,438.3001 -506.4144,430.2819 -503.221,421.5009 -499.6284,412.9645 -495.88,405.0056 -492.2491,397.813 -488.5992,391.3917 -484.8832,385.6409 -480.9773,380.5239 -476.8517,376.0107 -472.5298,372.1619 -468.0975,368.8843 -463.6537,366.0319 -459.1192,363.7275 -454.4722,362.1023 -449.7767,361.0936 -445.0085,360.545 -440.0481,360.3919 -434.9226,360.612 -429.6466,361.2283 -424.1622,362.0818 -417.9054,363.318 -412.613,364.5089 -406.5519,365.9622 -400.2951,367.4712 -393.8541,369.0315 -387.2386,370.6233 -380.4185,372.024 -372.6578,373.2841 -366.1147,374.0022 -358.6784,374.5549 -351.0884,375.0698 -343.3292,375.6014 -335.4052,376.1415 -327.3151,376.5753 -319.0616,376.8044 -310.6545,376.9105 -302.1195,376.6174 -293.4484,376.072 -284.6456,375.3511 -275.7076,374.5278 -266.6302,373.6924 -257.4165,372.8426 -248.0695,371.9837 -238.5945,371.1169 -228.9934,370.2442 -219.3047,369.3629 -209.4987,368.4716 -205.543,368.1127 -199.5746,367.5695 -189.5376,366.6499 -179.392,365.709 -169.1355,364.793 -158.7671,363.9392 -148.291,363.1419 -137.7139,362.3494 -127.0352,361.6024 -116.2554,360.9038 -105.3739,360.2813 -94.3941,359.7433 -83.3156,359.2947 -72.1458,358.7905 -60.8866,358.2165 -49.5741,357.6607 -38.5855,357.1651 -28.3586,356.6915 -18.9332,356.259 -10.2534,355.9304 -2.32,355.7275 5.6217,355.6663 11.6079,355.9121 17.7501,356.5014 23.3661,357.3937 28.5013,358.6243 33.1608,360.2408 37.3577,362.1887 41.0858,364.4519 44.3556,366.979 47.3544,369.8293 50.3016,372.9105 53.3217,375.7155 56.5809,378.0967 60.0587,379.984 63.7472,381.3584 67.6636,382.3082 71.8388,382.9325 76.7545,383.2358 81.0113,383.2248 85.9899,382.8813 91.6393,381.9679 96.3457,380.8057 102.2039,378.8979 107.0484,376.9868 112.5825,374.5858 118.2868,371.9288 124.1858,369.0979 130.2185,366.0113 136.4411,362.7986 142.8915,359.5486 149.5621,356.2587 156.3915,352.9165 163.3993,349.4919 170.5887,345.9981 177.9473,342.424 185.4662,338.7687 193.1426,335.0366 200.9528,331.1928 208.8021,327.0694 216.7489,322.7894 224.7328,318.2617 232.7364,313.4704 240.7822,308.4656 248.9364,303.3603 257.109,298.0824 265.2344,292.5045 273.4221,286.7793 281.7008,280.9524 290.014,274.9552 298.1675,268.5569 306.9974,261.1253 314.2892,254.9545 322.4706,248.0178 331.565,240.2926 339.065,233.8837 347.395,226.6019 355.6886,219.1213 363.9451,211.4486 372.2235,203.6523 380.5091,195.7219 388.6893,187.553 396.7431,179.1301 404.8275,170.6081 412.7701,161.8768 420.6641,152.9766 428.6222,144.0099 436.6396,134.9757 444.7198,125.8758 453.7929,115.8992 461.5672,107.974 470.4676,99.314 479.6701,90.8646 489.2328,82.7164 499.1941,74.947 509.5439,67.5846 520.3085,60.7124 531.4602,54.3561 542.9035,48.3862 554.5063,42.5519 566.1424,37.006 577.2652,31.7374 587.6456,26.8225 597.3251,22.2969 606.3416,18.1704 614.6822,14.3641 622.4882,10.7958 629.649,7.516 636.1501,4.4348 641.9821,1.3995 647.1505,-1.6252 651.7308,-4.695 655.7657,-7.8639 659.2792,-11.2023 662.3149,-14.8147 665.0352,-18.8057 667.4481,-23.1497 669.3975,-27.671 670.8124,-32.3233 671.6959,-37.0338 672.0366,-41.8474 671.8435,-46.8199 671.1727,-51.9563 670.0684,-57.2847 668.5573,-62.7975 666.6989,-68.4902 664.5518,-74.349 661.767,-80.9114 659.0244,-87.0393 656.439,-92.681 653.3562,-99.0077 649.9727,-105.1348 646.3649,-110.7698 642.676,-115.8804 638.9133,-120.4117 635.0543,-124.3602 631.1228,-127.7716 627.1619,-130.6314 622.9897,-132.9915 618.6423,-134.8347 614.1564,-136.1297 609.5212,-136.9127 604.6509,-137.3108 599.5048,-137.3626 594.1832,-136.9409 588.7191,-136.0695 583.0176,-134.976 577.0715,-133.7516 570.9157,-132.3017 564.5919,-130.5424 558.0872,-128.5638 551.4193,-126.3685 544.6353,-123.8639 537.6954,-121.1879 530.7435,-118.1665 523.7922,-114.7139 516.716,-111.0803 509.4281,-107.4579 501.9336,-103.8551 494.2477,-100.2599 486.4005,-96.6173 477.5272,-92.701 470.101,-89.5276 461.7171,-85.9468 453.1964,-82.3134 444.5431,-78.6284 435.7604,-74.8936 426.8652,-71.1163 417.8661,-67.3056 408.7141,-63.5278 399.4317,-59.7356 390.0268,-55.9189 379.5363,-51.7102 370.8362,-48.2775 361.0117,-44.5753 351.014,-41.0279 340.8611,-37.5984 330.5602,-34.2794 320.1411,-30.991 309.5528,-27.9374 298.7605,-25.3174 287.8025,-23.0062 276.7108,-20.8902 265.5111,-18.8532 254.1897,-17.0086 242.7477,-15.4305 231.2029,-14.3053 219.566,-13.3191 207.8363,-12.4635 196.0142,-11.8123 184.1092,-11.2179 172.1267,-10.6112 160.0677,-9.9986 147.9352,-9.372 135.7297,-8.7352 123.4493,-8.1925 111.0947,-7.7806 98.6683,-7.5439 86.174,-7.3957 73.6143,-7.3319 59.7279,-7.473 48.3136,-7.7374 35.5848,-8.2737 22.8279,-9.2184 10.0357,-10.4355"/>
	<!-- Raw distance reference points -->
	<polyline id="dist" fill="none" stroke="none" stroke-width="0" points="4893.0806,0.8452 18.322,0.8743 31.5801,0.92 44.91,0.9699 58.2904,1.0756 71.4369,1.1542 84.6657,1.2377 97.9441,1.3285 111.2442,1.4461 124.5943,1.5597 138.0043,1.6503 151.4541,1.7495 164.9474,1.8086 178.487,1.8711 192.0807,1.9379 205.7164,2.0068 219.3802,2.0984 233.1682,2.2017 247.0272,2.2747 260.8454,2.3806 274.7354,2.4763 288.681,2.5931 302.6406,2.6836 316.6114,2.8108 330.5897,2.9133 344.6113,2.9609 358.6154,3.0337 372.652,3.0543 386.7081,3.1138 400.7808,3.1551 414.8557,3.1881 428.9751,3.193 443.1201,3.2004 457.3056,3.2206 471.5423,3.2155 485.7853,3.2508 500.039,3.2534 514.3382,3.2474 528.6633,3.2457 542.7888,3.2593 556.11,3.2604 568.5541,3.2627 580.1955,3.2655 591.0759,3.2911 601.3665,3.2905 611.1166,3.2919 620.378,3.2931 628.9545,3.2869 636.8113,3.2862 644.0214,3.2836 650.5635,3.2837 656.5027,3.272 662.0257,3.2576 667.3945,3.2303 672.8611,3.2046 678.5471,3.1666 684.451,3.1322 690.5229,3.1312 697.2618,3.1305 703.4637,3.1179 709.4902,3.123 715.2628,3.1642 721.1317,3.1737 727.3572,3.1656 733.8655,3.1475 740.5978,3.1162 747.9871,3.1186 755.2646,3.0997 763.0139,3.0995 770.1723,3.1028 777.4049,3.1564 784.5225,3.2025 791.83,3.259 799.334,3.3367 807.0019,3.3893 814.8587,3.4511 822.8994,3.5041 831.1296,3.5469 839.5383,3.5928 848.1168,3.6517 856.8438,3.6902 865.6838,3.7135 874.9937,3.7561 884.7163,3.7687 894.001,3.806 903.0871,3.8427 912.0411,3.9056 920.9532,3.9678 930.0543,4.0295 939.3292,4.0966 948.7068,4.1311 958.2437,4.1293 967.9135,4.1258 977.7142,4.1597 987.639,4.1733 997.6869,4.1787 1007.8563,4.1879 1018.1097,4.2111 1028.4584,4.241 1038.9164,4.3102 1049.4945,4.3373 1060.1826,4.3792 1070.9775,4.4026 1081.8778,4.419 1092.8781,4.4632 1103.9763,4.4869 1115.1726,4.5068 1126.4774,4.523 1137.8696,4.5362 1149.3456,4.5689 1160.9128,4.5811 1172.5665,4.6153 1184.2991,4.6215 1196.0741,4.6616 1207.9009,4.69 1219.8358,4.7255 1231.8925,4.7648 1244.0007,4.797 1255.8909,4.8289 1267.0214,4.851 1277.4177,4.8956 1287.1511,4.9277 1296.2994,4.9634 1305.1138,5.0023 1313.9141,5.0236 1323.2406,5.0733 1332.6859,5.1507 1341.5508,5.1986 1350.0162,5.2752 1358.4554,5.3303 1366.3627,5.3883 1373.6272,5.4484 1380.6481,5.491 1387.4417,5.5211 1393.9995,5.5542 1400.5603,5.5859 1408.0021,5.6509 1414.9224,5.6934 1422.0917,5.7393 1428.4128,5.8163 1434.5323,5.8995 1440.7177,5.9781 1447.009,6.0436 1453.6307,6.1002 1460.4316,6.1444 1467.4305,6.189 1474.6104,6.2338 1481.976,6.3143 1489.5736,6.3885 1497.3376,6.4385 1505.2769,6.5499 1513.379,6.6459 1521.6512,6.7803 1530.0859,6.9142 1538.6792,7.0472 1547.4392,7.206 1556.353,7.3606 1565.4015,7.5454 1574.5873,7.7933 1583.9078,8.0124 1593.3607,8.2778 1602.9354,8.5799 1612.5732,8.8988 1621.8478,9.2376 1630.6318,9.5423 1638.7778,9.8615 1646.2581,10.0782 1653.0793,10.3013 1659.3306,10.5184 1665.1853,10.7251 1670.7959,10.8826 1675.9901,11.0627 1680.8319,11.2391 1685.2615,11.4063 1689.4398,11.5604 1693.7606,11.7216 1698.3381,11.8972 1703.1165,12.0844 1707.9075,12.2734 1712.6029,12.4555 1717.2152,12.6393 1721.8688,12.8278 1726.6449,13.0462 1730.9229,13.2405 1736.6292,13.4709 1741.9083,13.7201 1747.2477,14.0026 1752.4849,14.3117 1757.7289,14.6255 1763.2178,14.9254 1768.9734,15.216 1774.9945,15.5052 1781.2455,15.7874 1787.6639,16.0677 1794.3195,16.3352 1801.1876,16.6181 1808.2804,16.9185 1815.5691,17.2411 1823.0474,17.5626 1830.6495,17.8776 1838.412,18.2 1846.3555,18.5358 1854.4677,18.8635 1862.7386,19.2042 1871.1647,19.5401 1879.7434,19.8853 1888.4745,20.1605 1897.3478,20.4924 1906.3599,20.7618 1915.5118,21.0718 1924.7976,21.3451 1934.2137,21.611 1943.7539,21.893 1953.4113,22.194 1963.1652,22.4976 1973.0421,22.8378 1983.0333,23.2598 1993.1277,23.7683 2003.3218,24.3642 2013.605,25.0241 2023.9663,25.7124 2034.4275,26.4273 2044.947,27.1403 2055.5273,27.8503 2066.1772,28.5704 2076.885,29.2792 2087.7202,29.9465 2098.658,30.607 2109.6921,31.2555 2120.8201,31.8927 2132.0881,32.4956 2143.3838,32.979 2154.7314,33.3023 2166.1255,33.4861 2177.6196,33.5476 2189.2051,33.5087 2200.8723,33.447 2212.6143,33.3728 2224.3784,33.2777 2235.7827,33.201 2246.3894,33.128 2256.2021,33.0597 2265.2288,33.0062 2273.5503,32.9572 2281.2341,32.9359 2288.4424,32.9178 2295.3091,32.9008 2302.2041,32.8619 2309.0435,32.8261 2315.8425,32.8068 2323.1814,32.7763 2330.1653,32.7363 2337.5342,32.6764 2344.6426,32.5583 2352.0664,32.4068 2359.3435,32.2309 2366.71,32.0533 2374.1829,31.8803 2381.8635,31.6807 2389.7678,31.4851 2397.8628,31.2586 2406.1731,30.9995 2414.6472,30.7316 2423.2922,30.4134 2432.0151,30.1098 2440.9133,29.8208 2449.9231,29.5053 2459.1169,29.1491 2468.4888,28.7253 2478.0378,28.2335 2487.7258,27.6949 2497.5684,27.1016 2507.5859,26.42 2517.772,25.6733 2528.0986,24.8271 2538.5339,23.9222 2549.0684,22.9102 2559.7458,21.9312 2570.575,21.0077 2581.5168,20.1914 2592.6208,19.4174 2603.832,18.6627 2615.137,17.9615 2626.5105,17.2953 2638.0364,16.7095 2649.6597,16.1636 2661.1382,15.6059 2671.9255,15.068 2682.106,14.6196 2691.688,14.1423 2700.7148,13.6757 2709.4077,13.2107 2718.2439,12.7474 2727.7932,12.2678 2737.6248,11.8341 2747.127,11.523 2756.3665,11.3183 2765.6089,11.1526 2774.7739,11.0138 2783.5056,10.9288 2791.5015,10.8918 2798.8777,10.9177 2805.7239,10.9475 2812.137,11.0041 2818.1531,11.0751 2823.7068,11.1913 2828.9766,11.3053 2834.4009,11.4493 2840.125,11.6679 2846.8535,11.9932 2852.4216,12.3625 2857.5784,12.6948 2862.4468,13.0497 2867.3467,13.3999 2872.5298,13.7921 2877.9963,14.2339 2883.7373,14.7672 2889.7834,15.2474 2896.1182,15.8262 2902.9932,16.4794 2910.0193,17.199 2917.6121,17.857 2924.6072,18.4675 2931.6494,19.1276 2938.9089,19.6722 2946.3457,20.2354 2953.9272,20.7721 2961.6614,21.2794 2969.5754,21.7689 2977.6589,22.2262 2985.9048,22.6697 2994.2996,23.0821 3002.844,23.4997 3011.5188,23.8339 3020.3413,24.1497 3029.2927,24.4228 3038.4111,24.6839 3047.6733,24.9315 3057.0676,25.1722 3066.5835,25.4584 3076.22,25.7208 3085.9414,25.9853 3095.781,26.2745 3100.1367,26.3846 3105.7358,26.5394 3115.8071,26.8199 3125.9895,27.1407 3136.2793,27.4452 3146.6792,27.7341 3157.1855,28.0441 3167.7954,28.3667 3178.5037,28.6826 3189.3042,28.9596 3200.21,29.1711 3211.1936,29.3636 3222.2664,29.5227 3233.4412,29.6166 3244.7358,29.6686 3256.0696,29.7476 3267.0334,29.8398 3277.2656,29.9123 3286.7161,29.9884 3295.4092,30.0552 3303.3491,30.1336 3310.5972,30.2105 3317.2632,30.2815 3323.3635,30.346 3328.9397,30.4223 3334.0613,30.5098 3338.9004,30.6217 3343.9585,30.7299 3349.5647,30.8431 3354.8953,30.94 3359.2141,30.9945 3363.2354,31.0103 3367.282,31.016 3371.0291,30.9938 3375.667,30.9593 3382.396,30.937 3387.4634,30.9011 3392.002,30.8487 3396.1865,30.7793 3400.656,30.6981 3405.3552,30.5991 3410.3882,30.4859 3415.697,30.3695 3421.252,30.2218 3426.9919,30.1017 3433.0237,29.9588 3439.3125,29.8212 3445.8464,29.6875 3452.5999,29.5552 3459.5896,29.4019 3466.7827,29.2238 3474.2161,29.0657 3481.8159,28.9518 3489.6169,28.805 3497.6201,28.6645 3505.7991,28.5595 3514.1545,28.4228 3522.6794,28.2795 3531.3767,28.1211 3540.2266,27.985 3549.2305,27.8302 3558.3789,27.6732 3567.6943,27.4999 3577.1936,27.2936 3586.8523,27.1197 3596.6284,26.95 3606.5115,26.7655 3616.5212,26.5524 3626.676,26.3388 3636.9714,26.0889 3647.375,25.8205 3657.8748,25.5372 3668.4802,25.3065 3679.2427,25.0344 3690.1821,24.7155 3701.2888,24.5007 3712.4124,24.265 3723.6184,24.0618 3734.8892,23.8635 3746.2471,23.6582 3757.7224,23.4269 3769.2905,23.1706 3780.9485,22.898 3792.6953,22.5604 3804.5032,22.1338 3816.3972,21.7279 3828.3958,21.28 3840.4871,20.7455 3852.6694,20.1587 3864.9412,19.4718 3877.2678,18.8713 3889.6868,18.1636 3902.1655,17.4179 3914.7417,16.5392 3927.4109,15.6622 3940.1726,14.7199 3953.1367,13.8271 3966.1445,12.9407 3979.2856,11.9962 3992.4062,11.0921 4005.3445,10.1927 4017.678,9.3373 4029.1904,8.5462 4039.9016,7.8093 4049.8391,7.1191 4059.0149,6.495 4067.6011,5.9121 4075.4883,5.3962 4082.6887,4.9353 4089.2678,4.5302 4095.2463,4.1916 4100.7202,3.8703 4105.7412,3.5602 4110.3862,3.2693 4114.9438,3.0056 4120.0327,2.7413 4125.7017,2.4745 4132.0474,2.2068 4137.4556,1.9695 4142.5684,1.793 4147.457,1.6393 4152.2495,1.5173 4157.2456,1.401 4162.561,1.2904 4168.1772,1.1641 4174.1084,1.0341 4180.3047,0.9205 4186.708,0.7964 4193.3896,0.705 4200.2646,0.6734 4207.2681,0.5904 4214.2495,0.5058 4220.8853,0.4699 4227.0356,0.4117 4232.6958,0.3539 4237.9663,0.3039 4243.0762,0.2607 4247.9775,0.2159 4252.8281,0.172 4257.6299,0.1302 4262.4058,0.0941 4267.2661,0.0558 4272.3413,0.0141 4277.644,-0.0076 4283.0752,-0.0265 4288.6006,-0.0548 4294.3105,-0.0903 4300.2896,-0.1521 4306.5493,-0.2246 4313.0493,-0.2915 4319.7935,-0.353 4326.7715,-0.4302 4333.9946,-0.4925 4341.4224,-0.5373 4349.0161,-0.5831 4356.7979,-0.663 4364.7168,-0.737 4372.7979,-0.7951 4381.0879,-0.7621 4389.5508,-0.7709 4398.1953,-0.7891 4407.0068,-0.793 4415.9756,-0.7931 4425.1035,-0.7783 4434.3789,-0.7588 4443.7974,-0.7404 4453.3413,-0.7101 4463.0029,-0.6625 4472.7729,-0.6542 4482.668,-0.6159 4492.687,-0.5751 4502.8291,-0.5577 4513.0991,-0.5243 4523.5054,-0.5033 4534.0361,-0.4949 4544.6958,-0.4806 4555.4995,-0.4799 4566.5205,-0.4764 4577.5513,-0.4412 4588.6948,-0.4026 4599.9233,-0.3647 4611.2456,-0.3331 4622.8188,-0.2974 4634.3633,-0.263 4645.8491,-0.2123 4657.3428,-0.152 4668.9243,-0.091 4680.5923,-0.0427 4692.3481,-0.0048 4704.1885,0.0552 4716.1035,0.1099 4728.0962,0.1531 4740.167,0.1995 4752.313,0.2669 4764.5327,0.2934 4776.8237,0.3377 4789.187,0.3834 4801.6108,0.4347 4814.1001,0.4897 4826.6489,0.5368 4839.2622,0.621 4851.9331,0.6643 4864.6416,0.7168 4877.373,0.7645 4890.1431,0.7684"/>
</svg>
