<?xml version="1.0" encoding="utf-8"?>
<!-- Track map generated with TinyPedal -->
<svg viewBox="-336.1521 -1250.2284 1296.9229 2209.4491" version="1.1" xmlns="http://www.w3.org/2000/svg">
	<title>Autodromo Nazionale Monza</title>
	<!-- Sector coordinates index -->
	<desc>186,380</desc>
	<!-- Raw global coordinates -->
	<polyline id="map" fill="none" stroke="black" stroke-width="10" points="-304.5861,461.3603 -302.9278,442.2306 -301.8207,429.4051 -300.7109,416.5234 -299.5986,403.5866 -298.3722,389.2936 -297.3671,377.5517 -296.2487,364.4561 -295.1301,351.3095 -294.0087,338.1133 -292.8871,324.8683 -291.7664,311.5753 -290.6242,298.2373 -289.4655,284.8546 -288.3089,271.4268 -287.153,257.9549 -285.9986,244.4403 -284.8435,230.8834 -283.6882,217.2853 -282.5331,203.6471 -281.38,189.9688 -280.2289,176.2514 -279.0805,162.4956 -277.934,148.7025 -276.7886,134.8727 -275.6465,121.0063 -274.5074,107.1043 -273.369,93.1678 -272.2327,79.1974 -271.0991,65.1935 -269.9686,51.157 -268.8448,37.1056 -267.7222,23.0331 -266.6034,8.929 -265.4879,-5.2064 -264.3811,-19.3728 -263.3443,-33.5741 -262.3152,-47.8052 -261.1653,-62.0552 -259.9977,-76.3318 -258.8338,-90.6369 -257.675,-104.9698 -256.5239,-119.3312 -255.3992,-133.7222 -254.2869,-148.1398 -253.1816,-162.5828 -252.0346,-177.0475 -250.8702,-191.5349 -249.7092,-206.0472 -248.5523,-220.5813 -247.3247,-235.1315 -246.06,-249.7004 -244.8011,-264.2913 -243.5472,-278.9028 -242.2955,-293.5363 -241.0429,-308.1477 -239.8437,-322.2046 -238.723,-335.4158 -237.6547,-347.7949 -236.6265,-359.3246 -235.6547,-370.02 -234.725,-380.1542 -233.8165,-390.0602 -232.9455,-399.572 -232.1445,-408.3677 -231.4186,-416.4329 -230.7559,-423.798 -230.1058,-430.5254 -229.3609,-436.5888 -228.4052,-442.0521 -227.3101,-446.9128 -226.1125,-451.1727 -224.7336,-454.8687 -223.1413,-458.049 -221.2593,-460.7798 -219.0599,-463.0754 -216.552,-464.8743 -213.7911,-466.1932 -210.8139,-467.0804 -207.5851,-467.6434 -203.659,-468.2536 -200.1797,-468.9259 -196.2813,-470.0613 -192.6045,-471.6595 -189.2582,-473.7098 -186.3049,-476.1634 -183.8138,-478.9695 -181.7988,-482.0543 -180.2533,-485.3752 -179.1785,-488.8747 -178.5993,-492.4909 -178.5422,-496.1756 -178.9764,-499.8907 -179.7798,-503.7155 -180.8245,-507.8022 -182.2609,-512.0023 -183.9012,-516.4332 -185.5899,-521.1815 -187.3043,-526.2308 -189.0305,-531.5663 -190.6609,-537.146 -192.2561,-542.9966 -193.8152,-549.1096 -195.3836,-555.4606 -196.9325,-562.0467 -198.3948,-568.8712 -199.8856,-575.9017 -201.3986,-583.1307 -202.8618,-590.5416 -204.1236,-598.1578 -205.2899,-605.9747 -206.2599,-613.9924 -207.0908,-622.198 -207.7626,-630.5818 -208.2566,-639.138 -208.5607,-647.8579 -208.5695,-656.7283 -208.3501,-665.7431 -207.9979,-674.898 -207.618,-684.1926 -207.2207,-693.6232 -206.8112,-703.1869 -206.3914,-712.8659 -205.961,-722.651 -205.5139,-732.561 -205.0677,-742.5933 -204.6114,-752.7442 -204.0036,-763.0022 -203.1649,-773.3544 -201.9142,-783.7691 -200.3967,-794.2585 -198.4367,-804.7664 -195.9475,-815.2593 -193.2137,-825.7973 -189.7913,-837.3868 -186.5981,-846.8298 -182.5818,-857.2354 -178.0116,-867.4974 -173.105,-877.7043 -167.746,-887.7664 -161.9124,-897.6564 -155.6203,-907.3522 -148.8692,-916.8291 -141.841,-926.2068 -134.5894,-935.4904 -127.1066,-944.6753 -119.364,-953.7389 -111.246,-962.5625 -102.8585,-971.2311 -96.7577,-977.1155 -94.0697,-979.5672 -84.7759,-987.4017 -75.033,-994.7623 -64.9501,-1001.7644 -54.5986,-1008.4799 -43.9168,-1014.7595 -32.9048,-1020.5549 -21.7648,-1026.2479 -10.5548,-1031.9426 0.7707,-1037.538 12.3546,-1042.6705 24.2305,-1047.1976 36.3391,-1051.2207 48.6196,-1054.8651 61.0571,-1058.1366 73.6499,-1060.9598 86.3684,-1063.4252 99.1855,-1065.6377 112.0939,-1067.5795 125.0934,-1069.2108 138.1686,-1070.6163 151.3091,-1071.8286 164.5227,-1072.6542 177.7896,-1073.3998 191.1037,-1074.1449 204.4645,-1074.8906 217.8704,-1075.6406 231.3165,-1076.4642 244.8046,-1077.3214 258.3358,-1078.1776 271.9091,-1079.0326 285.524,-1079.8822 299.1797,-1080.7198 312.8747,-1081.5638 326.6104,-1082.3868 340.3858,-1083.1934 354.2019,-1083.9556 368.036,-1084.7272 381.6724,-1085.4978 394.6013,-1086.2385 406.708,-1086.9429 417.9888,-1087.6123 428.4228,-1088.2365 438.1458,-1088.8231 448.6032,-1089.4514 456.6554,-1089.9398 464.9305,-1090.451 472.5216,-1090.9493 479.412,-1091.5076 485.6881,-1092.2925 491.4307,-1093.354 496.6268,-1094.7385 501.4312,-1096.5299 505.9502,-1098.7682 510.1104,-1101.4698 513.8626,-1104.5863 517.2961,-1107.9331 520.1589,-1111.6444 522.6619,-1115.5699 524.8345,-1119.7729 527.2228,-1123.9462 529.9667,-1127.8864 532.9572,-1131.6313 536.3098,-1134.99 540.0305,-1137.8619 544.0961,-1140.366 548.5327,-1142.5588 553.3183,-1144.549 558.431,-1146.4391 563.8635,-1148.2096 567.8586,-1149.3474 569.6176,-1149.8048 575.6551,-1151.2889 581.9609,-1152.6678 588.5012,-1154.0527 595.234,-1155.58 602.1014,-1157.4261 609.1341,-1159.4512 616.3426,-1161.5476 623.7087,-1163.6823 631.2576,-1165.8625 638.976,-1168.1108 646.8116,-1170.5731 654.7925,-1173.1473 662.9327,-1175.7712 671.1993,-1178.5232 679.5789,-1181.4298 688.1002,-1184.3928 696.7607,-1187.4066 705.5594,-1190.4628 714.4896,-1193.567 723.5447,-1196.7271 732.7045,-1199.9312 741.9728,-1203.1738 751.3658,-1206.447 760.9028,-1209.684 770.5582,-1212.9498 780.3165,-1216.2811 790.0122,-1219.574 799.0861,-1222.5734 807.5148,-1225.2065 815.4404,-1227.3488 823.0213,-1228.9065 830.2806,-1229.8615 837.2517,-1230.2284 844.027,-1229.9662 850.6189,-1229.0774 857.0157,-1227.5466 863.3103,-1225.4331 869.5718,-1222.746 875.8084,-1219.5409 881.9615,-1215.814 887.8755,-1211.4912 893.4849,-1206.6105 898.7501,-1201.177 903.6335,-1195.2136 908.0981,-1188.781 912.0599,-1181.9037 915.499,-1174.6357 918.3911,-1167.0259 920.7266,-1159.0896 922.5556,-1150.8705 923.9091,-1142.4121 924.9197,-1133.7499 925.8828,-1124.9238 926.7109,-1115.9351 927.3741,-1106.7847 928.0785,-1097.4933 928.9575,-1087.1196 929.7114,-1078.5125 930.6658,-1068.8567 931.6483,-1059.0876 932.5751,-1049.1862 933.4484,-1039.1565 934.2462,-1028.9998 935.1374,-1018.7335 936.1788,-1008.3677 937.3796,-997.9077 938.4824,-987.3355 939.459,-977.0056 940.2805,-967.378 940.7485,-957.5724 940.7708,-950.0358 940.321,-942.1123 939.5113,-934.5889 938.2601,-927.4728 936.5312,-920.7006 934.6777,-914.8494 931.9835,-907.996 928.9146,-902.1872 925.2157,-896.8223 920.972,-891.7756 916.2202,-887.0319 910.9917,-882.5883 905.322,-878.476 899.2771,-874.655 892.9113,-871.0027 886.288,-867.4589 879.4268,-863.9775 872.4025,-860.3988 865.2316,-856.7061 857.9045,-852.9292 850.4277,-849.0695 842.8032,-845.1353 835.0379,-841.1253 827.1354,-837.0414 819.1019,-832.8834 810.9423,-828.6522 802.6651,-824.3401 794.3011,-819.8992 785.9129,-815.2284 777.4606,-810.4493 768.9089,-805.6119 760.2485,-800.7102 751.4862,-795.7388 742.6244,-790.6998 733.6725,-785.5826 723.7198,-779.8728 715.4911,-775.1487 706.2607,-769.8438 696.9391,-764.484 687.5086,-759.1068 677.9421,-753.7646 668.2928,-748.3672 658.5635,-742.9149 648.7585,-737.4041 638.8967,-731.8068 629.0104,-726.0736 619.0901,-720.2275 609.1448,-714.2595 599.2872,-708.0018 589.5328,-701.4482 579.9398,-694.5759 570.3883,-687.5089 560.8333,-680.3151 550.3997,-672.1536 541.8573,-665.3691 532.353,-657.7294 522.8558,-649.9605 513.403,-642.0193 503.9175,-633.9979 494.3752,-625.9257 484.8212,-617.7524 475.2762,-609.4561 464.6993,-600.2909 455.985,-592.7648 445.2725,-583.52 436.4724,-575.9039 426.6535,-567.3921 416.7865,-558.8378 406.8804,-550.2336 396.9859,-541.5236 387.1026,-532.7116 376.1852,-522.9702 367.2214,-514.9623 357.229,-506.0264 347.2003,-497.0569 337.1311,-488.0608 327.0033,-479.0638 316.8436,-470.0357 306.654,-460.9832 296.4353,-451.9071 286.1871,-442.8104 275.9154,-433.6871 265.6336,-424.5239 255.3504,-415.3115 244.9906,-406.1345 234.5807,-396.9658 224.1187,-387.8078 213.639,-378.6212 203.1394,-369.408 192.608,-360.2111 182.2677,-351.2126 172.5409,-342.7301 163.4866,-334.7897 155.0758,-327.3817 147.2832,-320.5066 139.897,-313.9882 132.7047,-307.6325 125.9834,-301.6704 119.8811,-296.1093 114.4217,-290.7433 109.6168,-285.4789 105.4503,-280.334 101.8815,-275.2313 98.7788,-270.0002 95.8847,-264.6744 93.2953,-259.1727 91.0512,-253.4591 89.1976,-247.5223 87.7507,-240.742 87.0183,-235.0504 86.7224,-228.5893 86.7622,-221.9379 86.8373,-215.0857 86.8292,-208.0361 86.6083,-200.8052 86.1194,-193.4152 85.1324,-185.9815 83.6076,-178.5717 81.6195,-171.1947 79.1087,-163.8515 76.1183,-156.5435 72.583,-149.3691 68.4757,-142.4101 63.8056,-135.7127 58.6035,-129.2915 52.9043,-123.1426 47.0228,-116.9651 41.3681,-110.4167 36.0825,-103.4181 31.1805,-96.0002 26.691,-88.2166 22.7227,-80.0711 19.3054,-71.5997 16.447,-62.828 14.0983,-53.7837 12.2439,-44.4979 10.9117,-35.0408 9.8953,-25.4151 8.8798,-15.6563 7.8958,-5.7657 7.0435,4.2621 6.243,14.4172 5.447,24.6928 4.6603,35.0865 3.8629,45.5937 3.0632,56.2123 2.2489,66.9387 1.4282,77.7704 0.5967,88.7046 -0.2337,99.7403 -1.0614,110.8754 -1.9008,122.1066 -2.7735,133.4294 -3.6985,144.8404 -4.6332,156.3414 -5.6824,167.9202 -6.7969,179.5796 -8.008,191.3066 -9.2598,203.0898 -10.5407,214.9527 -11.9758,226.8766 -13.5478,238.8622 -15.1215,250.925 -16.6972,263.0632 -18.2658,275.2764 -19.7884,287.568 -21.3038,299.9314 -22.7936,312.3673 -24.203,324.8801 -25.5564,337.4655 -26.8729,350.1194 -28.1943,362.8365 -29.5194,375.6154 -30.8497,388.4547 -32.186,401.3532 -33.5254,414.31 -34.8637,427.3244 -36.1978,440.3955 -37.4727,453.5271 -38.6215,466.7234 -39.6887,479.9787 -40.7447,493.2871 -41.7947,506.6469 -42.8417,520.057 -43.9127,533.5139 -44.9954,547.0175 -46.132,560.5625 -47.3335,574.1476 -48.5329,587.7778 -49.7503,601.4506 -50.9618,615.1675 -52.1967,628.9253 -53.4551,642.7225 -54.7588,656.5565 -56.1125,670.4249 -57.5203,684.3264 -58.9885,698.2596 -60.4556,712.2302 -61.9188,726.238 -63.5269,741.6716 -64.8388,754.3193 -66.2877,768.3664 -67.7114,782.1863 -69.0609,795.3145 -70.3099,807.5666 -71.4589,818.9514 -72.5313,829.4996 -73.5966,839.2529 -74.6387,848.279 -75.8254,856.5751 -77.3475,864.2584 -79.2544,871.4813 -81.6727,878.3901 -84.6012,885.1549 -88.0348,891.8466 -91.9838,898.3853 -96.4515,904.6661 -101.3933,910.5626 -106.7777,915.9736 -112.5631,920.8566 -118.7251,925.1782 -125.2002,928.9415 -131.9533,932.1077 -138.9825,934.687 -146.2772,936.7248 -153.8382,938.178 -161.5891,939.0149 -169.4761,939.2207 -177.4623,938.7831 -185.515,937.7169 -193.5776,936.0225 -201.581,933.6926 -209.4758,930.733 -217.2288,927.1513 -224.8564,923.0047 -232.3582,918.3691 -239.6282,913.1708 -246.6273,907.4133 -253.3459,901.1495 -259.7313,894.3893 -265.7598,887.1532 -271.4724,879.5073 -276.827,871.5003 -281.87,863.1601 -286.6165,854.5115 -291.3144,845.6959 -295.8308,836.6638 -299.8278,827.3046 -303.2271,817.6374 -305.9892,807.6974 -308.2011,797.5239 -310.1122,787.1804 -311.6649,776.6746 -313.0727,766.0418 -314.2882,755.2858 -315.1805,744.402 -315.8894,733.4084 -316.1521,722.3103 -316.1172,711.1154 -315.899,699.8312 -315.5452,688.4608 -315.0659,677.0069 -314.4811,665.4721 -313.876,653.8549 -313.308,642.1545 -312.7892,630.3813 -312.2648,618.5516 -311.7345,606.6447 -311.1975,594.6617 -310.6523,582.6045 -310.0491,569.2576 -309.5558,558.2737 -309.0072,546.0028 -308.4635,533.6635 -307.8645,521.2601 -307.1828,508.7958 -306.4431,496.2705 -305.638,483.6861 -304.8039,471.0413"/>
	<!-- Raw distance reference points -->
	<polyline id="dist" fill="none" stroke="none" stroke-width="0" points="5773.1553,-2.0072 18.0865,-1.9194 30.9468,-1.8569 43.871,-1.7887 56.8554,-1.7242 69.8929,-1.6612 82.9883,-1.6015 96.1315,-1.5349 109.3244,-1.4727 122.5648,-1.4064 135.8535,-1.3368 149.191,-1.2777 162.5769,-1.2103 176.0093,-1.1479 189.4872,-1.0747 203.0127,-1.0106 216.5767,-0.9305 230.1816,-0.8567 243.8265,-0.783 257.513,-0.7123 271.2391,-0.6475 285.0031,-0.5724 298.8049,-0.5013 312.6445,-0.4231 326.5219,-0.358 340.4352,-0.284 354.3829,-0.2156 368.3631,-0.1485 382.3766,-0.0718 396.4268,-0.0047 410.5112,0.0661 424.6104,0.1504 438.7248,0.2173 452.8705,0.2871 467.0475,0.3531 481.2551,0.4271 495.4951,0.4921 509.7723,0.5473 524.0764,0.6252 538.4029,0.7002 552.7559,0.753 567.1358,0.8386 581.5495,0.8934 595.9959,0.966 610.4601,1.0253 624.9486,1.0933 639.4608,1.1761 653.996,1.2714 668.5533,1.3575 683.134,1.445 697.7377,1.53 712.3569,1.6077 726.9923,1.6724 741.6594,1.7615 756.3464,1.8419 770.996,1.9403 785.1035,1.9905 798.363,2.0794 810.7885,2.1347 822.374,2.181 833.1174,2.2426 843.2917,2.2878 853.2224,2.345 862.7668,2.3986 871.6007,2.4588 879.6981,2.5235 887.0903,2.5859 893.85,2.6265 899.9574,2.6788 905.4858,2.7251 910.4232,2.7589 914.7695,2.7848 918.6523,2.8042 922.2698,2.8159 925.4903,2.8226 928.9979,2.8277 932.7822,2.8553 936.9771,2.8958 940.0538,2.9242 944.5779,2.9578 949.0546,2.9893 953.0715,3.0118 956.6687,3.0315 960.3058,3.0454 964.5823,3.0605 969.4512,3.0779 974.1857,3.1149 978.2263,3.1566 981.5076,3.1874 984.8257,3.2017 988.1194,3.2049 991.713,3.2207 995.4409,3.244 999.2139,3.2665 1003.3146,3.2883 1007.713,3.3117 1012.4214,3.3273 1017.4412,3.3481 1022.7509,3.3756 1028.3408,3.4081 1034.1439,3.4384 1040.2057,3.4741 1046.5275,3.5144 1053.08,3.5347 1059.854,3.5574 1066.8588,3.5868 1074.0719,3.634 1081.537,3.68 1089.1356,3.7233 1096.9838,3.758 1104.9771,3.7874 1113.249,3.8333 1121.619,3.8779 1130.0884,3.9304 1138.7947,3.984 1147.6475,4.0353 1156.5857,4.0859 1165.6049,4.1263 1174.7703,4.1654 1184.0836,4.212 1193.5272,4.2606 1203.0906,4.2931 1212.7687,4.3454 1222.5559,4.3714 1232.4663,4.4177 1242.4993,4.4575 1252.6522,4.5118 1262.9266,4.5636 1273.3141,4.6137 1283.7861,4.6468 1294.3485,4.6376 1305.0066,4.6255 1315.7673,4.624 1326.6748,4.6323 1337.6902,4.639 1348.793,4.6292 1359.9867,4.6175 1371.2953,4.5987 1382.6786,4.5922 1394.1224,4.5893 1405.6416,4.5602 1417.296,4.536 1429.0197,4.5077 1440.899,4.4887 1452.8329,4.4782 1464.8049,4.5187 1476.8528,4.5631 1488.8917,4.5905 1500.9991,4.6441 1507.9313,4.6838 1513.1206,4.6963 1525.2825,4.7501 1537.5034,4.7869 1549.7836,4.8291 1562.1317,4.8771 1574.535,4.9229 1587.0029,4.9577 1599.5558,5.0226 1612.1852,5.12 1624.8184,5.2311 1637.4752,5.3496 1650.1705,5.4509 1662.9075,5.5455 1675.6959,5.6623 1688.5203,5.7797 1701.3966,5.8983 1714.3285,6.0177 1727.3073,6.1315 1740.3313,6.2517 1753.3905,6.3714 1766.5112,6.4731 1779.7137,6.5718 1792.9587,6.6676 1806.2407,6.7574 1819.5664,6.8479 1832.9409,6.9244 1846.3618,7.0116 1859.8273,7.0865 1873.3453,7.15 1886.9056,7.2356 1900.5045,7.3195 1914.1434,7.3977 1927.8257,7.4982 1941.5375,7.5735 1955.2948,7.6368 1969.099,7.6754 1982.9423,7.747 1996.8329,7.743 2010.5001,7.7454 2023.4639,7.7394 2035.6056,7.7099 2046.9171,7.6801 2057.377,7.6597 2067.1355,7.6295 2076.6804,7.6019 2085.6702,7.5895 2093.936,7.565 2101.5283,7.5289 2108.4302,7.505 2114.7385,7.4763 2120.5356,7.4278 2125.8174,7.3932 2130.7761,7.3641 2135.7,7.3169 2142.2683,7.2807 2148.7568,7.317 2154.1555,7.2293 2158.792,7.2681 2163.3281,7.2051 2168.0012,7.1727 2172.7913,7.1546 2177.8206,7.1316 2183.3469,7.097 2188.9058,7.0726 2193.8413,7.0831 2198.4646,7.074 2203.2649,7.0533 2208.3662,7.0463 2213.7437,7.0346 2219.3965,7.0059 2223.7122,7.0065 2225.3406,7.0071 2231.5984,6.9551 2238.1008,6.9327 2244.8262,6.873 2251.8403,6.8266 2259.0308,6.7795 2266.4226,6.7498 2273.9683,6.7085 2281.7388,6.6701 2289.6018,6.6514 2297.647,6.6116 2305.8665,6.5568 2314.2527,6.4729 2322.8032,6.4251 2331.512,6.3689 2340.3792,6.3236 2349.3967,6.2705 2358.5649,6.2103 2367.8772,6.165 2377.3276,6.1247 2386.9155,6.0809 2396.6157,6.016 2406.4248,5.9668 2416.3625,5.9323 2426.425,5.8818 2436.6091,5.8487 2446.9126,5.8091 2457.1484,5.7749 2466.7,5.7292 2475.5286,5.6733 2483.7061,5.6045 2491.2976,5.5229 2498.4985,5.442 2505.3477,5.3506 2511.9954,5.2654 2518.6213,5.1803 2525.1777,5.1114 2531.8403,5.0243 2538.6816,4.9268 2545.8079,4.834 2553.084,4.7532 2560.5122,4.7004 2568.2783,4.6408 2576.146,4.592 2583.9666,4.5719 2591.9734,4.5481 2599.9697,4.5489 2608.0173,4.5555 2616.0435,4.559 2624.2014,4.5815 2632.4683,4.602 2640.9521,4.5975 2649.6516,4.5535 2658.554,4.5157 2667.6045,4.4577 2676.762,4.4053 2686.1094,4.3657 2695.5693,4.318 2705.1687,4.2932 2714.8818,4.2795 2724.7212,4.2644 2734.6704,4.2645 2744.728,4.2369 2754.9062,4.2301 2765.2075,4.2163 2775.6321,4.2155 2786.1575,4.2116 2796.7883,4.2093 2807.1536,4.2186 2816.8118,4.1983 2825.7585,4.2002 2834.1216,4.168 2841.9507,4.1202 2849.4043,4.0078 2856.6274,3.872 2863.6941,3.7161 2871.4336,3.6957 2878.7393,3.6498 2885.7063,3.6628 2892.438,3.7676 2898.8269,3.869 2905.3428,3.9482 2912.0166,3.9984 2918.9519,4.0064 2926.0635,3.9714 2933.3879,3.9443 2940.8972,3.862 2948.5886,3.7842 2956.4619,3.7301 2964.5217,3.658 2972.7622,3.6053 2981.1812,3.5556 2989.7542,3.5323 2998.4836,3.487 3007.3774,3.4471 3016.4229,3.4421 3025.6099,3.4325 3034.9373,3.4314 3044.405,3.4311 3054.011,3.4379 3063.7295,3.4471 3073.5579,3.43 3083.509,3.4318 3093.5859,3.4193 3103.7825,3.4274 3114.0903,3.4258 3124.5073,3.4337 3135.0422,3.4165 3145.6938,3.4167 3156.4517,3.4051 3167.3074,3.4081 3178.2654,3.3821 3189.3237,3.3876 3200.481,3.3694 3211.7378,3.3896 3223.0952,3.4162 3234.5459,3.4535 3246.094,3.5221 3257.7043,3.5911 3269.3938,3.6226 3281.1562,3.6216 3292.9683,3.6172 3304.8572,3.6068 3316.8169,3.5599 3328.8513,3.4658 3340.9578,3.3704 3353.1367,3.2386 3365.3982,3.0356 3377.7468,2.7767 3390.1704,2.4919 3402.6653,2.1804 3415.2334,1.8632 3427.8843,1.5293 3440.6108,1.1782 3453.4089,0.8706 3466.2815,0.5296 3479.2183,0.2398 3492.2261,-0.0664 3505.2871,-0.356 3518.4048,-0.67 3531.5769,-0.9469 3544.8184,-1.2224 3558.1143,-1.4001 3571.4617,-1.5131 3584.8674,-1.5859 3598.3191,-1.5925 3611.8179,-1.5821 3625.365,-1.524 3638.9565,-1.4014 3652.6069,-1.2078 3666.2817,-0.9886 3679.9871,-0.7569 3693.7351,-0.5267 3707.5088,-0.2841 3721.3091,-0.0311 3735.1489,0.2207 3749.0229,0.4644 3762.9253,0.6893 3776.8606,0.8756 3790.8325,1.0565 3804.8228,1.2146 3818.542,1.3565 3831.4514,1.4762 3843.4958,1.569 3854.7019,1.6386 3865.0903,1.701 3874.9392,1.7335 3884.5266,1.8034 3893.5054,1.8148 3901.7585,1.8328 3909.4028,1.8275 3916.4895,1.8145 3923.0466,1.7959 3929.2019,1.7634 3935.2673,1.7234 3942.1973,1.7218 3948.8962,1.7305 3955.481,1.6793 3961.8845,1.6497 3967.9758,1.685 3974.1758,1.676 3980.5327,1.6525 3987.1516,1.6022 3994.0332,1.5492 4001.4131,1.4924 4008.8962,1.428 4016.79,1.3766 4024.5273,1.3553 4032.4495,1.3129 4040.2939,1.2048 4048.4878,1.1366 4056.7483,1.1031 4064.8845,1.0729 4073.2234,1.0284 4081.6128,0.9776 4089.9592,0.9164 4098.4775,0.8963 4107.0093,0.8641 4115.5181,0.833 4124.2949,0.8025 4133.8911,0.7648 4143.5894,0.7293 4152.9507,0.7144 4161.9688,0.7009 4171.0811,0.6791 4180.3535,0.6221 4189.772,0.5961 4199.2974,0.5589 4208.9756,0.4975 4218.7832,0.4525 4228.7227,0.3911 4238.7812,0.3267 4248.9561,0.2622 4259.2524,0.1895 4269.6641,0.1186 4280.189,0.0521 4290.8291,-0.02 4301.5586,-0.0699 4312.4844,-0.1267 4323.4541,-0.1835 4334.5137,-0.2596 4345.6694,-0.3424 4356.8984,-0.3953 4368.2544,-0.4503 4379.7036,-0.5299 4391.2563,-0.608 4402.8789,-0.6689 4414.5825,-0.7616 4426.3589,-0.8291 4438.2046,-0.915 4450.1392,-0.9734 4462.1694,-1.0567 4474.2646,-1.1134 4486.4292,-1.1743 4498.665,-1.2328 4510.9712,-1.2985 4523.3491,-1.3649 4535.7998,-1.4261 4548.3208,-1.4876 4560.9111,-1.5673 4573.5679,-1.6354 4586.2905,-1.6982 4599.0767,-1.7671 4611.9243,-1.8375 4624.8325,-1.896 4637.8003,-1.9698 4650.8257,-2.0395 4663.9077,-2.1125 4677.0469,-2.1944 4690.2402,-2.2558 4703.4839,-2.325 4716.7803,-2.396 4730.1318,-2.4955 4743.5386,-2.5674 4756.9927,-2.6531 4770.4956,-2.7313 4784.0449,-2.7973 4797.6401,-2.8644 4811.2803,-2.934 4824.9683,-3.0181 4838.7026,-3.1059 4852.4761,-3.1633 4866.2798,-3.2478 4880.0874,-3.3313 4893.998,-3.4068 4907.9585,-3.4855 4921.9072,-3.5567 4935.9194,-3.6284 4949.9604,-3.7185 4964.0317,-3.7628 4978.1401,-3.8785 4992.2739,-3.9246 5006.3989,-3.984 5020.2964,-4.0493 5033.5,-4.0996 5045.8115,-4.142 5057.2368,-4.175 5067.8091,-4.1993 5077.5947,-4.2217 5086.6899,-4.2683 5095.0713,-4.2926 5102.8491,-4.313 5110.2407,-4.3715 5117.4316,-4.4259 5124.7505,-4.5015 5132.3608,-4.563 5140.1113,-4.644 5148.1084,-4.7007 5155.999,-4.7392 5164.0532,-4.777 5171.978,-4.8223 5179.6982,-4.8471 5187.6328,-4.8732 5195.2832,-4.8875 5203.0522,-4.8821 5210.7578,-4.8817 5218.7036,-4.8565 5226.6353,-4.8248 5234.5635,-4.7913 5242.5889,-4.7477 5250.665,-4.7016 5258.7812,-4.6603 5266.9468,-4.6257 5275.2617,-4.5957 5283.584,-4.5659 5292.0752,-4.5292 5300.7896,-4.4998 5309.4414,-4.4669 5318.21,-4.417 5327.1519,-4.3754 5336.3188,-4.3472 5345.4214,-4.3269 5354.6953,-4.2891 5364.1006,-4.2438 5373.6377,-4.1914 5383.311,-4.1461 5393.1113,-4.0728 5403.0044,-3.9983 5412.9189,-3.9249 5422.8984,-3.8678 5432.9961,-3.8183 5443.1987,-3.7849 5453.5386,-3.7388 5464.0005,-3.7089 5474.6001,-3.6641 5485.3003,-3.6087 5496.1094,-3.572 5507.0522,-3.5474 5518.1045,-3.5111 5529.2476,-3.4809 5540.4976,-3.4545 5551.8389,-3.3852 5563.2661,-3.3492 5574.7817,-3.2821 5586.3906,-3.1946 5598.0806,-3.1183 5609.8398,-3.0352 5621.689,-2.9477 5633.6104,-2.8652 5645.5879,-2.79 5657.646,-2.7165 5669.7881,-2.6281 5682.0371,-2.5433 5694.4106,-2.467 5706.896,-2.3789 5719.3428,-2.3077 5731.9189,-2.2419 5744.5132,-2.1732 5757.1455,-2.1113 5769.8486,-2.046"/>
</svg>
