<?xml version="1.0" encoding="utf-8"?>
<!-- Track map generated with TinyPedal -->
<svg viewBox="-171.4738 -607.9835 693.3821 1077.9672" version="1.1" xmlns="http://www.w3.org/2000/svg">
	<title>Autódromo José Carlos Pace</title>
	<!-- Sector coordinates index -->
	<desc>132,389</desc>
	<!-- Raw global coordinates -->
	<polyline id="map" fill="none" stroke="black" stroke-width="10" points="-109.3602,101.4124 -105.4214,117.1318 -102.1436,130.2645 -98.9985,143.4559 -95.9008,156.6841 -92.7968,169.9371 -89.6889,183.2129 -86.5771,196.5128 -83.462,209.8374 -80.3348,223.1863 -77.0529,236.5225 -73.6827,249.8649 -70.3252,263.2384 -66.9963,276.6476 -63.6595,290.084 -60.1803,303.5117 -56.5642,316.9323 -52.9847,330.2413 -49.5771,342.8891 -46.3678,354.7136 -43.3415,365.714 -40.502,375.8869 -37.7853,385.2489 -34.9773,393.8849 -31.9744,401.886 -28.7651,409.2837 -25.3508,416.0719 -21.7668,422.1532 -18.1174,427.5459 -14.4457,432.3634 -10.3451,436.9503 -6.9299,440.1595 -2.5699,443.4991 1.1538,445.7396 5.3696,447.6883 9.6097,449.0315 13.7967,449.7791 17.9779,449.9837 22.1534,449.6931 26.3408,448.9048 30.5121,447.6104 34.584,445.8427 38.579,443.6134 42.4756,440.884 46.3645,437.7236 50.4399,434.29 55.1595,430.2637 59.1975,426.8404 63.9771,423.0496 69.116,419.3823 74.6153,416.0499 80.8888,412.9938 86.1151,411.0196 91.9891,409.3929 98.0058,408.3208 104.1358,407.8094 110.3364,407.922 116.64,408.6196 123.0256,409.8828 129.5013,411.6522 136.0818,413.8068 142.7381,416.3501 149.4812,419.2139 156.3573,422.2391 163.4248,425.2263 170.784,427.9489 178.3531,430.3505 186.1333,432.256 194.1391,433.5977 202.2985,434.3824 210.5381,434.6222 218.8148,434.2899 227.0851,433.3594 235.3073,431.8365 243.4785,429.7383 251.593,427.0415 259.6119,423.7603 267.483,419.8859 275.1973,415.4543 282.8879,410.6989 290.5361,405.6341 297.9503,400.0534 305.0576,393.9209 311.8282,387.2789 318.8392,379.434 324.8093,371.8188 329.8459,364.6042 335.0332,356.2054 339.7876,347.4376 344.7336,337.4934 348.754,329.2279 353.0303,319.8403 356.9182,310.1829 360.4344,300.2761 363.7218,290.1814 367.0262,278.8574 369.7253,269.4937 372.7504,258.9975 375.7823,248.4008 378.5551,237.6432 381.1243,226.7396 383.9778,214.6431 386.33,204.667 388.9603,193.5002 391.6084,182.2492 394.3359,170.9315 397.2464,159.5754 400.1852,148.1558 403.1392,136.6736 406.1708,125.1305 409.3072,113.5344 412.4235,101.8537 415.3884,90.0566 418.3343,78.1766 421.301,66.2249 424.2709,54.1985 427.1318,42.0737 429.9785,29.8721 432.9514,17.6311 435.9858,5.3353 439.1338,-6.9983 442.3938,-19.3697 445.602,-31.8196 448.6767,-44.3667 451.7757,-56.9701 455.1193,-69.5686 458.6058,-82.189 462.2076,-94.8356 465.8185,-107.5362 469.4258,-120.2932 473.0114,-133.1083 476.58,-145.9778 480.4773,-160.1438 483.5384,-171.3143 486.7525,-183.058 489.7629,-194.0173 492.5586,-204.2652 495.1049,-213.8612 497.2372,-222.8954 498.8724,-231.4381 500.0812,-239.4754 500.9961,-246.9314 501.679,-253.8032 501.9083,-260.3001 501.5731,-266.6322 500.6735,-272.8232 499.2255,-278.8284 497.2291,-284.6087 494.714,-290.1127 491.7163,-295.2985 488.2864,-300.1085 484.5178,-304.5203 480.3481,-308.6113 475.7521,-312.3452 470.7422,-315.7103 465.3285,-318.8527 459.5444,-321.7657 453.4601,-324.2801 447.1129,-326.3566 440.5533,-328.2149 433.7673,-330.0705 426.7213,-331.7463 419.4315,-333.1474 411.9121,-334.1025 403.3673,-334.6473 396.1965,-334.8124 388.0659,-334.5858 379.7735,-334.0576 371.3429,-333.2341 362.8478,-331.8492 353.4838,-329.6395 345.8359,-327.3291 337.2747,-324.5261 328.6407,-321.5426 320.0454,-318.132 311.5514,-314.2095 303.2408,-309.734 295.1506,-304.7272 287.2819,-299.2006 279.649,-293.1861 272.2471,-286.7272 265.0558,-279.8799 258.0308,-272.7143 251.2247,-265.204 244.6464,-257.3637 238.3251,-249.1938 232.1334,-240.8006 225.9873,-232.26 220.1724,-223.4078 214.5993,-214.3019 208.959,-205.1366 203.2194,-195.9407 197.4438,-186.6822 191.6337,-177.3634 185.792,-167.9912 179.9189,-158.5631 173.4238,-148.1262 168.0613,-139.552 161.9846,-130.0339 155.6681,-120.606 149.0876,-111.2942 142.3342,-102.0341 135.6283,-92.6719 129.0007,-83.1861 122.3425,-73.6543 115.6782,-64.1141 109.3436,-55.0551 103.2974,-46.7178 97.3881,-39.118 91.5268,-32.1971 85.6368,-25.8889 79.5779,-20.1455 73.2827,-14.9303 66.0269,-9.8504 59.858,-6.2469 52.8231,-2.8033 45.6417,0.0197 38.4191,2.1723 31.1335,3.7443 23.6407,4.7329 15.9918,5.146 8.3205,5.0134 0.7529,4.4881 -6.7186,3.5664 -14.0958,2.3613 -21.3302,0.678 -28.3413,-1.4954 -34.9471,-4.1296 -41.1554,-7.2665 -46.9567,-10.8943 -52.318,-14.9676 -57.2236,-19.4274 -61.6857,-24.2513 -65.7825,-29.4792 -69.4897,-35.1029 -72.9296,-41.0724 -76.2064,-47.3225 -79.3305,-53.8371 -82.3288,-60.5946 -85.1322,-67.6144 -87.698,-74.8951 -89.9782,-82.4366 -92.0912,-90.1952 -93.9102,-98.1813 -95.554,-106.3643 -97.0167,-114.5963 -98.3324,-122.3012 -99.4824,-129.3252 -100.4659,-135.7726 -101.1302,-141.9326 -101.3889,-147.6921 -101.2089,-153.0567 -100.6502,-158.143 -99.7395,-162.9212 -98.4335,-167.5007 -96.9306,-171.9146 -95.1441,-176.0698 -93.022,-179.8298 -90.5613,-183.1982 -87.7967,-186.2161 -84.8418,-188.768 -81.6657,-190.8238 -78.2999,-192.3732 -74.7858,-193.3968 -71.1522,-193.9259 -67.4115,-193.9668 -63.5987,-193.5423 -59.64,-192.8097 -55.5901,-191.6537 -51.5511,-190.0395 -47.4704,-188.1251 -43.1832,-186.0392 -38.6234,-183.8091 -33.8005,-181.4531 -28.7985,-179.0923 -23.8068,-177.066 -18.8681,-175.5358 -13.5184,-174.4438 -9.2394,-173.9984 -4.4584,-173.9014 0.5321,-174.1536 5.5198,-174.852 10.2309,-176.0034 14.5721,-177.5604 18.558,-179.5684 22.2323,-182.0399 25.6248,-184.9942 28.6715,-188.3714 31.3492,-192.0931 33.6605,-196.1827 35.5183,-200.6641 36.8576,-205.4692 37.6393,-210.5312 37.8414,-215.7774 37.4639,-221.1404 36.5346,-226.558 35.0484,-231.9112 32.9808,-237.1355 30.3552,-242.1985 27.2696,-247.1324 23.907,-252.15 20.3985,-257.3322 16.7051,-262.6406 12.7308,-267.9811 8.3622,-273.2267 3.6233,-278.3414 -1.3707,-283.4288 -6.5504,-288.5648 -11.8907,-293.7132 -17.3198,-298.9843 -22.6594,-304.5569 -27.9361,-310.3932 -33.1124,-316.5125 -38.1691,-322.9112 -42.951,-329.6626 -47.3371,-336.7907 -51.2888,-344.2787 -54.907,-351.8783 -58.161,-358.9796 -60.8722,-365.6424 -63.0261,-371.9498 -64.6902,-377.9227 -65.8622,-383.5547 -66.5195,-388.8596 -66.7137,-393.9308 -66.4253,-398.8089 -65.636,-403.4238 -64.3673,-407.6901 -62.668,-411.5301 -60.7668,-414.8134 -58.6148,-417.6071 -56.1433,-419.9482 -53.3004,-421.9315 -50.1189,-423.4909 -46.7149,-424.679 -43.1716,-425.6521 -39.4586,-426.2164 -35.5952,-426.2784 -31.6515,-425.8206 -27.7177,-424.8076 -23.8477,-423.2603 -19.9789,-421.2726 -16.0998,-418.8904 -11.8995,-415.8241 -8.6646,-412.9299 -5.3025,-409.3178 -2.1073,-405.2833 0.9884,-400.8496 4.0234,-396.0719 7.1688,-391.1108 10.6034,-386.0495 14.4545,-381.0069 18.5454,-375.8571 22.801,-370.5577 27.3342,-365.2232 32.3201,-360.0617 37.7344,-355.1368 43.5893,-350.5503 49.8176,-346.3524 56.3672,-342.6365 63.2,-339.4248 70.278,-336.7356 77.5592,-334.5764 85.0063,-332.9651 92.583,-331.9276 100.2607,-331.4523 108.0051,-331.5289 115.7988,-332.0218 123.6519,-332.6753 131.5379,-333.6205 139.3762,-335.139 147.1427,-337.2821 154.847,-340.0703 162.4482,-343.4624 169.9008,-347.456 177.1414,-352.0785 184.0854,-357.3585 190.6519,-363.2921 196.8297,-369.8191 202.6511,-376.8517 208.0788,-384.3523 213.2411,-392.2064 218.4386,-400.2023 223.6835,-408.3121 228.9073,-416.5478 234.2163,-424.8633 239.6641,-433.2169 245.1679,-441.6576 250.571,-450.2674 255.7853,-458.8423 261.137,-467.6512 265.6188,-475.0116 269.3515,-481.1299 273.1431,-487.4074 276.4447,-493.2714 279.2484,-498.862 281.5399,-504.235 283.3018,-509.4389 284.5559,-514.5785 285.2683,-519.6639 285.4236,-524.6959 285.0321,-529.6299 284.0991,-534.4015 282.6278,-539.0266 280.64,-543.5142 278.1458,-547.8354 275.1651,-551.9529 271.7162,-555.818 267.8193,-559.3763 263.5289,-562.6628 258.8546,-565.6588 253.8362,-568.4752 248.468,-571.0333 242.7736,-573.226 236.8302,-575.3184 230.7029,-577.4748 224.3961,-579.6769 217.8598,-581.7187 211.0621,-583.4025 204.029,-584.7698 196.8032,-585.9785 189.4074,-586.9996 181.857,-587.6147 174.1445,-587.8992 166.2914,-587.9835 158.3091,-587.8865 150.2026,-587.7241 141.9822,-587.4208 133.6739,-586.7681 125.2948,-585.7393 116.8714,-584.3011 108.4223,-582.4587 99.9502,-580.2663 91.409,-577.9363 82.7547,-575.6375 73.9949,-573.3417 65.1398,-571.0154 56.2386,-568.5012 47.3828,-565.5544 38.5983,-562.1511 29.9062,-558.3005 21.2709,-554.1047 12.6216,-549.7632 3.964,-545.2625 -4.5967,-540.4026 -13.0754,-535.2215 -21.431,-529.7001 -29.5016,-523.6595 -37.2588,-517.1082 -44.7262,-510.1089 -51.9155,-502.7058 -58.7833,-494.8961 -65.3073,-486.6928 -71.6147,-478.2139 -77.8265,-469.5607 -83.7016,-460.5897 -89.1035,-451.2483 -94.0555,-441.5763 -98.5662,-431.6088 -102.7368,-421.4045 -106.7751,-411.0549 -110.6501,-400.5549 -114.0889,-389.8311 -117.1727,-378.9153 -120.1322,-367.8782 -122.8537,-356.697 -125.5225,-345.4176 -128.2074,-334.0587 -130.9061,-322.6214 -133.6069,-311.1278 -136.1956,-299.5357 -138.5513,-287.8189 -140.5903,-275.9711 -142.527,-264.0301 -144.4516,-252.0136 -146.2737,-239.9114 -147.8545,-227.7117 -149.2274,-214.1779 -150.1078,-203.028 -150.8507,-190.5644 -151.3329,-178.0293 -151.4441,-165.4269 -151.4738,-152.7595 -151.4651,-140.0297 -151.3666,-127.2407 -150.9986,-114.4034 -150.2851,-101.5296 -149.2658,-88.6253 -147.9931,-75.6909 -146.6097,-62.7143 -145.031,-49.7102 -143.1259,-36.7029 -140.8971,-23.7017 -138.347,-10.716 -135.4917,2.2485 -132.4351,15.2095 -129.3532,28.206 -126.259,41.2382 -123.1356,54.2997 -120.0024,67.3927 -116.8655,80.5167 -113.7136,93.6665"/>
	<!-- Raw distance reference points -->
	<polyline id="dist" fill="none" stroke="none" stroke-width="0" points="4261.1646,39.2584 14.9451,39.708 28.4856,40.0748 42.0438,40.4624 55.6299,40.8901 69.2443,41.3213 82.8848,41.7818 96.5487,42.2253 110.2372,42.6428 123.9486,42.9961 137.683,43.332 151.4417,43.6041 165.2205,43.8506 179.0317,44.0655 192.8674,44.224 206.7376,44.3479 220.643,44.4296 234.4261,44.4796 247.5313,44.5909 259.7859,44.7214 271.1839,44.8523 281.7026,45.0046 291.3787,45.183 300.3559,45.3382 308.8369,45.4418 316.7238,45.4937 324.2284,45.5048 331.1179,45.525 337.5292,45.5164 343.4992,45.4249 349.0407,45.2585 354.2043,45.0754 359.1707,44.7658 364.0493,44.4421 368.9144,44.0151 373.7325,43.5687 378.3712,43.1375 382.9538,42.6942 387.5978,42.2381 392.3487,41.7484 397.2074,41.2256 402.1679,40.6719 407.2873,40.0612 412.529,39.4204 417.8824,38.7762 423.4384,38.0946 429.2127,37.2889 435.1171,36.5901 441.1432,35.7682 447.4099,34.9499 453.8441,34.1485 460.4984,33.3204 467.0661,32.6989 473.6119,32.1018 480.6286,31.5536 487.1142,31.0469 493.5381,30.6609 500.0007,30.3465 506.5493,30.0751 513.1943,29.8073 519.9815,29.5152 527.0482,29.2317 534.374,28.964 542.0435,28.6905 549.8502,28.4536 558.0267,28.2254 566.2863,28.0317 574.4259,27.8654 582.7677,27.7115 591.1719,27.545 599.5175,27.3787 608.0112,27.2115 616.5392,27.0544 624.9907,26.8995 633.5989,26.7308 642.3459,26.573 651.2114,26.4055 660.2221,26.2413 669.2466,26.0723 678.5684,25.9048 687.969,25.7937 697.4562,25.667 707.0556,25.5478 716.7415,25.4404 726.4761,25.2954 736.2893,25.1532 746.1708,25.0188 756.1166,24.869 766.1402,24.7034 776.2534,24.4984 786.4354,24.3326 796.6758,24.1233 806.9946,23.9001 817.4561,23.6548 828.0515,23.4044 838.765,23.1502 849.5863,22.9392 860.5046,22.6989 871.5187,22.4698 882.6221,22.2547 893.8143,22.0402 905.1002,21.7952 916.4744,21.5856 927.9412,21.3702 939.4969,21.1426 951.1392,20.9136 962.8663,20.6857 974.6642,20.4528 986.5263,20.2078 998.4664,19.9316 1010.4828,19.6351 1022.5762,19.3076 1034.7473,18.9508 1046.996,18.5949 1059.3168,18.2302 1071.71,17.8566 1084.17,17.4621 1096.7035,17.0887 1109.3066,16.6993 1121.9808,16.3312 1134.7184,15.9387 1147.5242,15.5517 1160.3907,15.1665 1173.3126,14.7947 1186.2921,14.4115 1199.3313,14.0434 1212.4291,13.6836 1225.5802,13.3599 1238.7834,13.102 1252.0405,12.8692 1265.3562,12.6958 1278.7153,12.5551 1292.0914,12.4108 1305.0089,12.3519 1317.1851,12.2466 1328.5546,12.1626 1339.1779,12.0696 1349.1042,11.9461 1358.3699,11.8075 1367.0277,11.6629 1375.103,11.4976 1382.5513,11.3257 1389.437,11.1519 1395.9968,10.9608 1402.4177,10.742 1408.7931,10.4931 1415.2969,10.2163 1421.5905,9.9233 1427.8276,9.6106 1434.0336,9.27 1440.4073,8.9187 1446.4274,8.5635 1452.4574,8.19 1458.5369,7.818 1464.6959,7.4501 1471.0802,7.0849 1477.5513,6.7462 1484.1245,6.3804 1490.7654,5.9919 1497.5659,5.5605 1504.5833,5.122 1511.8088,4.6568 1519.2325,4.1682 1526.7869,3.677 1534.5297,3.2085 1542.4393,2.8608 1550.5443,2.5101 1558.844,2.2289 1567.3951,2.0252 1576.1578,1.906 1584.9849,1.8511 1594.1064,1.868 1603.4199,1.9222 1612.8914,2.053 1622.4836,2.1671 1632.14,2.2979 1641.833,2.4272 1651.5446,2.5246 1661.3246,2.6146 1671.1659,2.6904 1681.0599,2.7642 1690.9954,2.8522 1700.9678,2.9453 1711.0339,3.0068 1721.2233,3.0633 1731.5236,3.1106 1741.9235,3.1787 1752.4318,3.2854 1763.0155,3.5094 1773.6838,3.726 1784.4462,4.0208 1795.2947,4.4167 1806.2123,4.9343 1817.2013,5.5049 1828.2552,6.1778 1839.3715,6.8684 1850.5509,7.6099 1861.7947,8.2255 1873.1024,8.9289 1884.4728,9.5986 1895.8972,10.2935 1907.3699,10.9613 1918.901,11.6394 1930.4871,12.3147 1942.1317,12.9837 1953.7874,13.672 1964.8553,14.3135 1975.163,14.9021 1984.7943,15.4439 1993.8469,15.9264 2002.4637,16.3286 2010.8483,16.6715 2019.0715,16.9627 2027.3754,17.2706 2035.671,17.5425 2043.7231,17.8363 2051.9448,18.1444 2059.7395,18.4798 2067.6375,18.8022 2075.5964,19.1871 2083.4475,19.6157 2091.4314,20.0945 2099.1406,20.6148 2106.8508,21.159 2114.4019,21.7076 2121.9612,22.2546 2129.3611,22.7953 2136.554,23.3129 2143.5496,23.7984 2150.448,24.2575 2157.219,24.6934 2163.8862,25.09 2170.55,25.4485 2177.2595,25.7773 2184.0745,26.0938 2191.198,26.4088 2198.396,26.7117 2205.8838,26.9918 2213.3589,27.2269 2220.9844,27.4249 2228.6665,27.558 2236.5015,27.6458 2244.5146,27.6845 2252.7014,27.7178 2261.0532,27.7417 2269.4077,27.7761 2277.2014,27.7881 2284.3083,27.8222 2290.7974,27.8599 2296.9685,27.879 2302.6995,27.8913 2308.0081,27.8951 2313.0632,27.8972 2317.9243,27.8995 2322.8035,27.8812 2327.7766,27.8419 2332.7476,27.7885 2337.5618,27.7088 2342.2573,27.6055 2346.9287,27.5114 2351.4639,27.4168 2355.906,27.3095 2359.6123,27.1885 2363.9114,27.0764 2368.1731,26.9665 2372.4236,26.8633 2376.6462,26.7563 2380.9421,26.6421 2385.373,26.5127 2389.7209,26.361 2394.3997,26.1904 2399.2505,25.9842 2404.3169,25.7409 2409.625,25.46 2415.1604,25.1488 2420.6257,24.8198 2425.9868,24.4641 2431.3149,24.0509 2436.6221,23.6989 2442.0491,23.2777 2447.7385,22.8339 2453.397,22.3851 2458.7627,21.9584 2463.8547,21.5377 2468.8042,21.1397 2473.7314,20.757 2478.7407,20.3884 2483.7788,20.0641 2488.7944,19.7911 2493.8635,19.5592 2499.0464,19.3898 2504.334,19.2785 2509.7158,19.2228 2515.3818,19.2249 2520.9094,19.2904 2526.5107,19.4256 2532.1206,19.6012 2537.7495,19.808 2543.4297,20.0344 2549.2007,20.2488 2555.105,20.4778 2561.2507,20.6994 2567.6145,20.918 2574.2026,21.1979 2580.9456,21.4938 2587.876,21.8104 2594.9858,22.1088 2602.3279,22.4467 2609.8252,22.7937 2617.6494,23.1257 2625.6704,23.4872 2633.6431,23.8441 2641.8079,24.2162 2650.0684,24.5907 2658.3706,25.0029 2666.8032,25.4145 2675.2837,25.8339 2683.6702,26.2685 2691.4351,26.6838 2698.5991,27.0749 2705.2031,27.437 2711.3479,27.7412 2717.0261,28.0039 2722.283,28.2289 2727.2529,28.39 2732.0359,28.4794 2736.6638,28.5153 2741.175,28.5226 2745.5793,28.5213 2749.3479,28.5232 2753.2073,28.5112 2757.0251,28.4831 2761.0374,28.4326 2764.5186,28.3949 2768.8418,28.3952 2773.3857,28.3973 2778.0693,28.4067 2782.8145,28.4411 2787.5581,28.47 2792.2209,28.5036 2796.7341,28.5383 2801.1965,28.5556 2805.7468,28.5445 2810.4197,28.4546 2815.1995,28.316 2820.1328,28.1174 2825.2585,27.8901 2830.6611,27.6546 2836.3088,27.4123 2842.1638,27.2013 2848.2651,27.0043 2854.6035,26.8035 2861.1543,26.611 2867.929,26.4261 2874.9033,26.2231 2882.0093,25.989 2889.2876,25.6636 2896.6433,25.2781 2904.1262,24.8302 2911.6414,24.3558 2919.1951,23.8351 2926.8721,23.27 2934.5552,22.6577 2942.4878,21.9975 2950.5627,21.2952 2958.5156,20.5474 2966.8301,19.7658 2975.2573,18.9567 2983.4839,18.1422 2992.0354,17.3851 3000.5151,16.6537 3008.7864,15.8986 3017.3438,15.1614 3025.9297,14.4039 3034.4644,13.6329 3043.1406,12.8942 3051.8789,12.2275 3060.7168,11.6536 3069.6931,11.1686 3078.7749,10.7475 3087.9854,10.3859 3097.3684,10.0997 3106.9023,9.9063 3116.5535,9.812 3126.3022,9.8305 3136.1677,9.9707 3146.1409,10.173 3156.2161,10.4041 3166.3826,10.7107 3176.4246,11.0321 3185.8401,11.3704 3194.5327,11.648 3202.5361,11.8747 3209.8738,12.0962 3216.595,12.2948 3222.8152,12.4521 3228.5935,12.5716 3234.03,12.6573 3239.3262,12.7235 3244.5681,12.7701 3249.8298,12.8054 3255.4988,12.8308 3260.7288,12.861 3265.8933,12.9085 3271.033,12.9781 3276.166,13.0842 3281.3052,13.2243 3286.4741,13.3946 3291.7073,13.6021 3297.0488,13.8326 3302.5332,14.0985 3308.217,14.4003 3314.1052,14.7617 3320.1404,15.1747 3326.4285,15.6223 3332.915,16.0773 3339.5928,16.5557 3346.4309,17.0534 3353.4309,17.5541 3360.5537,18.0637 3367.8486,18.5787 3375.3127,19.0995 3382.9058,19.6421 3390.729,20.2343 3398.6704,20.8941 3406.8345,21.6147 3415.103,22.3847 3423.4131,23.1929 3431.8638,24.0346 3440.3933,24.8802 3448.991,25.7284 3457.6941,26.5787 3466.4995,27.4326 3475.4136,28.3221 3484.4282,29.2127 3493.5703,30.0885 3502.7993,30.9467 3512.1069,31.7755 3521.4851,32.5722 3530.9434,33.3376 3540.4839,34.0689 3550.1182,34.7646 3559.8235,35.4339 3569.6101,36.0726 3579.4827,36.6766 3589.4519,37.2463 3599.5093,37.8259 3609.6436,38.3814 3619.8616,38.901 3630.219,39.3502 3640.6589,39.7492 3651.2048,40.1273 3661.8447,40.4852 3672.5818,40.8401 3683.3811,41.203 3694.229,41.5455 3705.1531,41.8384 3716.0776,42.065 3727.0535,42.2209 3738.0837,42.2949 3749.1575,42.3496 3760.2908,42.345 3771.5203,42.3041 3782.8467,42.211 3794.2578,42.0947 3805.7439,41.9546 3817.3198,41.8184 3828.9795,41.6525 3840.7197,41.4642 3852.522,41.3065 3864.3987,41.1158 3876.3445,40.9037 3888.3542,40.6897 3900.4336,40.4929 3912.584,40.3433 3924.801,40.2123 3937.0813,40.0974 3949.4319,40.0013 3961.8857,39.9202 3974.4097,39.7728 3987.0349,39.5703 3999.7002,39.3167 4012.519,39.0604 4025.4187,38.8421 4038.3157,38.6895 4051.3286,38.5712 4064.3037,38.4975 4077.3516,38.3616 4090.4297,38.1872 4103.4995,38.0279 4116.6035,37.8899 4129.7319,37.7515 4142.9067,37.6591 4156.1265,37.6317 4169.3916,37.6448 4182.6973,37.6783 4196.0483,37.76 4209.439,37.9028 4222.8682,38.098 4236.3325,38.3468 4249.8267,38.6495 4263.356,38.9969"/>
</svg>
