<?xml version="1.0" encoding="utf-8"?>
<!-- Track map generated with TinyPedal -->
<svg viewBox="-254.4999 -492.1140 849.9033 1238.5476" version="1.1" xmlns="http://www.w3.org/2000/svg">
	<title>Bahrain International Circuit</title>
	<!-- Sector coordinates index -->
	<desc>193,488</desc>
	<!-- Raw global coordinates -->
	<polyline id="map" fill="none" stroke="black" stroke-width="10" points="-219.5154,270.0895 -218.5598,249.5978 -217.978,237.4488 -217.4015,225.2312 -216.8293,212.9468 -216.2625,200.5973 -215.6598,188.1871 -214.94,175.7464 -214.2146,163.2433 -213.4927,150.6759 -212.7753,138.0456 -212.0621,125.3537 -211.3534,112.6015 -210.6488,99.7905 -209.9493,86.9215 -209.2551,73.996 -208.567,61.0151 -207.8837,47.98 -207.2069,34.8919 -206.5357,21.752 -205.8709,8.5611 -205.2124,-4.6793 -204.5672,-17.9691 -203.9978,-31.3095 -203.4551,-44.6978 -202.918,-58.1322 -202.3889,-71.6116 -201.8674,-85.1351 -201.3934,-98.7022 -201.0257,-112.3123 -200.6748,-125.9624 -200.3335,-139.6504 -200.0009,-153.3754 -199.6768,-167.1364 -199.3484,-180.932 -198.8863,-194.7567 -198.3913,-208.6138 -197.9065,-222.5042 -197.3968,-236.4248 -196.7817,-250.371 -196.1765,-264.3484 -195.6399,-278.3585 -195.0966,-292.3976 -194.4757,-306.4619 -193.857,-320.5533 -193.2367,-334.6067 -192.6467,-347.9912 -192.0938,-360.5386 -191.5678,-372.2582 -191.0634,-383.1696 -190.5832,-393.2827 -190.1324,-402.6385 -189.7089,-411.2725 -189.31,-419.208 -188.9369,-426.4601 -188.5807,-433.0627 -188.1359,-439.0471 -187.4457,-444.5006 -186.4737,-449.4711 -185.2211,-453.9468 -183.7333,-457.8927 -182.0889,-461.2762 -180.2925,-464.1385 -178.1853,-466.6017 -175.7651,-468.6498 -173.1001,-470.235 -170.2349,-471.325 -167.1825,-471.9447 -164.0024,-472.114 -160.7795,-471.8057 -157.61,-470.9968 -154.5401,-469.7125 -151.5907,-467.9927 -148.7673,-465.8754 -146.0163,-463.3736 -143.2581,-460.5545 -140.5711,-457.3618 -137.8927,-453.8495 -135.052,-450.1116 -132.0171,-446.1258 -128.9641,-441.7906 -125.8939,-437.1273 -122.5411,-432.3412 -118.379,-427.3985 -114.6672,-423.7834 -110.2636,-420.248 -105.6159,-417.2367 -100.7509,-414.7535 -95.5979,-412.7983 -90.1518,-411.3507 -84.4766,-410.4062 -78.6221,-409.9311 -72.644,-409.9439 -66.6681,-410.5044 -60.6053,-411.4554 -54.3619,-412.6937 -47.9932,-414.3382 -41.4397,-416.137 -34.6848,-417.9798 -27.7378,-419.8672 -20.6068,-421.7983 -13.2978,-423.7696 -5.796,-425.6708 1.8704,-427.2021 9.6516,-428.4436 17.5049,-429.3083 25.4271,-429.7469 33.4787,-429.8536 41.678,-429.6498 49.9915,-429.0147 58.4165,-428.0098 66.9851,-426.9489 75.6956,-425.8644 84.5423,-424.745 93.5202,-423.5815 102.6292,-422.3957 111.8667,-421.1905 121.2298,-419.9661 130.7155,-418.721 140.3148,-417.4095 150.0226,-416.0182 159.8359,-414.5571 169.7375,-412.9449 179.7118,-411.2876 189.7789,-409.5337 199.9495,-407.7431 210.2227,-405.9278 220.5961,-404.0883 231.0667,-402.2222 241.6221,-400.2754 252.2656,-398.2745 263.0009,-396.2512 273.8247,-394.2029 284.7354,-392.1307 295.7307,-390.0352 306.8085,-387.9167 317.967,-385.775 329.2044,-383.6109 340.519,-381.4249 351.9091,-379.2172 363.3729,-376.988 374.9085,-374.7376 386.5146,-372.4668 398.193,-370.1983 409.943,-367.9362 421.7341,-365.658 433.5385,-363.3412 445.2489,-360.9963 456.8665,-358.6627 468.2237,-356.3742 478.8319,-354.2381 488.6591,-352.2491 497.7939,-350.3888 506.7092,-348.5679 515.1042,-346.8441 522.8262,-345.2496 529.8952,-343.7856 536.3275,-342.4289 542.1454,-341.0092 547.4027,-339.3805 552.1439,-337.4998 556.3806,-335.344 560.1896,-332.8753 563.5773,-330.053 566.5458,-326.9012 569.1257,-323.4039 571.2877,-319.5518 573.0356,-315.3954 574.3307,-310.9805 575.1285,-306.4084 575.4034,-301.7652 575.2111,-297.0119 574.5305,-292.2045 573.3314,-287.4111 571.6304,-282.6682 569.5046,-277.9223 566.9943,-273.1159 564.0276,-268.3547 560.6465,-263.6166 556.9157,-258.8119 552.8762,-253.9321 548.4998,-249.0255 543.7625,-244.1406 538.7474,-239.2174 533.5037,-234.2277 528.0328,-229.1918 522.1808,-224.3362 516.0431,-219.5569 509.7726,-214.7147 503.3805,-209.741 496.8495,-204.6683 490.08,-199.6468 483.105,-194.633 476.1216,-189.3717 469.1877,-183.7997 462.2133,-178.0349 455.2515,-172.0352 448.5383,-165.5828 441.9756,-158.7825 435.4285,-151.7792 428.9766,-144.5098 422.6307,-136.985 416.5421,-129.1384 410.8377,-120.8869 405.5018,-112.2617 400.2412,-103.5533 395.1142,-95.3292 389.9858,-87.7842 384.9241,-80.9328 380.0978,-74.6627 375.36,-69.0162 370.5822,-63.9929 365.7566,-59.5633 360.8276,-55.7349 355.8465,-52.5134 350.7724,-49.8774 345.5458,-47.7996 340.1631,-46.2515 334.6163,-45.2101 328.8701,-44.6723 322.9687,-44.6507 316.8841,-44.972 310.5897,-45.3299 304.0868,-45.7007 297.3748,-46.05 290.4531,-46.3569 283.3334,-46.3723 276.0522,-45.9305 268.6655,-44.9981 261.2103,-43.5269 253.6903,-41.5396 246.1074,-39.128 238.5845,-36.2061 231.1813,-32.7743 223.9151,-28.8355 216.8682,-24.3645 210.0844,-19.3343 203.561,-13.757 197.2785,-7.706 191.1993,-1.2361 185.2421,5.559 179.5388,12.7511 173.9477,20.2005 168.2879,27.7799 162.589,35.5233 156.8051,43.3904 150.9647,51.3876 145.1421,59.3624 139.5626,66.9847 134.394,74.0214 129.5532,80.6023 124.783,87.0788 120.3303,93.1149 116.2747,98.6083 112.5653,103.5572 109.1666,107.9567 106.0034,111.8258 103.0081,115.2163 100.0007,118.3654 96.9913,121.4149 94.1177,124.0179 91.346,126.0863 88.4818,127.6637 85.453,128.7648 82.2281,129.4393 78.849,129.6571 75.4075,129.3733 72.0638,128.5751 68.9195,127.2821 65.9316,125.5019 63.1526,123.2522 60.6548,120.575 58.5031,117.5163 56.7523,114.1246 55.3636,110.4321 54.3394,106.4475 53.6318,102.1983 53.178,97.6702 52.9738,92.8816 52.978,87.8285 53.0741,82.5109 53.2709,76.937 53.5323,71.1081 53.9388,65.0421 54.4216,58.7438 55.1242,52.2508 56.1776,45.5936 57.3375,38.7413 58.598,31.7043 59.9551,24.4912 61.3797,17.1041 62.834,9.5438 64.3166,1.8179 65.8951,-6.0194 67.5503,-14.007 69.225,-22.1542 70.9102,-30.4585 72.6159,-38.9139 74.3233,-47.52 75.969,-56.2853 77.6395,-65.19 79.372,-74.2237 81.1441,-83.3878 82.9507,-92.6804 84.7732,-102.1026 86.612,-111.6516 88.4656,-121.3244 90.3294,-131.093 92.2066,-140.9748 94.0967,-150.9768 95.983,-161.0996 97.6275,-171.3142 98.7444,-182.5217 99.1013,-191.4473 99.0474,-200.9009 98.553,-209.8098 97.6614,-218.1633 96.3851,-225.9684 94.773,-233.2419 92.8417,-239.9603 90.6128,-246.15 87.9881,-251.9235 84.9266,-257.3583 81.4975,-262.4744 77.7157,-267.2105 73.8482,-271.4147 69.9663,-275.0722 65.944,-278.278 61.7006,-281.0403 57.1819,-283.4636 52.3767,-285.866 47.3377,-288.3607 42.392,-290.5922 37.7503,-292.2968 33.4037,-293.5065 29.4254,-294.2083 25.8638,-294.4541 22.7239,-294.2981 20.0323,-293.8225 17.8055,-293.1085 14.6167,-291.0944 13.4981,-289.7067 12.6676,-288.112 12.145,-286.3224 11.3943,-282.0649 10.909,-279.5176 10.364,-276.6781 9.8275,-273.5461 9.3029,-270.1508 8.7235,-266.4798 8.1022,-262.5384 7.6007,-258.3461 7.1952,-253.919 6.7953,-249.246 6.3736,-244.298 5.9024,-239.0888 5.3007,-233.625 4.63,-227.9149 3.9109,-222.0199 3.1437,-215.8847 2.341,-209.5122 1.5275,-202.9111 0.8958,-196.0764 0.4053,-189.0158 -0.0927,-181.7497 -0.5978,-174.2854 -1.1104,-166.6308 -1.6297,-158.7946 -2.1998,-150.7895 -2.9356,-142.6795 -3.7088,-134.4079 -4.4898,-125.97 -5.2797,-117.3709 -6.0682,-108.6147 -6.8121,-99.7027 -7.429,-90.6363 -7.8286,-81.416 -8.2075,-72.0542 -8.5839,-62.5559 -8.9574,-52.9247 -9.3293,-43.1641 -9.6982,-33.2783 -10.0637,-23.2719 -10.4256,-13.1489 -10.7845,-2.9133 -11.1413,7.4095 -11.5361,18.8838 -11.8557,28.3715 -12.2075,39.0161 -12.5548,49.7661 -12.897,60.6191 -13.2345,71.5727 -13.5675,82.6248 -13.8957,93.773 -14.2207,105.0151 -14.5914,116.3472 -14.9796,127.7681 -15.3611,139.2769 -15.7497,150.8708 -16.2471,162.5434 -16.7852,174.2957 -17.3161,186.1282 -17.8419,198.0386 -18.3626,210.0247 -18.8781,222.0844 -19.4007,234.2146 -19.9277,246.414 -20.4472,258.6613 -20.961,270.9697 -21.4666,283.347 -21.9678,295.7917 -22.4634,308.2944 -22.9343,320.3693 -23.3771,331.6557 -23.7957,342.1343 -24.1773,351.8528 -24.5252,360.8354 -24.8197,369.125 -24.863,376.806 -24.5286,383.9774 -23.8026,390.6594 -22.6972,396.8792 -21.192,402.6461 -19.2903,407.971 -16.9913,412.8423 -14.2526,417.2798 -11.0821,421.3075 -7.5319,424.8868 -3.6545,427.9757 0.5197,430.5482 5.0222,432.6916 9.8422,434.3947 14.9298,435.6272 20.2472,436.3582 25.8161,436.7762 31.6493,437.1127 37.7242,437.1644 43.9507,436.7075 50.2682,435.7184 56.7292,434.3403 63.3887,432.8489 70.1993,431.1304 77.0786,428.9716 84.0118,426.4008 90.9299,423.3542 97.7229,419.7399 104.3078,415.5814 110.6213,410.8976 116.7468,405.729 122.7216,400.1562 128.4704,394.1583 133.8915,387.6986 138.9352,380.7852 143.6055,373.4605 147.8621,365.7585 151.6621,357.6992 155.2279,349.39 158.8667,340.9695 162.5652,332.4691 166.3186,323.8619 170.1269,315.1446 173.9985,306.3233 178.1353,297.5053 182.8057,288.8709 188.0468,280.4928 193.874,272.4354 200.2484,264.7533 207.082,257.5065 214.3172,250.7846 221.9169,244.6851 229.8078,239.1706 238.0122,234.2177 246.5257,229.7306 255.27,225.8149 264.2038,222.4883 273.2975,219.7512 282.5228,217.589 291.8441,216.0051 301.1991,215.046 310.4973,214.7479 319.747,215.0831 329.0298,216.0305 338.3245,217.5681 347.5911,219.6994 356.7938,222.4103 365.8326,225.6947 374.7474,229.5234 383.684,233.6082 392.7278,237.7469 401.8328,242.0274 410.9958,246.4483 420.2201,250.9921 429.4427,255.7311 438.4698,260.5998 446.8163,265.4747 454.5195,270.4272 461.5582,275.4756 467.9612,280.5867 473.7189,285.7104 478.8261,290.7916 483.3052,295.7726 487.1797,300.6504 490.4762,305.4058 493.2187,310.0215 495.4147,314.5613 497.088,319.0236 498.2574,323.4189 498.8806,327.7819 498.9573,332.1183 498.4869,336.3777 497.5005,340.6144 495.9911,344.8014 493.9698,348.8865 491.4548,352.8311 488.5197,356.7303 485.1841,360.6213 481.4351,364.4743 477.3091,368.3376 472.9222,372.3192 468.261,376.3825 463.2064,380.3277 457.7501,384.1119 451.9236,387.7356 445.8603,391.3977 439.5634,395.0794 433.0763,398.8405 426.4163,402.6941 419.5922,406.6354 412.6309,410.6485 405.5235,414.7375 398.2572,418.8986 390.7526,422.9664 383.0342,426.9792 375.1385,430.9902 367.088,435.0333 358.9178,439.1671 350.6327,443.3904 342.2207,447.6704 333.7277,452.0834 325.182,456.6731 316.5258,461.3228 307.76,466.0247 298.888,470.7772 289.9219,475.5739 280.8713,480.4102 271.7162,485.2959 262.4583,490.2304 253.11,495.2314 243.7883,500.4953 234.4525,505.9507 225.0207,511.4511 215.493,516.9941 205.8308,522.5076 196.0634,528.0411 186.2072,533.6201 176.2628,539.2427 166.2318,544.9079 156.1155,550.6151 145.9153,556.3632 135.6308,562.1522 125.2656,567.9806 114.819,573.8478 104.3128,579.7859 93.7507,585.7961 83.1228,591.8356 72.439,597.9001 61.6828,603.9972 50.8572,610.1265 39.9645,616.2865 28.9975,622.4589 17.9597,628.6443 6.7785,634.6996 -4.5305,640.6488 -15.8795,646.6514 -27.163,652.8894 -38.4544,659.2275 -49.8276,665.5272 -61.304,671.7462 -72.7861,677.9619 -83.7374,683.8864 -94.001,689.4365 -103.5604,694.5953 -112.4619,699.3912 -120.7295,703.8387 -128.4035,707.9254 -135.5151,711.6301 -142.0809,714.9367 -148.1049,717.9179 -153.6057,720.5678 -158.7013,722.7722 -163.6469,724.4596 -168.6358,725.6104 -173.4873,726.2488 -178.0042,726.4336 -182.3072,726.1705 -186.4777,725.4066 -190.4967,724.1119 -194.4102,722.2951 -198.2322,719.9849 -202.0015,717.2234 -205.7879,714.0644 -209.4881,710.4757 -212.938,706.4601 -216.066,702.0231 -218.8618,697.1932 -221.4149,691.9678 -223.7815,686.3734 -225.9709,680.4435 -227.9867,674.2001 -229.8306,667.6664 -231.3599,660.8395 -232.5768,653.7386 -233.5023,646.3904 -234.209,638.8235 -234.4999,631.0566 -234.3857,623.1117 -234.1657,615.0226 -233.9385,606.8318 -233.6943,598.4648 -233.4183,589.9276 -233.1245,581.225 -232.8193,572.362 -232.5074,563.3419 -232.1225,554.1724 -231.681,544.8573 -231.2427,535.3983 -230.8073,525.7991 -230.3735,516.0654 -229.9407,506.2029 -229.5092,496.2161 -229.0822,486.1095 -228.6498,475.9082 -228.1862,465.6035 -227.7231,455.1841 -227.2627,444.6528 -226.8039,434.0131 -226.3475,423.2676 -225.8944,412.4192 -225.4446,401.4701 -224.9985,390.4228 -224.5564,379.2792 -224.1184,368.0416 -223.6846,356.7122 -223.2532,345.2931 -222.8175,333.7865 -222.379,322.1945 -221.875,310.5219 -221.3543,298.7683 -220.8385,286.9361 -220.3277,275.0262"/>
	<!-- Raw distance reference points -->
	<polyline id="dist" fill="none" stroke="none" stroke-width="0" points="5381.5103,7.3568 18.8167,7.355 30.9464,7.3581 43.1879,7.3618 55.4682,7.3664 67.922,7.3634 80.3293,7.367 92.7497,7.3734 105.2606,7.377 117.8417,7.3777 130.5076,7.3824 143.2591,7.3854 156.0511,7.3927 168.8784,7.4006 181.7405,7.3915 194.6645,7.3976 207.6431,7.3996 220.6967,7.4042 233.8081,7.4118 246.9733,7.4165 260.1859,7.4223 273.4437,7.4282 286.7481,7.4303 300.1019,7.4329 313.5041,7.4256 326.9505,7.425 340.4388,7.4272 353.9708,7.427 367.5398,7.4583 381.1462,7.5096 394.7897,7.5845 408.4781,7.6888 422.2077,7.7988 435.9774,7.9176 449.7847,8.0413 463.6189,8.1606 477.4791,8.2786 491.3722,8.3899 505.3026,8.514 519.2621,8.6561 533.2589,8.7848 547.3021,8.9103 561.356,9.0416 575.4432,9.1737 589.5542,9.3418 603.584,9.5251 616.9272,9.7226 629.4993,9.8787 641.2574,9.9987 652.2115,10.0958 662.3474,10.1878 671.7037,10.2718 680.3394,10.348 688.271,10.4216 695.5316,10.4959 702.1341,10.5634 708.1174,10.6103 713.5318,10.6263 718.3586,10.6163 722.5814,10.5939 726.7941,10.5683 729.945,10.5516 732.3029,10.5415 735.4666,10.5333 736.8426,10.5266 739.7997,10.5127 740.5032,10.5029 743.4203,10.5022 746.5341,10.4964 747.2866,10.4789 750.4896,10.4563 751.6426,10.4301 755.0187,10.3892 757.5588,10.3156 761.2766,10.2152 765.2935,10.087 769.5187,9.9406 773.9166,9.7845 778.5479,9.6343 783.4632,9.4804 788.6028,9.348 793.9915,9.2261 799.7168,9.1261 805.5933,9.0492 811.402,8.9942 817.2476,8.937 823.2388,8.8868 829.6885,8.8378 837.4988,8.8467 843.3037,8.929 848.8068,9.0471 854.3984,9.1464 860.1573,9.2201 865.9979,9.302 871.9845,9.3777 878.2714,9.4818 884.811,9.6218 891.6091,9.7772 898.7599,9.9546 906.0812,10.1597 913.5862,10.3871 921.1686,10.6197 928.9756,10.8721 937.0746,11.14 945.2458,11.4111 953.9924,11.7136 962.884,12.0049 971.0679,12.3047 979.2596,12.6034 987.5709,12.9005 996.0656,13.1935 1004.7077,13.4879 1013.4735,13.7886 1022.3765,14.0893 1031.4135,14.3904 1040.582,14.6813 1049.8849,14.9564 1059.3193,15.2276 1068.8806,15.4786 1078.5466,15.7198 1088.3263,15.938 1098.2036,16.1546 1108.2122,16.352 1118.3317,16.5449 1128.5664,16.7396 1138.9113,16.9402 1149.3859,17.1572 1159.9684,17.3604 1170.6169,17.5796 1181.3389,17.7914 1192.114,17.9845 1202.9938,18.1755 1214.0275,18.3804 1225.1816,18.5843 1236.4033,18.7955 1247.6938,19.0131 1259.0604,19.2281 1270.5221,19.4446 1282.056,19.6601 1293.6689,19.8771 1305.3506,20.0926 1317.0853,20.3195 1328.9058,20.534 1340.802,20.7637 1352.7709,20.9896 1364.7648,21.2154 1376.774,21.4326 1388.722,21.6633 1400.5673,21.8814 1412.1178,22.1015 1422.9573,22.3096 1433.0082,22.5019 1442.3357,22.6756 1451.4323,22.8498 1459.9902,23.0137 1467.8678,23.1568 1475.089,23.2871 1481.6481,23.4095 1487.608,23.5173 1493.0663,23.6058 1498.0812,23.6736 1502.671,23.7363 1506.9662,23.7714 1510.9912,23.795 1515.1656,23.7978 1520.0671,23.794 1527.4481,23.8286 1533.4299,23.8749 1539.2557,23.9318 1544.9181,23.9883 1550.3928,24.0472 1555.7354,24.0914 1560.9872,24.1094 1566.225,24.1081 1571.719,24.0732 1576.925,24.0016 1582.2271,23.8732 1587.6439,23.7218 1593.1976,23.5373 1598.9791,23.3485 1605.0531,23.1504 1611.4707,22.9235 1618.3379,22.7564 1625.4008,22.6519 1632.6595,22.5858 1640.0748,22.5109 1647.7125,22.4468 1655.5024,22.3799 1663.4749,22.3168 1671.719,22.2445 1680.1029,22.1757 1688.8308,22.0866 1697.5519,22.0423 1706.2679,21.9539 1715.1438,21.8647 1724.2039,21.7849 1733.4889,21.6802 1742.9016,21.5759 1752.4469,21.4514 1762.1097,21.3239 1771.8778,21.1901 1781.8287,21.0486 1791.9678,20.9126 1802.4923,20.8258 1813.2218,20.7595 1823.5668,20.6974 1833.1621,20.5772 1842.1251,20.4412 1850.4401,20.3161 1858.2383,20.1569 1865.598,20.0485 1873.3379,19.9425 1880.5105,19.8261 1887.8228,19.7341 1894.238,19.6536 1900.4028,19.5746 1906.4037,19.4971 1912.683,19.4103 1918.6498,19.3113 1924.6893,19.2126 1930.8456,19.1098 1937.3607,19.0024 1943.6729,18.8967 1950.1616,18.7865 1956.8411,18.6394 1963.7283,18.4909 1970.7838,18.3137 1977.9534,18.1044 1985.2137,17.8505 1993.0377,17.5726 2001.2174,17.2669 2010.3743,16.9133 2019.3954,16.562 2028.368,16.2154 2037.4613,15.8598 2046.1069,15.4998 2054.9082,15.1447 2063.4788,14.8013 2072.1431,14.4316 2081.0085,14.0134 2090.0491,13.5644 2099.2375,13.0763 2108.5632,12.5593 2118.0354,12.0518 2127.6597,11.5686 2137.4319,11.1177 2147.3433,10.6988 2157.2231,10.3042 2166.6689,9.9772 2175.3994,9.6827 2183.5725,9.4331 2191.6152,9.2114 2199.1106,9.0189 2205.9307,8.8659 2212.0891,8.7352 2217.6265,8.6272 2222.595,8.5396 2227.0872,8.4555 2231.4358,8.3753 2235.6831,8.31 2239.499,8.2516 2242.8306,8.1934 2245.9807,8.1368 2249.0269,8.08 2252.5012,8.0152 2255.688,7.9558 2260.0637,7.9135 2264.7058,7.8936 2269.3704,7.887 2274.05,7.9037 2278.4272,7.9404 2282.4124,7.9804 2286.0542,8.0182 2289.9465,8.0593 2293.8877,8.0997 2297.9585,8.144 2302.1951,8.19 2306.7297,8.2458 2311.4109,8.3194 2316.3457,8.3987 2321.5674,8.4998 2327.1096,8.6093 2332.9204,8.7396 2338.9856,8.8809 2345.293,9.0458 2351.8064,9.2099 2358.5103,9.3842 2365.4175,9.5614 2372.5447,9.7516 2379.8899,9.9716 2387.4309,10.2142 2395.1384,10.4703 2403.0171,10.7248 2411.0037,10.9716 2419.1299,11.2054 2427.439,11.4377 2435.915,11.665 2444.5471,11.8764 2453.3206,12.0736 2462.2373,12.2439 2471.2939,12.4002 2480.4917,12.5475 2489.8259,12.6749 2499.2849,12.7786 2508.8684,12.8617 2518.5854,12.9189 2528.4326,12.9538 2538.3745,12.9634 2548.4268,12.9494 2558.5991,12.9149 2568.9053,12.8453 2579.2563,12.7387 2589.436,12.5668 2599.2991,12.4131 2608.6682,12.226 2617.5166,12.0507 2625.8535,11.8873 2633.5315,11.7336 2640.7581,11.575 2647.1938,11.4353 2653.4146,11.2924 2659.3413,11.1465 2665.0859,11.0019 2670.7129,10.8588 2676.3413,10.7119 2681.7698,10.5842 2686.9106,10.4667 2691.8867,10.3343 2696.5515,10.1986 2701.4712,10.0636 2706.6467,9.9171 2712.0925,9.7876 2717.1367,9.6663 2721.197,9.5681 2725.6968,9.4762 2728.3247,9.4326 2731.8494,9.4378 2732.4309,9.4633 2734.9148,9.4883 2737.1523,9.5105 2737.5764,9.5465 2739.3457,9.5568 2741.1384,9.5551 2742.9336,9.5452 2744.7957,9.4969 2747.3809,9.4739 2749.2815,9.4623 2752.4714,9.4417 2755.9067,9.4212 2759.7017,9.407 2763.752,9.3915 2767.9873,9.3847 2772.4238,9.3777 2777.1108,9.3839 2782.0669,9.414 2787.2654,9.4457 2792.7122,9.4694 2798.4182,9.511 2804.3274,9.5427 2810.4856,9.5694 2816.8792,9.5862 2823.5251,9.6025 2830.3823,9.6 2837.4299,9.592 2844.6829,9.5805 2852.1108,9.5685 2859.7427,9.5626 2867.5327,9.5558 2875.5347,9.5463 2883.6423,9.5489 2891.9348,9.5471 2900.4001,9.5492 2908.9888,9.55 2917.7141,9.5623 2926.6323,9.5736 2935.7041,9.5773 2944.9451,9.5761 2954.3171,9.5777 2963.8271,9.5771 2973.4663,9.5748 2983.238,9.5675 2993.1294,9.5671 3003.144,9.5657 3013.2686,9.5664 3023.4998,9.56 3033.8118,9.5731 3044.2517,9.542 3054.8193,9.5456 3065.4963,9.5449 3076.2539,9.5476 3087.0806,9.5485 3098.0161,9.5409 3109.0505,9.5298 3120.1858,9.5228 3131.4348,9.5239 3142.8027,9.5229 3154.2268,9.5196 3165.7517,9.5152 3177.3787,9.5083 3189.0649,9.5111 3200.8374,9.5123 3212.6851,9.5117 3224.6006,9.512 3236.5737,9.5159 3248.6238,9.5061 3260.7637,9.5072 3272.9822,9.5069 3285.2463,9.5113 3297.5793,9.5058 3309.979,9.5097 3322.4551,9.5023 3334.9731,9.4977 3347.042,9.5104 3358.3201,9.5053 3368.8062,9.5083 3378.531,9.5091 3387.5129,9.5136 3395.8042,9.5145 3403.4756,9.5072 3410.6267,9.4882 3417.2578,9.4683 3423.4956,9.4452 3429.5027,9.4324 3435.345,9.4257 3440.9475,9.4284 3446.3455,9.4604 3451.7451,9.5102 3456.8848,9.567 3461.9016,9.6307 3466.8135,9.7133 3471.7488,9.803 3476.7729,9.8986 3481.9465,9.9853 3487.2869,10.0702 3492.8381,10.1503 3498.6416,10.2542 3504.6851,10.3551 3510.8889,10.4535 3517.2297,10.5405 3523.8384,10.6402 3530.6951,10.7599 3537.7808,10.9097 3545.0078,11.0746 3552.4092,11.2518 3559.9639,11.4534 3567.6465,11.675 3575.4299,11.8913 3583.2935,12.1214 3591.3196,12.3673 3599.5342,12.6337 3607.8901,12.9109 3616.3406,13.1868 3624.967,13.4671 3633.8274,13.7643 3642.8718,14.0822 3652.0972,14.4168 3661.3127,14.7798 3670.6538,15.1364 3679.9326,15.4723 3689.3271,15.8058 3698.854,16.1492 3708.4917,16.4774 3718.1726,16.7955 3727.8916,17.0897 3737.6904,17.3616 3747.5786,17.6444 3757.6709,17.954 3768.0063,18.2685 3778.2288,18.5817 3788.3948,18.9205 3798.5039,19.2318 3808.5923,19.5588 3818.6606,19.8608 3828.7397,20.1675 3838.7151,20.4601 3848.5781,20.739 3858.4995,21.0016 3868.3872,21.2466 3878.0405,21.4861 3887.5854,21.7134 3897.0093,21.9175 3906.3643,22.1164 3915.8083,22.2994 3925.252,22.4841 3934.6792,22.65 3944.2075,22.7921 3953.9058,22.9085 3963.7192,22.989 3973.6462,23.0629 3983.6968,23.116 3993.8564,23.1524 4004.1116,23.1617 4014.459,23.1427 4024.6975,23.1029 4034.2983,23.0568 4043.2314,22.9804 4051.5308,22.9199 4059.5354,22.8584 4066.8687,22.7994 4073.9048,22.7421 4080.4182,22.6876 4086.4211,22.6299 4091.5413,22.5687 4096.9004,22.5024 4101.4819,22.4309 4105.71,22.3558 4109.5688,22.2761 4113.0488,22.1952 4116.3423,22.1051 4120.6274,22.0148 4124.0762,21.9212 4127.8057,21.8314 4131.7432,21.7392 4136.4082,21.6411 4140.7646,21.5485 4145.438,21.4328 4150.4351,21.3054 4155.8018,21.1723 4161.4922,21.0374 4167.2695,20.9022 4173.5781,20.7742 4180.127,20.6423 4186.8081,20.5087 4193.8354,20.3721 4201.0791,20.2379 4208.4697,20.0976 4216.1021,19.9777 4223.9175,19.8668 4232.0186,19.7714 4240.2402,19.6746 4248.5996,19.6018 4257.1187,19.5198 4265.8091,19.4538 4274.6514,19.396 4283.6577,19.3486 4292.832,19.3143 4302.1445,19.2977 4311.5776,19.2925 4321.144,19.3011 4330.8413,19.3409 4340.666,19.3842 4350.6147,19.4186 4360.6729,19.4378 4370.8301,19.424 4381.0859,19.4042 4391.46,19.3482 4401.9473,19.2817 4412.5488,19.1914 4423.2554,19.0769 4434.0674,18.9485 4444.9888,18.7874 4456.0171,18.6045 4467.1504,18.3932 4478.3774,18.1536 4489.7017,17.8868 4501.1201,17.6028 4512.6187,17.2812 4524.228,16.9233 4535.9419,16.5224 4547.7759,16.1205 4559.6958,15.6843 4571.6885,15.2569 4583.7676,14.8417 4595.9297,14.4558 4608.1367,14.1063 4620.4116,13.7867 4632.7744,13.5038 4645.2148,13.2491 4657.7285,13.0368 4670.3071,12.8523 4682.9639,12.6925 4695.6934,12.5779 4708.4795,12.488 4721.3286,12.4444 4734.2388,12.4439 4747.1826,12.4754 4760.1733,12.5422 4773.2129,12.6044 4786.2642,12.6764 4798.7202,12.7393 4810.3945,12.7485 4821.2568,12.7515 4831.3569,12.7348 4840.7368,12.7042 4849.4141,12.6616 4857.4106,12.6071 4864.7505,12.5536 4871.4614,12.4863 4877.5498,12.417 4883.084,12.348 4888.248,12.2646 4893.2236,12.1727 4897.9487,12.0726 4902.6313,11.9756 4907.8608,11.8675 4913.5239,11.7471 4918.8745,11.6422 4923.772,11.5634 4928.313,11.5073 4932.7451,11.473 4937.2622,11.4388 4941.9844,11.3888 4947.0161,11.3105 4952.3218,11.2225 4957.8525,11.1183 4963.6182,11.0009 4969.6152,10.8661 4975.8438,10.712 4982.2085,10.5706 4988.8384,10.4213 4995.5508,10.2693 5002.0186,10.1131 5009.1538,9.9602 5016.5068,9.8158 5023.9663,9.6624 5031.873,9.5042 5039.9507,9.3432 5048.105,9.1858 5056.4634,9.0365 5064.9985,8.89 5073.6992,8.7409 5082.5967,8.5563 5091.6201,8.385 5100.7656,8.2191 5110.0659,8.0602 5119.5518,7.8984 5129.1802,7.779 5138.9243,7.6992 5148.7891,7.6185 5158.7773,7.5451 5168.8765,7.4894 5179.064,7.4356 5189.3774,7.3998 5199.8247,7.3639 5210.3887,7.3508 5221.0312,7.3471 5231.7725,7.3474 5242.6289,7.3451 5253.5869,7.3506 5264.645,7.3451 5275.7988,7.3421 5287.0396,7.3434 5298.3564,7.3393 5309.7544,7.3411 5321.2441,7.3358 5332.8428,7.3356 5344.5435,7.3412 5356.3237,7.3509 5368.1782,7.3442 5380.1299,7.347"/>
</svg>
