<?xml version="1.0" encoding="utf-8"?>
<!-- Track map generated with TinyPedal -->
<svg viewBox="-214.9614 -2376.2380 2629.6230 5475.1936" version="1.1" xmlns="http://www.w3.org/2000/svg">
	<title>Circuit de la Sarthe</title>
	<!-- Sector coordinates index -->
	<desc>203,653</desc>
	<!-- Raw global coordinates -->
	<polyline id="map" fill="none" stroke="black" stroke-width="10" points="-185.1643,-1062.0424 -183.8609,-1078.13 -182.9792,-1089.1237 -182.0873,-1100.325 -181.1877,-1111.7286 -180.2777,-1123.3297 -179.3573,-1135.1224 -178.4304,-1147.0767 -177.5021,-1159.1437 -176.5706,-1171.373 -175.6413,-1183.7637 -174.6903,-1196.3099 -173.6042,-1208.9996 -172.544,-1221.8434 -171.6013,-1234.8442 -170.8203,-1247.9994 -170.0875,-1261.2987 -169.3943,-1274.7375 -168.7166,-1288.3119 -167.8453,-1302.0023 -166.7427,-1315.8037 -165.6529,-1329.7319 -164.5688,-1343.7815 -163.4435,-1357.9458 -162.1859,-1372.2118 -160.8964,-1386.5416 -159.4333,-1400.9307 -157.5234,-1415.3546 -154.8803,-1429.7386 -151.9723,-1444.1721 -148.8542,-1458.6559 -145.4349,-1473.1636 -141.9607,-1487.7488 -138.4394,-1502.4128 -134.8398,-1517.1411 -130.7839,-1531.8191 -126.0458,-1546.3568 -121.1276,-1560.9172 -116.1675,-1575.5414 -110.9941,-1590.1616 -105.4765,-1604.7284 -99.8706,-1619.3326 -93.7982,-1633.8004 -86.9006,-1647.7891 -79.1542,-1661.069 -70.5688,-1673.5144 -61.2066,-1685.0303 -51.2052,-1695.5686 -40.9144,-1705.0969 -30.6195,-1713.7334 -20.4436,-1721.7179 -10.5327,-1729.1583 -0.9897,-1736.1705 8.1616,-1742.9216 16.9294,-1749.4215 25.341,-1755.6984 33.4352,-1761.7206 41.3264,-1767.3793 48.9414,-1772.7449 56.2363,-1777.8287 63.2145,-1782.7014 69.8156,-1787.3417 76.0276,-1791.7363 82.0722,-1795.745 87.9699,-1799.3958 93.6419,-1802.6946 98.983,-1805.6781 104.1064,-1808.5276 109.047,-1811.2823 113.5424,-1813.9078 117.4666,-1816.5085 120.7965,-1819.2076 123.648,-1821.9508 126.1049,-1824.6849 128.2223,-1827.3331 129.9147,-1829.9163 131.1477,-1832.3644 132.0307,-1834.6001 132.6715,-1836.5659 133.0931,-1838.1586 133.3814,-1839.3563 133.595,-1840.183 133.8488,-1840.6409 134.2612,-1840.9323 134.8342,-1841.2583 135.4959,-1841.7424 136.1768,-1842.3875 136.8548,-1843.126 137.5135,-1844.0322 138.2481,-1845.1105 138.9962,-1846.3593 139.713,-1847.8112 140.3858,-1849.4664 141.0608,-1851.3107 141.7613,-1853.3448 142.4778,-1855.567 143.2437,-1857.9843 144.1246,-1860.5698 145.1467,-1863.298 146.401,-1866.1244 147.9044,-1869.0004 149.629,-1871.9451 151.681,-1874.9772 153.9816,-1878.1691 156.6592,-1881.4115 159.6967,-1884.7076 163.0981,-1888.0575 166.8634,-1891.4832 170.9837,-1895.0012 175.4466,-1898.6394 180.2188,-1902.4414 185.2732,-1906.4413 190.5788,-1910.6121 196.1331,-1914.9537 201.981,-1919.5082 208.1325,-1924.2428 214.6471,-1929.0511 221.3777,-1933.9197 228.374,-1938.9047 235.6087,-1944.0607 243.0777,-1949.3862 250.7453,-1954.9161 259.1645,-1961.5179 266.0033,-1967.3502 273.3612,-1974.3059 280.3832,-1981.71 287.2496,-1989.3661 293.9419,-1997.2689 300.5569,-2005.3246 307.2366,-2013.3578 314.1469,-2021.134 321.3699,-2028.5101 328.925,-2035.4264 336.8335,-2041.8077 345.1288,-2047.7961 353.7531,-2053.7227 362.8203,-2059.3577 372.3574,-2064.5557 382.3377,-2069.2825 392.7339,-2073.5215 403.4833,-2077.3596 414.6008,-2080.6279 426.0155,-2083.4055 437.6649,-2085.4661 449.4316,-2086.7651 461.2109,-2087.5352 472.9223,-2087.5027 484.3231,-2087.1399 495.1047,-2086.8123 505.2543,-2086.6123 514.8123,-2086.8423 523.8154,-2087.4431 532.3436,-2088.2908 540.4525,-2089.3684 548.2039,-2090.865 555.5852,-2093.002 562.554,-2095.792 569.129,-2099.2 575.3199,-2103.1213 581.0925,-2107.6089 586.4733,-2112.6191 591.4548,-2118.113 595.9833,-2124.0684 599.9931,-2130.4626 603.4464,-2137.2544 606.4575,-2144.3518 609.0729,-2151.696 611.1044,-2159.2864 612.5677,-2167.0889 613.8516,-2175.0227 615.3298,-2183.0173 617.1486,-2191.0364 619.4576,-2199.0164 622.3151,-2206.9026 625.6912,-2214.6655 629.4926,-2222.3169 633.9235,-2229.697 638.9037,-2236.8108 644.4553,-2243.5613 650.5046,-2249.9871 656.9108,-2256.2007 663.785,-2262.0696 671.0839,-2267.6655 678.6348,-2273.3479 686.4603,-2279.1226 694.6796,-2284.749 703.3761,-2289.876 712.5773,-2294.5732 722.083,-2299.2063 731.7969,-2303.9443 741.7,-2308.8059 751.7936,-2313.7673 762.1382,-2318.6821 772.8387,-2323.269 783.8635,-2327.5825 795.1655,-2331.5491 806.7174,-2335.1807 818.4356,-2338.8357 830.2385,-2342.6064 841.7536,-2346.3643 852.7574,-2349.7405 863.3106,-2352.5137 873.4993,-2354.5442 883.5034,-2355.7595 893.3247,-2356.238 903.0021,-2356.1716 912.5234,-2355.4272 921.8383,-2353.9114 930.8891,-2351.6794 939.5728,-2348.6799 947.895,-2345.0686 955.8741,-2340.7776 963.767,-2336.0029 971.8192,-2331.0195 980.0427,-2325.853 988.3862,-2320.4377 996.8757,-2314.8154 1005.4465,-2308.9033 1013.9451,-2302.5054 1022.4869,-2295.7842 1030.8744,-2288.5522 1039.2401,-2280.9565 1048.4409,-2272.2378 1055.8267,-2264.7043 1063.8535,-2255.9089 1071.8684,-2246.9148 1079.9679,-2237.7844 1088.052,-2228.4106 1095.9758,-2218.6758 1103.6688,-2208.5562 1111.1227,-2198.0525 1118.6671,-2187.407 1126.3021,-2176.6235 1133.9188,-2165.6335 1141.5171,-2154.4424 1149.0963,-2143.0537 1156.6608,-2131.4792 1164.2695,-2119.761 1171.9672,-2107.928 1179.7734,-2096.0042 1187.6437,-2083.9866 1195.5533,-2071.906 1203.5225,-2059.7224 1211.479,-2047.3969 1218.8981,-2034.6475 1225.9785,-2021.5867 1233.1282,-2008.4456 1240.3192,-1995.2126 1247.5856,-1981.91 1255.0946,-1968.635 1262.6833,-1955.2979 1270.2102,-1941.8225 1277.4747,-1928.1113 1284.5625,-1914.2109 1291.6829,-1900.233 1298.7557,-1886.1399 1305.7637,-1871.928 1312.5536,-1857.5284 1319.3386,-1843.0436 1325.9346,-1828.4025 1331.8162,-1813.4163 1337.2339,-1798.1841 1342.0417,-1782.7031 1346.2391,-1766.9884 1350.5155,-1751.2279 1355.3015,-1735.6001 1360.2802,-1720.0031 1365.2585,-1704.3489 1370.2512,-1688.6433 1375.1676,-1672.8612 1379.8877,-1656.967 1384.6302,-1641.0271 1389.391,-1625.041 1394.1631,-1609.0074 1398.9375,-1592.9248 1403.7212,-1576.795 1408.5226,-1560.6213 1413.3464,-1544.4058 1418.1998,-1528.1501 1423.0869,-1511.8553 1428.0151,-1495.5242 1433.0646,-1479.1826 1438.2091,-1462.8235 1443.3015,-1446.402 1448.2993,-1429.907 1453.2502,-1413.3534 1458.2072,-1396.7577 1463.0221,-1380.0781 1467.7556,-1363.3342 1472.3402,-1346.5082 1476.9431,-1329.647 1481.595,-1312.7598 1486.2931,-1295.8462 1491.0214,-1278.9027 1495.8422,-1261.9479 1500.7422,-1244.9781 1505.6909,-1227.986 1510.6503,-1210.9598 1515.5133,-1193.871 1520.3575,-1176.7417 1525.2184,-1159.5825 1530.0848,-1142.3911 1534.8771,-1125.146 1539.6748,-1107.8695 1544.4897,-1090.566 1549.3217,-1073.2362 1554.172,-1055.881 1559.0393,-1038.5015 1563.9226,-1021.0987 1569.3136,-1001.9296 1573.7408,-986.2272 1578.6824,-968.7629 1583.6627,-951.2848 1588.7014,-933.801 1593.8727,-916.334 1599.1625,-898.88 1604.5004,-881.4191 1610.1844,-862.134 1614.7761,-846.3202 1619.6196,-828.6625 1624.4146,-810.9711 1629.2361,-793.2671 1634.123,-775.562 1639.1267,-757.8704 1644.2134,-740.1832 1649.2996,-722.4778 1654.3405,-704.8264 1659.2454,-687.672 1663.9569,-671.1996 1668.4738,-655.4164 1672.8756,-640.0431 1677.2352,-624.8373 1681.4845,-610.0339 1685.5417,-595.903 1689.4082,-582.4383 1693.0889,-569.6381 1696.5836,-557.4911 1699.8337,-545.9692 1702.8446,-534.9725 1705.8125,-524.1979 1708.7363,-513.6705 1711.1885,-503.6044 1712.9913,-493.9608 1714.4253,-484.9081 1715.7859,-476.468 1716.9595,-468.5844 1717.6323,-461.1287 1717.7451,-454.0287 1717.2444,-447.206 1716.0492,-440.6289 1714.1509,-434.3654 1711.5933,-428.4823 1708.5184,-422.966 1705.3711,-417.686 1702.6976,-412.5665 1700.4379,-407.3425 1698.3724,-402.0949 1696.7339,-396.7792 1695.4363,-391.3273 1694.5874,-385.7606 1694.3668,-380.2685 1694.8152,-374.9214 1695.9106,-369.739 1697.6265,-364.6299 1699.9648,-359.5976 1702.8685,-354.6588 1706.2511,-349.6859 1709.9817,-344.5329 1714.0243,-339.1971 1718.4379,-333.7785 1723.3495,-328.3518 1728.7762,-323.1446 1734.6913,-318.2701 1740.9498,-313.5688 1747.0219,-308.7321 1752.6771,-304.1398 1757.735,-299.7538 1762.1543,-295.1889 1765.9481,-290.3322 1769.2042,-285.2404 1771.9727,-279.9183 1774.4067,-274.2327 1776.6077,-268.1358 1778.7137,-261.623 1780.8436,-254.7201 1783.0719,-247.4671 1785.4044,-239.8806 1787.8502,-232.0309 1790.3839,-223.9691 1793.012,-215.6318 1795.7147,-207.0164 1798.4767,-198.1241 1801.34,-188.9773 1804.2452,-179.5667 1807.1617,-169.8941 1810.0922,-160.052 1813.0206,-149.9988 1815.9308,-139.7065 1818.8328,-129.1853 1821.6498,-118.421 1824.5229,-107.4572 1827.4574,-96.3002 1830.4503,-84.9559 1833.4991,-73.4308 1836.5873,-61.7904 1839.7188,-50.0127 1842.9008,-38.0796 1846.1333,-25.9934 1849.4166,-13.7566 1852.7512,-1.3723 1856.1355,11.1575 1859.5684,23.8294 1863.0492,36.6398 1866.5767,49.5856 1870.1505,62.6638 1873.7698,75.8717 1877.433,89.2066 1881.1415,102.6645 1884.8944,116.2421 1888.6881,129.9368 1892.5187,143.7442 1896.3754,157.6128 1900.2605,171.5624 1904.1777,185.6129 1908.1228,199.7638 1912.0951,214.0138 1916.0946,228.3608 1920.1185,242.8035 1924.1677,257.3388 1928.2335,271.9664 1932.3163,286.6834 1936.4148,301.4878 1940.5242,316.3784 1944.6421,331.3541 1948.7727,346.4121 1952.9198,361.5496 1957.0819,376.7654 1961.2601,392.0571 1965.4543,407.4234 1969.6917,422.8545 1974.189,438.2828 1978.7915,453.7542 1983.3564,469.3069 1987.9011,484.9344 1992.4634,500.6236 1997.0371,516.3739 2001.6215,532.1827 2006.2126,548.0468 2010.8002,563.9552 2015.3688,579.8744 2019.9602,595.8403 2024.5625,611.856 2029.1107,627.9396 2033.5518,644.1061 2037.9618,660.3335 2042.3656,676.6154 2046.7797,692.9465 2051.2036,709.3267 2055.6379,725.7545 2060.084,742.2288 2064.5654,758.7421 2069.1343,775.2793 2073.7839,791.8412 2078.5134,808.4275 2083.2439,825.0593 2087.9111,841.7542 2092.582,858.4921 2097.2639,875.269 2101.9734,892.0789 2107.1792,910.6071 2111.4504,925.7964 2116.363,942.657 2121.425,959.5079 2126.4375,976.4069 2131.4226,993.3471 2136.4214,1010.3151 2141.9131,1029.0182 2146.3757,1044.3568 2151.3054,1061.4349 2156.1687,1078.5605 2161.0232,1095.7161 2165.8027,1112.9199 2170.5852,1130.1506 2175.3738,1147.4071 2180.1694,1164.6897 2184.9746,1181.9973 2189.7971,1199.2812 2194.5681,1216.3558 2199.2573,1233.1095 2203.7639,1249.2163 2208.0667,1264.6195 2212.1692,1279.3304 2216.4558,1294.7274 2219.7898,1306.7238 2223.3113,1319.423 2226.6438,1331.4688 2229.7905,1342.8691 2233.0393,1354.6671 2235.5559,1363.7439 2238.3086,1373.1984 2241.0808,1381.963 2243.9233,1390.0442 2246.8943,1397.4703 2250.1165,1404.3042 2253.6506,1410.5403 2257.4255,1416.2148 2261.407,1421.2808 2265.6016,1425.6666 2269.9114,1429.4026 2274.2893,1432.5697 2278.8496,1435.2323 2283.502,1437.5702 2288.1804,1439.6848 2292.8291,1441.6959 2297.395,1443.7225 2301.7419,1446.0203 2305.8267,1448.6133 2309.6118,1451.4802 2313.0027,1454.6454 2315.9478,1458.1041 2318.3518,1461.8268 2320.166,1465.7562 2321.415,1469.8616 2322.2805,1474.1738 2322.9055,1478.7107 2323.2131,1483.4766 2323.2122,1488.4519 2322.8569,1493.6124 2322.2039,1498.9553 2321.304,1504.5031 2320.2336,1510.3698 2318.8481,1516.5198 2317.1206,1522.9368 2315.1809,1529.5575 2313.3457,1536.5479 2311.6719,1543.9414 2310.1165,1551.6677 2308.6494,1559.6134 2307.2786,1567.8629 2306.1831,1576.4368 2305.4424,1585.3209 2305.0432,1594.4768 2305.1824,1603.8717 2305.917,1613.3768 2307.1023,1623.0345 2308.5732,1632.8994 2310.6667,1643.8599 2312.7625,1652.9265 2315.5359,1663.1014 2318.5669,1673.436 2321.6904,1683.9639 2324.9929,1694.5859 2328.3394,1705.3662 2331.646,1716.3724 2335.0144,1727.5615 2338.5413,1738.8281 2342.2693,1750.1882 2346.2144,1761.6553 2350.2615,1773.2648 2353.9656,1785.1479 2357.2119,1797.3254 2360.0203,1809.7662 2362.2637,1822.4663 2363.9468,1835.3982 2365.4114,1848.5104 2366.8774,1861.771 2368.2273,1875.1859 2369.4451,1888.7533 2370.4895,1902.4703 2371.4514,1916.3275 2372.2629,1930.3215 2372.9248,1944.4502 2373.6021,1958.701 2374.2781,1973.0531 2374.884,1987.4668 2375.4966,2001.9866 2376.1067,2016.6113 2376.7327,2031.3386 2377.3767,2046.1665 2378.0378,2061.0935 2378.717,2076.1167 2379.4097,2091.2346 2380.0649,2106.447 2380.738,2121.7488 2381.1687,2137.1443 2381.5278,2152.6287 2381.905,2168.197 2382.291,2183.8472 2382.6868,2199.5767 2383.0923,2215.3833 2383.5059,2231.2644 2383.929,2247.2178 2384.3608,2263.2417 2384.8025,2279.3342 2385.2561,2295.4924 2385.7202,2311.7163 2386.1907,2328.0027 2386.6655,2344.3501 2387.146,2360.7556 2387.5107,2377.2117 2387.8491,2393.7141 2388.1919,2410.2378 2388.5332,2426.7751 2388.8789,2443.3577 2389.2288,2459.9868 2389.5789,2476.6619 2389.9304,2493.3823 2390.281,2510.1472 2390.6326,2526.9583 2390.9895,2543.8145 2391.3547,2560.7168 2391.7263,2577.6648 2392.0359,2594.6592 2392.3381,2611.699 2392.6489,2628.7839 2392.969,2645.9126 2393.2949,2663.0862 2393.6292,2680.3032 2393.7852,2697.5635 2393.7441,2714.8674 2393.7266,2732.2139 2393.7585,2749.6023 2393.822,2767.0312 2393.9114,2784.4968 2394.0193,2801.7417 2394.135,2818.2744 2394.2583,2834.0769 2394.397,2849.1584 2394.5374,2863.533 2394.6616,2877.2451 2394.4717,2890.5359 2393.918,2903.3279 2392.9714,2915.4504 2391.7971,2926.9709 2390.6311,2937.9023 2389.4365,2948.634 2388.03,2959.2444 2386.3738,2969.7207 2384.2075,2979.9893 2381.7334,2989.8267 2379.2297,2998.9927 2376.8633,3007.5266 2374.6692,3015.4429 2372.6562,3022.7712 2370.7598,3029.4966 2368.905,3035.6018 2366.9485,3041.1553 2364.7705,3046.2466 2362.5481,3050.8542 2360.2686,3054.947 2358.0461,3058.5103 2355.7778,3061.936 2354.0176,3064.4675 2352.0142,3067.0129 2349.8391,3069.344 2347.4675,3071.4949 2344.8301,3073.3503 2342.0537,3075.1062 2339.0579,3076.6531 2335.8245,3077.7717 2332.4165,3078.4229 2328.8691,3078.8025 2325.1372,3078.9556 2321.1899,3078.9016 2317.002,3078.625 2312.5657,3078.1257 2307.8689,3077.4724 2302.9148,3076.6177 2297.7083,3075.4612 2292.1824,3074.0503 2286.4038,3072.3674 2280.4287,3070.3635 2274.2891,3067.9636 2268.0002,3065.2783 2261.3892,3062.6667 2254.3875,3060.0566 2247.0352,3057.3547 2239.3613,3054.6245 2231.4546,3051.9045 2223.2666,3049.0999 2214.8027,3046.2024 2205.1709,3042.9414 2197.0315,3040.2642 2187.7097,3037.3293 2178.1223,3034.3748 2168.3447,3031.3853 2158.3853,3028.3572 2148.2063,3025.2725 2137.8118,3022.1311 2127.2041,3018.9438 2116.3892,3015.7131 2105.3752,3012.4285 2094.1658,3009.0974 2082.7952,3005.6382 2071.3083,3002.0793 2059.6914,2998.4897 2047.9128,2994.8604 2035.974,2991.1975 2023.877,2987.5024 2011.6257,2983.7708 1999.2211,2980.0125 1986.6611,2976.2446 1973.9448,2972.4871 1961.0951,2968.675 1946.8021,2964.4485 1934.996,2960.9373 1921.8247,2956.7891 1908.5461,2952.5469 1895.1624,2948.2246 1881.6793,2943.8103 1868.079,2939.3733 1854.4009,2934.9229 1840.6489,2930.4636 1826.7916,2925.9871 1812.8312,2921.4917 1798.7701,2916.9768 1784.6108,2912.4375 1770.3558,2907.8757 1756.0043,2903.2979 1741.5361,2898.7773 1726.9734,2894.2471 1712.3572,2889.5942 1697.8223,2884.4553 1683.2546,2879.1379 1668.6394,2873.6995 1653.998,2868.0835 1639.3822,2862.1792 1624.7482,2856.0952 1610.2157,2849.5996 1595.72,2842.8237 1581.2609,2835.7905 1566.7964,2828.5908 1550.8207,2820.6047 1537.8002,2813.8315 1523.3398,2806.1436 1508.8608,2798.3411 1494.3105,2790.5276 1479.7341,2782.7039 1465.1578,2774.803 1450.603,2766.7432 1435.9877,2758.675 1421.2604,2750.698 1406.4053,2742.8457 1391.4852,2735.0032 1376.4961,2727.1843 1361.5157,2719.2441 1346.5933,2711.0959 1331.822,2702.5957 1317.0618,2693.9836 1302.3324,2685.2349 1287.5966,2676.4126 1272.8193,2667.5815 1258.0002,2658.7429 1243.1416,2649.8989 1228.2504,2641.0371 1213.3291,2632.1558 1196.8833,2622.3599 1183.4015,2614.325 1168.507,2605.2117 1154.0616,2595.3962 1139.7767,2585.2839 1125.4689,2575.1404 1111.2012,2564.8809 1096.9437,2554.5459 1082.7069,2544.1245 1068.4413,2533.6812 1054.178,2523.1765 1039.9807,2512.5303 1025.8838,2501.6934 1011.7365,2490.8652 997.5433,2480.0364 983.3109,2469.2014 969.0436,2458.3562 954.7518,2447.4944 940.4807,2436.5547 926.2629,2425.502 912.1313,2414.2952 898.0919,2402.9377 884.1359,2391.439 870.0731,2380.0344 855.9768,2368.6455 842.023,2357.3572 828.5837,2346.4695 815.7186,2336.0398 803.4058,2326.0808 791.6393,2316.5774 780.5283,2307.3669 770.1815,2298.269 760.4998,2289.3445 751.1796,2280.686 742.1951,2272.3381 733.5921,2264.4294 725.3868,2256.9614 717.5229,2249.7002 710.1161,2242.3433 703.0724,2234.8643 696.4067,2227.1787 690.3276,2219.1223 684.8444,2210.728 679.6948,2202.1428 674.6755,2193.4414 670.134,2184.4453 666.1468,2175.1631 662.6787,2165.6587 659.8441,2155.9351 657.3058,2146.054 654.7078,2135.9832 652.0425,2125.6929 649.341,2115.3047 646.7221,2105.2937 644.0068,2095.0061 641.9005,2087.1572 639.6475,2079.0356 637.3433,2071.5698 634.8511,2064.6875 632.1364,2058.3359 629.112,2052.5364 625.7184,2047.3595 622.0248,2042.7783 618.0496,2038.7769 613.7217,2035.4669 609.0593,2032.8927 604.0847,2031.0236 598.8228,2029.7064 593.2957,2028.6934 587.4948,2028.1045 581.4626,2027.9728 575.2513,2028.2778 568.9164,2029.0101 562.4477,2029.9594 555.8775,2031.2401 549.2132,2032.8485 542.4807,2034.7523 535.7103,2036.9163 528.8833,2039.3174 521.9947,2041.96 515.0491,2044.8169 507.9528,2047.7714 500.6204,2050.8264 493.0443,2053.9841 485.249,2057.2307 477.1833,2060.5891 468.8502,2064.0571 460.2549,2067.6284 451.4129,2071.3186 442.3158,2075.0828 432.9562,2078.8787 423.4135,2082.6345 413.7055,2086.385 403.9631,2089.9883 394.3442,2093.5137 384.2017,2097.2341 376.4171,2100.0938 368.3353,2103.0642 360.8416,2105.8145 353.9363,2108.3376 347.5742,2110.6543 341.6415,2112.7173 336.0609,2114.2888 330.7156,2115.3093 325.6373,2115.8276 320.8669,2115.8086 316.4518,2115.2766 312.4621,2114.2322 308.9537,2112.7283 305.9202,2110.7717 303.3573,2108.3789 301.1054,2105.689 298.9146,2102.7749 296.9572,2099.4849 295.1865,2095.8459 293.537,2091.8958 291.926,2087.6218 290.3557,2082.9692 288.9278,2077.9331 287.7175,2072.5139 286.652,2066.7017 285.5889,2060.4912 284.4762,2053.9258 283.302,2047.0875 281.9031,2039.1569 280.6479,2032.3643 279.1543,2024.5051 277.6932,2016.386 276.2832,2008.0062 274.8263,1999.3413 273.3237,1990.3958 271.7756,1981.1757 270.1778,1971.6908 268.4213,1961.9718 266.4119,1952.0465 264.341,1941.9783 262.2454,1931.6976 260.2239,1921.1752 258.1617,1910.4365 256.0739,1899.4861 253.9597,1888.3293 251.7991,1876.9747 249.5951,1865.4275 247.3476,1853.6949 245.0711,1841.8545 242.7535,1829.8628 240.3947,1817.7097 237.9956,1805.3977 235.5902,1792.9232 233.2136,1780.2823 230.8002,1767.4906 228.3454,1754.5529 225.8558,1741.4722 223.3306,1728.2524 220.7649,1714.8982 218.1463,1701.416 215.4929,1687.8044 212.7689,1674.0757 209.9071,1660.2474 206.9061,1646.3228 203.7064,1632.3358 200.3539,1618.3276 196.8932,1604.2336 193.3249,1590.0542 189.6456,1575.7939 185.7906,1561.4717 181.5155,1547.1692 176.7446,1532.9236 171.6596,1518.681 166.1753,1504.4877 160.4261,1490.2974 154.571,1476.0491 148.5486,1461.7734 142.2934,1447.5022 135.8867,1433.2018 129.4364,1418.8274 122.951,1404.3757 116.4358,1389.8469 109.897,1375.241 102.6742,1359.0874 96.7403,1345.8065 90.1212,1330.9833 83.4746,1316.0917 76.7981,1301.1365 70.0685,1286.1307 63.3008,1271.0728 56.4901,1255.9952 49.6635,1240.9038 42.8113,1225.7639 35.9276,1210.5837 29.0152,1195.3722 22.0767,1180.1768 14.9683,1165.0918 7.4134,1150.2872 -0.4539,1135.7168 -8.6764,1121.4183 -17.0517,1107.2817 -25.6835,1093.3778 -34.4383,1079.6244 -43.1865,1065.9421 -51.9251,1052.3531 -60.4941,1039.1101 -68.7079,1026.4138 -76.5875,1014.2241 -84.2112,1002.4143 -91.5391,990.8864 -98.3554,979.5427 -104.7539,968.5021 -110.8846,957.8378 -116.7086,947.5448 -122.0862,937.1651 -126.6448,926.5274 -130.4961,915.7153 -134.0517,904.8755 -137.0333,893.9587 -139.3724,882.9925 -140.9106,872.0289 -141.5685,861.1274 -141.4238,850.3395 -140.4668,839.7258 -138.6686,829.3662 -136.0493,819.3268 -132.6595,809.5724 -128.5826,800.0021 -123.8756,790.6183 -118.6494,781.389 -112.9099,772.358 -106.5366,763.6519 -99.6126,755.2271 -92.1704,747.0731 -84.464,738.9292 -76.6408,730.6595 -68.706,722.2592 -60.5717,713.8151 -52.2899,705.2768 -43.9309,696.6061 -35.6984,687.7425 -28.0273,678.4677 -21.1517,668.7652 -15.0857,658.6996 -9.6584,648.3929 -4.7619,637.9404 -0.4582,627.3444 3.281,616.6371 6.3603,605.7752 8.7573,594.7363 10.4987,583.5038 11.6679,572.0916 12.2602,560.5107 12.2924,548.785 11.7655,536.9369 10.7513,524.9802 9.5079,512.9016 8.0145,500.7228 6.0153,488.5298 3.3444,476.4331 0.0916,464.4572 -3.7368,452.6769 -8.2655,441.2411 -13.6049,430.3038 -19.7738,420.0087 -26.6124,410.3431 -34.1008,401.3633 -42.0168,392.8826 -50.1553,384.6806 -58.5266,376.6679 -66.9527,368.608 -75.0121,360.1959 -82.5881,351.3664 -89.658,342.1916 -95.9958,332.6335 -101.555,322.7496 -106.2468,312.5958 -110.0536,302.3172 -113.011,292.0295 -115.1628,281.6754 -116.5031,271.2964 -117.0265,260.9598 -116.795,250.6919 -115.991,240.4151 -114.5281,230.1465 -112.421,219.93 -109.6049,209.8461 -105.9978,200.0354 -101.6666,190.531 -96.7131,181.3256 -91.1162,172.4997 -84.8243,164.1768 -77.1845,155.6252 -70.5291,148.9858 -62.9803,141.7281 -55.4247,134.5826 -48.1517,127.7131 -41.2526,121.1699 -34.8478,114.822 -28.9172,108.3557 -23.4725,101.6447 -18.5944,94.6336 -14.2619,87.361 -10.2595,79.8865 -6.5576,72.2075 -3.2559,64.3044 -0.4515,56.1767 1.8173,47.8528 3.5251,39.3484 4.7674,30.5856 5.6401,21.5292 6.1058,12.181 6.1398,2.5621 5.8687,-7.3133 5.4311,-17.4352 4.8782,-27.7073 4.1279,-38.178 3.2509,-48.8619 2.1584,-59.7438 0.8104,-70.8058 -0.8464,-82.032 -2.6083,-93.4468 -4.2938,-105.0695 -5.9263,-116.8906 -7.4595,-128.8416 -8.6204,-140.9742 -9.3183,-153.2968 -9.548,-165.7896 -9.3155,-178.4345 -8.6468,-191.2142 -7.4927,-204.0994 -5.9252,-217.0887 -4.2002,-230.2046 -2.4237,-243.4567 -1.016,-256.7749 -0.2266,-270.0596 0.0323,-283.2795 -0.4143,-296.3946 -1.5081,-309.386 -2.9506,-322.2693 -4.7112,-335.0428 -6.8648,-347.7954 -9.1097,-360.6808 -11.4432,-373.7001 -14.0447,-386.8123 -16.8102,-400.0352 -19.6828,-413.3754 -22.6889,-426.823 -25.9853,-440.3334 -29.5405,-453.9081 -33.3257,-467.5481 -36.9487,-481.3318 -40.2518,-495.2534 -43.5558,-509.2856 -46.7702,-523.4465 -49.9832,-537.7158 -53.2127,-552.0852 -56.4861,-566.549 -59.8222,-581.0181 -63.0686,-595.0709 -66.1554,-608.449 -69.0797,-621.155 -71.8458,-633.1994 -74.4614,-644.5899 -76.9504,-655.325 -79.4689,-665.3745 -82.1551,-674.6976 -84.8516,-683.3386 -87.4173,-691.3952 -89.8148,-698.9227 -92.0726,-705.8325 -94.4575,-712.1126 -97.0888,-717.8428 -99.923,-723.043 -103.0404,-727.7711 -106.3539,-732.2567 -109.6792,-736.6372 -113.1116,-740.835 -116.6698,-744.833 -120.3049,-748.6666 -123.9773,-752.3718 -127.6192,-756.0181 -131.1896,-759.6806 -134.6652,-763.4511 -137.878,-767.4846 -140.8163,-771.772 -143.3636,-776.3739 -145.77,-781.8351 -147.5915,-786.5767 -149.3629,-792.1554 -150.7975,-798.0722 -151.9221,-804.3104 -152.8476,-810.834 -153.6403,-817.6064 -154.4219,-824.4119 -155.1619,-830.9202 -155.8342,-836.819 -156.4864,-842.1227 -157.286,-846.8577 -158.433,-851.1409 -159.9637,-855.0585 -161.8553,-858.6834 -164.0727,-862.0372 -166.5681,-865.1036 -169.2794,-867.895 -172.202,-870.368 -175.1921,-872.6785 -178.0701,-875.0466 -180.6934,-877.6148 -183.0411,-880.3696 -185.3117,-883.1343 -187.4156,-885.9764 -189.3071,-889.3043 -190.4992,-892.22 -191.5491,-895.7372 -192.4072,-899.6193 -193.1297,-903.8632 -193.6888,-908.4605 -194.1573,-913.4185 -194.5289,-918.7466 -194.8011,-924.4531 -194.9471,-931.1685 -194.9614,-937.0103 -194.8569,-943.8005 -194.679,-950.8823 -194.374,-958.3206 -193.9486,-966.0987 -193.4037,-974.1819 -192.7952,-982.4617 -192.1822,-991.0293 -191.6047,-999.8851 -190.9466,-1009.0164 -190.1147,-1018.4079 -189.2643,-1028.0652 -188.4032,-1037.98 -187.5297,-1048.1255 -186.6497,-1058.4194"/>
	<!-- Raw distance reference points -->
	<polyline id="dist" fill="none" stroke="none" stroke-width="0" points="13616.3623,6.7691 13.8556,6.924 24.8951,7.029 36.1239,7.1391 47.567,7.2633 59.2056,7.3628 71.0261,7.4638 83.0169,7.5665 95.1232,7.679 107.3923,7.7928 119.8161,7.9237 132.3944,8.0732 145.1278,8.2437 158.0154,8.4345 171.0558,8.6236 184.2415,8.8315 197.563,9.0493 211.0207,9.263 224.6005,9.4788 238.3031,9.687 252.1394,9.9119 266.1089,10.137 280.1964,10.3926 294.3888,10.6463 308.6938,10.8936 323.057,11.1227 337.4604,11.3625 351.9511,11.62 366.4807,11.8869 381.1234,12.1744 395.8707,12.4837 410.768,12.8499 425.7584,13.2724 440.8286,13.6848 455.9765,14.1581 471.1711,14.6502 486.399,15.1631 501.7228,15.7131 517.1239,16.2926 532.608,16.9169 548.1513,17.5397 563.7576,18.2015 579.383,18.8595 594.8707,19.5427 610.1763,20.2097 625.1946,20.8379 639.9587,21.4591 654.4871,22.0748 668.5247,22.6624 681.8966,23.2119 694.6719,23.7036 707.002,24.1814 718.8223,24.6587 730.0716,25.0874 740.8632,25.5067 751.1992,25.9119 761.1009,26.3268 770.6612,26.768 779.8667,27.1574 788.702,27.581 797.1507,27.9888 805.0926,28.4202 812.6342,28.8502 820.1727,29.2762 830.7314,29.6382 846.5646,29.9931 852.011,30.4008 855.4598,30.6252 857.7211,30.6091 859.6885,30.6005 861.717,30.6937 863.9321,30.8975 865.4138,31.1141 867.2723,31.3144 869.4466,31.5165 871.7573,31.737 873.9257,32.0059 875.9535,32.2425 878.9956,32.4116 880.5084,32.5654 883.8662,32.6893 884.6734,32.7563 885.1096,32.8102 885.366,32.8578 886.5811,32.9144 925.1011,32.9842 926.0165,33.0697 926.9768,33.1735 928.0036,33.245 929.1837,33.3546 930.4607,33.4529 930.6766,33.5638 932.7396,33.6829 933.6892,33.7942 936.3848,33.9123 938.123,34.016 940.0024,34.1351 942.0668,34.2844 944.3864,34.4451 946.8911,34.6488 949.5782,34.8496 952.4979,35.0209 955.8052,35.1944 959.3636,35.3777 963.3001,35.5554 967.5937,35.7138 972.2371,35.856 977.2314,35.9874 982.5792,36.1152 988.2857,36.2344 994.3368,36.3316 1000.7195,36.3938 1007.4014,36.4464 1014.3911,36.4877 1021.7369,36.5058 1029.4315,36.485 1037.48,36.4416 1045.7509,36.3732 1054.3204,36.2764 1063.2372,36.1367 1072.5151,35.9849 1082.1093,35.7976 1091.9114,35.5542 1102.1594,35.331 1112.4431,35.0428 1122.7937,34.7229 1133.2091,34.3961 1143.6722,34.0167 1154.1216,33.5927 1164.5286,33.1358 1174.8997,32.6264 1185.2366,32.0528 1195.5637,31.4374 1205.8717,30.8045 1216.3038,30.1556 1227.2451,29.4797 1238.1709,28.7989 1249.2026,28.0869 1260.4332,27.3534 1271.809,26.6429 1283.495,26.0312 1295.3135,25.5579 1307.599,25.101 1319.769,24.643 1331.823,24.2372 1343.8279,23.8851 1355.576,23.5965 1366.9874,23.3698 1377.7554,23.247 1387.8871,23.1517 1397.4321,23.1048 1406.4204,23.0472 1414.9265,23.0093 1423.0665,22.9699 1430.9718,22.9103 1438.8051,22.8426 1446.3999,22.7673 1453.981,22.6893 1461.4421,22.5899 1469.0292,22.5435 1476.4791,22.5051 1484.1718,22.4494 1491.8142,22.4052 1499.6232,22.4049 1507.4373,22.4576 1515.229,22.6049 1523.1975,22.872 1531.1248,23.1857 1539.1167,23.5091 1547.095,23.8291 1555.1519,24.1346 1563.4855,24.399 1572.226,24.6525 1580.9694,24.9406 1590.3651,25.2787 1599.6033,25.6357 1608.4175,26.0189 1617.249,26.3815 1626.0101,26.6751 1634.8459,26.8924 1643.7136,26.9498 1652.7045,26.887 1661.8833,26.7261 1671.3268,26.4779 1681.0359,26.2075 1690.973,25.8518 1701.0295,25.4395 1711.2997,25.0695 1721.8337,24.8148 1732.6526,24.6171 1743.7019,24.4923 1754.9236,24.4499 1766.314,24.362 1777.9092,24.2503 1789.7405,24.1127 1801.7157,23.9394 1813.8115,23.7599 1826.0757,23.6116 1838.4644,23.4723 1850.5861,23.3453 1862.0918,23.2113 1872.9663,23.0651 1883.2942,22.9317 1893.3396,22.7813 1903.4613,22.5975 1914.0995,22.4823 1924.321,22.4055 1933.7717,22.3535 1942.8608,22.3136 1951.8436,22.3033 1960.776,22.207 1969.7882,22.0923 1979.0016,21.9108 1988.4244,21.7209 1998.0946,21.505 2007.9958,21.2561 2018.1261,20.9688 2028.4801,20.6593 2039.0571,20.3002 2049.8613,19.953 2060.8489,19.5502 2072.0737,19.1375 2083.4998,18.6841 2095.1489,18.3172 2107.002,17.8717 2119.0435,17.4299 2131.27,16.9718 2143.7017,16.4798 2156.2925,15.9983 2169.0535,15.4884 2181.9712,14.9929 2195.1248,14.4674 2208.4634,13.953 2221.9263,13.4495 2235.5762,12.9221 2249.3335,12.425 2263.1941,11.8846 2277.1638,11.3153 2291.2622,10.8302 2305.5024,10.3291 2319.8652,9.8528 2334.3027,9.4306 2348.8577,9.0582 2363.5129,8.7507 2378.2668,8.5624 2393.1223,8.4594 2408.0667,8.3908 2423.1055,8.3054 2438.2566,8.1859 2453.5125,8.0855 2468.8665,8.0174 2484.3232,7.9712 2499.8647,7.9291 2515.5034,7.8807 2531.2344,7.8807 2547.052,7.9352 2562.9778,8.0109 2578.9709,8.0821 2595.0435,8.1793 2611.1809,8.2857 2627.3862,8.3618 2643.6257,8.4261 2659.9031,8.4671 2676.2112,8.4968 2692.5574,8.5601 2708.8984,8.6671 2725.2786,8.7773 2741.7139,8.8982 2758.1904,9.0286 2774.7205,9.1797 2791.3018,9.3374 2807.9263,9.4958 2824.6033,9.6543 2841.3308,9.7994 2858.1096,9.9285 2874.9363,10.0204 2891.8069,10.0748 2908.7253,10.1054 2925.6882,10.1021 2942.6936,10.0694 2959.7419,10.0191 2976.8335,9.9709 2993.9751,9.922 3011.1729,9.8767 3028.4211,9.8065 3045.6968,9.7137 3063.0479,9.6066 3080.4412,9.4782 3097.8354,9.3633 3115.2561,9.255 3132.7119,9.1374 3150.2095,9.0079 3167.7419,8.8703 3185.3269,8.7195 3202.9553,8.5508 3220.6167,8.3626 3238.3318,8.1611 3256.0725,7.9619 3273.8513,7.7431 3291.6667,7.5161 3309.5286,7.3022 3327.4153,7.0752 3345.3093,6.8561 3363.2285,6.6389 3381.1855,6.4229 3399.1638,6.2131 3417.175,6.033 3435.2205,5.8706 3453.2986,5.7316 3471.405,5.5994 3489.5339,5.5132 3507.6882,5.4361 3525.8679,5.3663 3544.0698,5.2848 3562.283,5.2179 3580.5159,5.1478 3598.7686,5.059 3617.0386,4.9536 3635.3279,4.8557 3653.634,4.7595 3671.9685,4.6631 3690.3232,4.5606 3708.7017,4.4362 3727.0925,4.3041 3745.4922,4.1675 3763.9243,4.0264 3782.29,3.8854 3800.1287,3.7527 3817.2522,3.6311 3833.6689,3.5104 3849.6646,3.4164 3865.4888,3.3464 3880.8821,3.3014 3895.564,3.2918 3909.5669,3.2724 3922.8704,3.2525 3935.5056,3.2197 3947.4844,3.1811 3958.8965,3.1412 3970.0784,3.0998 3981.0105,3.0635 3991.3691,3.0452 4001.1338,3.0461 4010.2322,3.0607 4018.7424,3.0595 4026.7078,3.0462 4034.3105,3.0343 4041.5249,3.0137 4048.6836,2.9828 4055.5476,2.9688 4062.3594,2.9878 4068.7773,3.0393 4075.0134,3.0947 4081.0745,3.1156 4086.8147,3.1305 4092.8416,3.1398 4098.9824,3.1168 4105.1763,3.1031 4111.3916,3.0881 4118.063,3.0969 4123.8442,3.0958 4129.4619,3.0971 4134.9668,3.0932 4140.4668,3.0855 4146.0522,3.0886 4151.7544,3.09 4157.5483,3.0912 4163.6743,3.0969 4170.1279,3.1202 4176.9517,3.1687 4184.3311,3.2351 4191.9478,3.2786 4199.9917,3.3164 4208.0942,3.3331 4215.8853,3.3278 4223.2695,3.3389 4229.8511,3.3579 4236.1133,3.3816 4242.1831,3.4128 4248.1562,3.4223 4254.0957,3.4084 4260.2217,3.3747 4266.6436,3.3476 4273.3892,3.3205 4280.5718,3.2937 4288.1152,3.2619 4296.0464,3.2288 4304.2827,3.1946 4312.7632,3.1568 4321.5186,3.1165 4330.5654,3.0765 4339.8643,3.0412 4349.4512,3.0064 4359.313,2.9869 4369.4136,2.982 4379.6978,2.965 4390.1836,2.9668 4400.8701,2.9918 4411.7627,3.0151 4422.8857,3.0727 4434.2285,3.131 4445.7607,3.1971 4457.4854,3.2768 4469.3979,3.363 4481.438,3.4431 4493.6309,3.5153 4505.9756,3.6001 4518.4712,3.6834 4531.1416,3.766 4543.9741,3.8447 4556.9609,3.921 4570.0869,3.9867 4583.3481,4.0535 4596.7646,4.1086 4610.3188,4.1562 4624.0142,4.2002 4637.8457,4.2385 4651.8066,4.269 4665.897,4.3028 4680.1094,4.3359 4694.4365,4.3635 4708.8296,4.4006 4723.3086,4.4335 4737.8945,4.4677 4752.5864,4.5066 4767.3804,4.5366 4782.2744,4.5727 4797.269,4.6108 4812.3589,4.653 4827.5415,4.7248 4842.8145,4.8223 4858.1753,4.9295 4873.6211,5.0466 4889.1519,5.1589 4904.7651,5.2691 4920.4614,5.3797 4936.2407,5.4904 4952.0952,5.6096 4968.0239,5.7197 4984.0254,5.8245 5000.0933,5.9432 5016.2324,6.0751 5032.4395,6.2183 5048.7139,6.3707 5065.0522,6.533 5081.4541,6.7182 5097.916,6.9015 5114.4321,7.0753 5130.9893,7.2332 5147.5513,7.3637 5164.1641,7.4555 5180.8271,7.5244 5197.5405,7.5561 5214.3057,7.5552 5231.1211,7.5247 5247.9883,7.4615 5264.9072,7.383 5281.8745,7.3062 5298.8838,7.2229 5315.9395,7.1461 5333.0435,7.057 5350.1987,6.9337 5367.4067,6.7787 5384.6636,6.5997 5401.9614,6.4207 5419.2969,6.2607 5436.6689,6.1343 5454.0796,6.0405 5471.5361,5.9844 5489.0405,5.96 5506.5854,5.9694 5524.1514,6.0104 5541.7378,6.0688 5559.3555,6.1232 5577.0117,6.1745 5594.7036,6.2277 5612.4194,6.2886 5630.168,6.3472 5647.9443,6.4491 5665.749,6.5642 5683.5771,6.6833 5701.4292,6.7742 5719.3062,6.8215 5737.2129,6.8317 5755.1494,6.8075 5773.1206,6.7612 5791.0649,6.7207 5808.8018,6.7117 5826.2041,6.7305 5842.9209,6.7916 5858.9072,6.8717 5874.1675,6.9574 5888.7314,7.046 5902.6118,7.1181 5915.7969,7.1904 5928.3042,7.263 5940.1313,7.3457 5951.2891,7.4554 5961.7881,7.5466 5971.6333,7.65 5980.8047,7.7689 5989.3066,7.8915 5997.249,7.9986 6004.6543,8.1081 6011.6978,8.2183 6018.0903,8.2907 6024.1475,8.3549 6029.7446,8.4483 6034.9502,8.5464 6039.9077,8.6134 6044.8706,8.664 6049.9199,8.7265 6055.0957,8.7829 6060.4253,8.8546 6065.9087,8.9142 6072.2656,8.9781 6077.0776,9.0713 6083.4297,9.1461 6088.6543,9.2248 6093.6084,9.2893 6098.2871,9.366 6102.7769,9.4367 6107.0479,9.5081 6111.6006,9.582 6116.2935,9.664 6121.0991,9.7509 6126.0103,9.8327 6131.0684,9.9211 6136.3135,10.0088 6141.7803,10.0849 6147.5049,10.1547 6153.7607,10.2176 6160.4771,10.283 6167.668,10.3535 6175.0928,10.426 6183.1655,10.539 6191.2954,10.6359 6199.7671,10.7168 6208.3735,10.8302 6217.0459,11.0257 6225.9863,11.2313 6235.0259,11.3401 6244.2041,11.4268 6253.5054,11.4855 6263.0493,11.5284 6272.8652,11.5793 6282.9287,11.6183 6293.2065,11.6471 6303.7627,11.6796 6314.5732,11.6888 6325.5845,11.6895 6336.7188,11.7026 6348.0293,11.6751 6359.5547,11.6429 6371.271,11.6008 6383.1421,11.5507 6395.1094,11.4945 6407.2085,11.4133 6419.4692,11.3495 6431.9458,11.2742 6444.6436,11.1948 6457.5098,11.1152 6470.4932,11.0314 6483.6543,10.9689 6496.9189,10.9235 6510.3379,10.9202 6523.8706,10.9345 6537.5142,10.9562 6551.2642,10.9768 6565.146,10.9886 6579.1675,10.9858 6593.3174,10.9839 6607.5908,10.9937 6621.9551,11.0226 6636.3765,11.0664 6650.9072,11.1262 6665.5474,11.1899 6680.2935,11.2584 6695.1348,11.3262 6710.0767,11.3916 6725.1089,11.4522 6740.2329,11.5141 6755.4478,11.5664 6770.7529,11.6158 6786.1475,11.67 6801.6328,11.7361 6817.2163,11.8199 6832.8848,11.9248 6848.6289,12.0748 6864.4399,12.2414 6880.3179,12.4312 6896.2798,12.6541 6912.3164,12.9017 6928.4155,13.1205 6944.5811,13.3676 6960.8115,13.6112 6977.105,13.841 6993.4678,14.0919 7009.8862,14.3563 7026.3589,14.6639 7042.8726,15.0252 7059.4023,15.4066 7075.9414,15.7951 7092.5273,16.1866 7109.1553,16.5231 7125.8398,16.8245 7142.5718,17.1156 7159.3354,17.3966 7176.1421,17.6245 7192.9937,17.8213 7209.9004,17.9287 7226.8545,18.0368 7243.8555,18.0963 7260.895,18.147 7277.9697,18.1427 7295.1035,18.1375 7312.2812,18.0687 7329.5054,17.9341 7346.769,17.7955 7364.0757,17.6147 7381.4219,17.4283 7398.8052,17.3126 7416.2354,17.261 7433.7051,17.2134 7450.9512,17.1831 7467.4834,17.2547 7483.2803,17.3518 7498.3584,17.4908 7512.7275,17.6496 7526.4365,17.8232 7539.7275,18.0409 7552.519,18.249 7564.6685,18.4045 7576.2544,18.5627 7587.2803,18.7145 7598.0815,18.8234 7608.7485,18.9603 7619.2686,19.1405 7629.6733,19.2874 7639.7637,19.438 7649.2241,19.5606 7658.061,19.6539 7666.2744,19.7619 7673.8945,19.8438 7680.9023,19.909 7687.3369,19.9755 7693.2261,20.0499 7698.7368,20.0988 7703.7974,20.131 7708.3818,20.1332 7712.4326,20.1317 7716.0327,20.1258 7719.3257,20.1172 7722.5229,20.1018 7725.5259,20.0808 7729.2251,20.0547 7733.6274,20.007 7738.3359,19.9442 7742.8755,19.8876 7746.2393,19.8314 7750.4263,19.7784 7754.2998,19.73 7758.0288,19.6769 7761.8271,19.6108 7765.8921,19.5308 7770.2373,19.4401 7774.8647,19.3368 7779.8042,19.2528 7785.0854,19.1723 7790.7661,19.1098 7796.792,19.0447 7803.1665,18.9673 7809.7964,18.9006 7816.6514,18.8283 7823.8013,18.7492 7831.2764,18.6424 7839.1104,18.5408 7847.2563,18.4571 7855.6138,18.3888 7864.2588,18.3188 7873.1924,18.248 7882.4224,18.1784 7891.9272,18.1287 7901.7017,18.0623 7911.7334,18.0271 7921.9536,17.9791 7932.3618,17.9688 7942.9985,17.9627 7953.8574,17.9342 7964.9312,17.9258 7976.2148,17.9014 7987.7017,17.8917 7999.3896,17.8752 8011.27,17.8775 8023.2964,17.8869 8035.4609,17.8973 8047.7964,17.9006 8060.2905,17.9266 8072.9419,17.9702 8085.7432,17.9867 8098.6958,18.0198 8111.8052,18.0573 8125.062,18.1191 8138.4629,18.1938 8152.0015,18.251 8165.6841,18.3327 8179.4985,18.4058 8193.4521,18.5065 8207.5234,18.616 8221.708,18.7346 8236.0059,18.8331 8250.3809,18.8904 8264.8389,18.9807 8279.4043,19.0777 8294.0713,19.1559 8308.8398,19.23 8323.71,19.2843 8338.6807,19.3784 8353.7441,19.4391 8368.9014,19.484 8384.1494,19.5017 8399.4854,19.5078 8414.8906,19.4718 8430.3916,19.3685 8445.9971,19.2225 8461.7031,19.0529 8477.5352,18.8521 8493.4551,18.6664 8509.4648,18.3658 8525.5391,18.0936 8541.6436,17.8526 8557.8164,17.6265 8574.0303,17.3308 8590.3252,17.0318 8606.707,16.7083 8623.1504,16.3971 8639.665,16.0958 8656.21,15.8616 8672.7793,15.6617 8689.4229,15.472 8706.1191,15.2734 8722.877,15.1223 8739.6729,15.0092 8756.5264,14.9151 8773.4316,14.7845 8790.3965,14.6678 8807.3906,14.5799 8824.415,14.5309 8841.4932,14.5328 8858.6191,14.5928 8875.8027,14.6273 8893.0566,14.7087 8910.3096,14.8378 8927.584,15.0053 8944.8896,15.1719 8962.2402,15.3117 8979.6465,15.4197 8997.0918,15.4818 9014.5752,15.4605 9032.0518,15.4094 9049.5664,15.3567 9067.1895,15.2764 9084.8438,15.2236 9102.501,15.0958 9120.1445,14.9346 9137.8066,14.7547 9155.5068,14.4794 9173.2549,14.1774 9191.0391,13.8114 9208.8535,13.4066 9226.7031,13.0698 9244.5898,12.8249 9262.5049,12.587 9280.4619,12.3067 9298.4453,12.0989 9316.4473,11.9162 9334.4873,11.752 9352.5576,11.6216 9370.6318,11.4834 9388.7285,11.3478 9406.8438,11.2179 9424.7803,11.091 9442.0713,10.8881 9458.626,10.6598 9474.4502,10.4017 9489.5635,10.1677 9503.9951,9.9388 9517.7676,9.6912 9530.9209,9.4697 9543.6221,9.2807 9555.873,9.0884 9567.5488,8.9285 9578.6426,8.7573 9589.3447,8.5971 9599.7754,8.4074 9610.0332,8.182 9620.1943,7.8993 9630.3086,7.5389 9640.4551,7.1868 9650.6875,6.9606 9660.9785,6.8317 9671.2842,6.7636 9681.5674,6.7289 9691.8193,6.7019 9702.1201,6.6181 9712.4131,6.5454 9722.8643,6.4768 9733.4854,6.4023 9744.1953,6.3607 9754.5186,6.3438 9764.2041,6.338 9773.252,6.3259 9781.6729,6.3173 9789.4629,6.3068 9796.7549,6.2602 9803.5957,6.1733 9810.0752,6.0536 9816.2451,5.9288 9822.6396,5.8125 9828.6348,5.7327 9834.4453,5.6828 9840.1729,5.6466 9845.8701,5.611 9851.6104,5.5948 9857.8223,5.6336 9863.8057,5.7197 9869.8545,5.8406 9876.0137,5.9463 9882.2852,6.0225 9888.7109,6.0587 9895.3086,6.0673 9902.0879,6.0127 9909.0615,5.9587 9916.1533,5.8889 9923.3916,5.8108 9930.7725,5.6981 9938.2832,5.541 9945.9648,5.4388 9953.9033,5.3281 9962.1025,5.2278 9970.5391,5.1582 9979.2559,5.0941 9988.2637,5.0438 9997.5547,4.9838 10007.1162,4.9261 10016.9453,4.8684 10027.0381,4.7967 10037.292,4.7067 10047.6982,4.6207 10058.0918,4.5539 10068.335,4.5017 10078.1846,4.4354 10087.4375,4.405 10096.0547,4.3942 10104.04,4.3705 10111.3896,4.3595 10118.1289,4.3784 10124.3848,4.3587 10130.1514,4.3424 10135.5225,4.3284 10140.5039,4.2855 10145.1338,4.2439 10149.6396,4.2033 10154.165,4.1891 10158.6025,4.1968 10162.8477,4.2135 10166.3496,4.2387 10170.3008,4.2733 10174.0928,4.3151 10177.8984,4.3463 10181.8848,4.3454 10186.0449,4.3321 10190.4512,4.3222 10195.2217,4.3056 10200.3906,4.2702 10205.9531,4.233 10211.9033,4.2082 10218.3389,4.2035 10225.0898,4.2216 10232.0869,4.2636 10239.4141,4.3173 10247.0654,4.3506 10255.043,4.3744 10263.2607,4.4038 10271.7441,4.4303 10280.5215,4.4658 10289.5898,4.496 10298.9268,4.535 10308.5381,4.5757 10318.4199,4.613 10328.5508,4.6455 10338.8271,4.669 10349.3213,4.698 10360.0352,4.7544 10370.9697,4.7871 10382.1104,4.831 10393.4609,4.8826 10405.0166,4.9048 10416.7725,4.9154 10428.7236,4.9188 10440.7842,4.9126 10453.0049,4.908 10465.3838,4.8785 10477.916,4.8611 10490.6133,4.8303 10503.4746,4.8293 10516.4941,4.8241 10529.665,4.8348 10542.9814,4.8304 10556.4385,4.8522 10570.0361,4.8713 10583.7695,4.9478 10597.6436,4.9738 10611.6475,5.0082 10625.7744,5.0968 10640.0195,5.1337 10654.3789,5.1117 10668.7949,5.075 10683.3242,5.0145 10697.9746,4.9289 10712.7344,4.8029 10727.6426,4.6567 10742.6924,4.4982 10757.8447,4.3118 10773.0762,4.1556 10788.4023,4.0541 10803.7656,3.9236 10819.1758,3.8048 10834.667,3.6713 10850.2539,3.5492 10865.9248,3.3749 10881.6758,3.2054 10897.5117,3.0455 10913.4316,2.8593 10929.4336,2.7062 10945.5176,2.5061 10961.6719,2.3412 10977.8994,2.1493 10994.2168,1.9593 11010.624,1.8104 11027.1123,1.7017 11043.6299,1.6358 11060.167,1.6 11076.7236,1.611 11093.3389,1.6156 11110.002,1.7204 11126.708,1.8351 11143.4141,1.9179 11160.0928,1.8466 11176.7256,1.7637 11193.3066,1.6369 11209.8086,1.5268 11226.251,1.4443 11242.6426,1.3884 11259.0254,1.3687 11275.3838,1.3706 11291.667,1.4399 11307.542,1.5266 11322.6523,1.6035 11337.1006,1.7562 11351.1143,1.9491 11364.6973,2.1083 11377.8877,2.2872 11390.6309,2.4847 11402.875,2.728 11414.6553,2.9667 11426.2998,3.1966 11437.7656,3.434 11449.1211,3.6631 11460.458,3.9077 11471.7246,4.1176 11482.875,4.3054 11493.9102,4.4553 11504.8057,4.6041 11515.5781,4.7159 11526.2373,4.8551 11536.7725,5.0131 11547.2129,5.1805 11557.6152,5.3521 11568.0938,5.5288 11578.6982,5.6736 11589.4365,5.8311 11600.2656,5.9713 11611.1797,6.096 11622.2129,6.2235 11633.292,6.3474 11644.5186,6.4473 11655.8926,6.5611 11667.4307,6.661 11679.1533,6.7488 11691.0566,6.8271 11703.1123,6.8857 11715.2168,6.9334 11727.335,6.9809 11739.3477,6.9995 11751.3115,6.994 11763.5283,6.9914 11775.5615,6.9688 11787.6172,6.9508 11799.208,6.9412 11810.6807,6.941 11822.1719,6.914 11833.5537,6.9068 11844.9395,6.8657 11856.4258,6.8095 11868.1436,6.7259 11880.0459,6.6084 11892.0742,6.4776 11904.1963,6.3216 11916.416,6.1226 11928.7031,5.9605 11941.041,5.7629 11953.6309,5.5399 11966.2695,5.3126 11979.0059,5.0656 11991.4678,4.8231 12003.9004,4.6308 12015.8955,4.3974 12027.6895,4.1695 12039.2959,3.9246 12050.8262,3.6691 12062.3994,3.3666 12074.0781,3.0428 12085.7725,2.7415 12097.6602,2.4503 12109.5576,2.1603 12121.3516,1.8206 12132.9648,1.4535 12144.3086,1.1416 12155.4873,0.8553 12166.4219,0.5468 12177.3223,0.2713 12187.9248,0.0387 12198.3691,-0.2069 12208.8193,-0.4363 12219.3604,-0.6283 12230.0225,-0.7658 12240.7793,-0.9029 12251.4951,-1.0365 12262.2412,-1.1124 12272.9219,-1.1742 12283.6055,-1.2446 12294.291,-1.2794 12304.9473,-1.2813 12315.623,-1.2772 12326.3545,-1.2435 12336.9814,-1.1798 12347.4199,-1.1048 12357.3809,-1.0172 12366.8506,-0.9318 12375.835,-0.8519 12384.5957,-0.7684 12393.3018,-0.6955 12401.8975,-0.6356 12410.6855,-0.5436 12419.6211,-0.4797 12428.7432,-0.42 12437.918,-0.3592 12446.75,-0.3043 12455.6709,-0.2666 12464.668,-0.2477 12473.7842,-0.2258 12482.9678,-0.2004 12492.2705,-0.1798 12501.8164,-0.1506 12511.6289,-0.1259 12521.7129,-0.0803 12532.0068,-0.0396 12542.5391,-0.0033 12553.2754,0.0457 12564.1982,0.1309 12575.334,0.2198 12586.7168,0.3092 12598.2676,0.3862 12609.9697,0.4625 12621.8828,0.5526 12633.9258,0.6339 12646.1309,0.695 12658.5508,0.7467 12671.3232,0.8216 12684.2139,0.9081 12697.3623,0.9882 12710.3018,1.0986 12723.3828,1.1908 12736.5791,1.3158 12749.9209,1.4106 12763.3809,1.5242 12776.8301,1.6316 12790.2148,1.6947 12803.6641,1.7448 12816.8516,1.7959 12829.8057,1.8386 12842.625,1.8805 12855.5059,1.9571 12868.5732,2.0095 12881.8145,2.065 12895.1846,2.1333 12908.7168,2.2023 12922.3545,2.2778 12936.1475,2.3565 12950.0596,2.4398 12964.0684,2.5424 12978.2158,2.6355 12992.4629,2.7165 13006.7764,2.8257 13021.1982,2.8913 13035.709,2.9766 13050.3145,3.0584 13065.042,3.147 13079.8799,3.2163 13094.7275,3.3093 13109.1357,3.3866 13122.8564,3.4697 13135.8945,3.5444 13148.2705,3.6377 13159.9678,3.706 13170.9902,3.7713 13181.3574,3.8372 13191.0391,3.9239 13200.0488,3.9919 13208.4775,4.0618 13216.3682,4.1243 13223.6113,4.1808 13230.2627,4.2558 13236.5479,4.3299 13242.585,4.3888 13248.5596,4.4412 13254.6602,4.4898 13260.7686,4.5176 13266.9131,4.5386 13272.1084,4.5433 13277.0977,4.5414 13282.2139,4.5309 13287.5664,4.5203 13293.084,4.5246 13298.7471,4.5608 13304.4346,4.588 13310.0234,4.5956 13315.5947,4.6342 13321.4395,4.6906 13327.1025,4.7506 13332.9492,4.8163 13339.0254,4.8593 13345.3564,4.8892 13351.9443,4.9202 13358.7627,4.9411 13365.6133,4.9476 13372.1631,4.9619 13378.0996,5.0092 13383.4434,5.0414 13388.2432,5.0827 13392.6445,5.1422 13396.7988,5.199 13400.7041,5.248 13404.9404,5.2925 13409.8682,5.3299 13415.2578,5.3321 13420.0977,5.3406 13423.9746,5.3437 13427.3936,5.3315 13430.6748,5.3094 13434.375,5.2966 13438.9023,5.3338 13443.6113,5.3715 13447.9307,5.3989 13451.6758,5.4469 13455.2178,5.5001 13459.123,5.5593 13463.3047,5.6075 13467.8525,5.6443 13472.7549,5.6706 13478.04,5.6914 13483.7314,5.7151 13489.8076,5.7458 13496.293,5.7787 13503.083,5.8185 13510.167,5.8565 13517.6318,5.9044 13525.4336,5.9556 13533.5459,6.0218 13541.8369,6.0826 13550.4033,6.1524 13559.2285,6.1987 13568.3242,6.2659 13577.6797,6.3499 13587.3613,6.4388 13597.3408,6.5248 13607.5557,6.6228 13617.9023,6.7138"/>
</svg>
