<?xml version="1.0" encoding="utf-8"?>
<!-- Track map generated with TinyPedal -->
<svg viewBox="-582.8492 -990.9487 1304.2513 2068.9045" version="1.1" xmlns="http://www.w3.org/2000/svg">
	<title>Circuit de Spa-Francorchamps</title>
	<!-- Sector coordinates index -->
	<desc>196,526</desc>
	<!-- Raw global coordinates -->
	<polyline id="map" fill="none" stroke="black" stroke-width="10" points="-237.5118,-745.1908 -242.7312,-753.2021 -248.5286,-762.2195 -254.3772,-771.3222 -260.2713,-780.5101 -266.2108,-789.7814 -272.1941,-799.1339 -278.2221,-808.5649 -284.3217,-818.0549 -290.4695,-827.6162 -296.7216,-837.2064 -303.1147,-846.8002 -309.5361,-856.4681 -315.9622,-866.207 -322.1297,-875.5804 -327.7991,-884.2408 -332.9738,-892.1903 -337.7131,-899.5145 -342.0276,-906.2148 -345.9506,-912.3398 -349.4608,-917.9615 -352.5159,-923.113 -355.1391,-927.8266 -357.2404,-932.2429 -358.8419,-936.6124 -360.0491,-941.0361 -360.8464,-945.3027 -361.1623,-949.3514 -361.0106,-953.1144 -360.3785,-956.5699 -359.3174,-959.6895 -357.8361,-962.4279 -355.908,-964.7946 -353.5408,-966.7783 -350.8054,-968.3525 -347.7888,-969.4806 -344.5166,-970.2568 -341.0044,-970.7567 -337.2549,-970.9487 -333.2832,-970.8029 -329.1186,-970.2886 -324.7727,-969.4197 -320.2113,-968.2922 -315.3543,-967.0052 -310.2318,-965.5253 -304.8405,-963.8976 -299.2672,-962.0816 -293.5344,-959.9481 -287.6898,-957.4532 -281.6306,-954.8107 -275.3976,-951.9733 -268.3307,-948.6666 -262.4146,-945.7764 -255.6711,-942.4813 -248.7832,-939.039 -241.7703,-935.3812 -234.6476,-931.4939 -227.4224,-927.3818 -220.052,-923.1323 -212.5457,-918.7441 -204.9368,-914.1729 -197.1849,-909.4951 -189.2976,-904.705 -181.3027,-899.7682 -173.2479,-894.6321 -165.1411,-889.3259 -156.1718,-883.2747 -148.7637,-878.1789 -140.4451,-872.3971 -132.0611,-866.4594 -122.7537,-859.7647 -115.1053,-854.1255 -106.5845,-847.6835 -98.0598,-841.038 -89.5358,-834.1955 -81.0487,-827.1187 -72.6569,-819.7581 -64.387,-812.098 -56.1896,-804.2043 -48.1225,-796.0295 -40.2557,-787.5267 -32.406,-778.8659 -24.5097,-770.1273 -16.5619,-761.3224 -8.5519,-752.4379 -0.4536,-743.5031 7.7259,-734.5117 15.9659,-725.45 24.267,-716.3196 32.6297,-707.1245 41.0545,-697.8661 49.5361,-688.5436 58.9213,-678.21 66.6534,-669.7039 75.2984,-660.2017 84.0015,-650.6492 93.641,-640.0861 101.6169,-631.4391 110.6531,-621.9055 119.912,-612.5005 129.6546,-603.5488 139.9403,-595.2042 150.747,-587.53 162.0869,-580.6624 173.7633,-574.337 185.2219,-567.6503 196.1389,-560.3486 206.1087,-552.4438 215.1193,-543.9991 223.3601,-534.991 230.8094,-525.477 237.5009,-515.5477 243.5057,-505.2876 248.8475,-494.7617 253.5603,-484.0137 257.7883,-473.1012 261.4465,-462.0424 264.6401,-450.8529 267.6503,-439.5933 270.7052,-428.3123 273.9859,-417.0627 277.8011,-405.9641 282.6444,-393.9663 287.5554,-383.213 292.2909,-373.6328 298.0452,-363.1993 304.1378,-352.8877 310.3581,-342.5816 316.7897,-332.3373 323.3498,-322.103 330.099,-311.9256 337.1415,-301.887 344.3592,-291.9047 351.5903,-281.8662 358.8471,-271.7801 366.1191,-261.6424 373.4098,-251.4552 380.7219,-241.2218 388.0527,-230.9428 395.4022,-220.618 402.7647,-210.2457 410.1298,-199.8176 417.48,-189.3245 424.5823,-178.62 431.3839,-167.6735 438.0291,-156.5877 444.2687,-145.2331 450.3476,-133.7457 456.2958,-122.1519 462.0617,-110.4262 467.6269,-98.571 473.0274,-86.6015 478.2434,-74.5186 483.0697,-62.2433 487.6722,-49.8455 492.1168,-37.3522 496.556,-24.8198 500.9323,-12.2297 505.3181,0.3928 509.713,13.0456 514.0051,25.765 518.1996,38.5491 522.4069,51.3608 526.6205,64.2012 531.2635,78.3579 535.0687,89.9655 539.3034,102.8881 543.5453,115.8365 547.7938,128.812 552.0466,141.8127 556.304,154.8392 560.5648,167.8911 564.8312,180.9666 569.1041,194.0642 573.384,207.1852 577.6672,220.3282 581.9543,233.4939 586.246,246.6811 590.5416,259.8896 594.8515,273.1157 599.173,286.3598 603.4982,299.6238 607.8275,312.908 612.1605,326.2118 616.4969,339.5342 620.8384,352.8751 625.2628,366.2066 629.7603,379.5321 634.2859,392.8662 638.83,406.2058 643.3219,419.5554 647.7835,432.9337 652.2497,446.3277 656.7141,459.7393 661.6227,474.5124 665.6375,486.6149 670.5255,501.377 674.4046,513.121 678.4543,525.4042 682.2199,536.8486 685.6963,547.4636 688.9033,557.3063 691.9316,566.6529 694.7302,575.4752 697.111,583.6823 699.0125,591.3604 700.3578,598.7025 701.1223,605.9002 701.4021,612.8867 701.1866,619.728 700.3368,626.3701 698.8882,632.7542 696.9631,638.8356 694.5622,644.6901 691.7648,650.2199 688.6534,655.3564 685.1324,660.1716 681.2138,664.832 676.4451,669.8512 672.302,673.996 667.7418,678.9019 663.5333,684.1517 659.8785,689.4758 656.8055,694.7406 654.338,699.949 652.4734,705.2413 651.2133,710.6228 650.5164,716.1113 650.3466,721.7264 650.6677,727.4754 651.3542,733.4115 652.4626,739.4757 654.0316,745.6144 656.0621,751.8 658.6617,758.7391 660.9662,764.5588 663.6072,771.2078 666.2906,778.0469 668.6521,784.8049 670.4374,791.4065 671.7203,798.021 672.6711,804.6644 673.2077,811.4275 673.3994,818.3217 673.0602,825.2485 672.1376,832.1589 670.6206,838.985 668.6116,845.7064 666.161,852.3167 663.2339,858.7645 659.7864,865.0401 655.7488,871.1451 651.2169,877.0107 646.1974,882.6876 640.808,888.2832 635.0057,893.6991 628.8696,899.019 622.4294,904.2501 615.6978,909.3947 608.7888,914.5929 601.7366,919.8807 594.5367,925.2449 587.1388,930.6061 579.5995,936.0317 571.9394,941.5543 564.1759,947.1891 556.348,952.9423 548.4167,958.7796 540.3991,964.7396 532.2729,970.7867 524.0483,976.9279 515.7516,983.1937 507.3494,989.5364 498.8419,995.951 490.2287,1002.4334 481.5109,1008.9813 472.6955,1015.5872 464.1605,1021.9695 456.1956,1027.8938 448.7847,1033.3422 441.8208,1038.2878 435.1547,1042.6498 428.5157,1046.3817 421.9961,1049.5237 415.686,1052.1375 409.6013,1054.4 403.7185,1056.187 398.0226,1057.3652 392.5041,1057.9558 386.6075,1057.9458 381.9552,1057.4166 376.9479,1056.2802 372.1156,1054.5768 367.4812,1052.3359 363.078,1049.6074 358.9545,1046.5024 355.2417,1043.1293 352.0327,1039.4984 349.3409,1035.6188 347.0948,1031.4137 345.2662,1026.863 343.8697,1022.0259 342.9585,1016.995 342.5242,1011.8256 342.5733,1006.5328 343.1374,1001.1531 344.3922,995.2166 345.9206,990.381 348.1698,985.0729 350.9792,979.8738 354.3379,974.8641 358.2202,970.0649 362.6064,965.5253 367.4539,961.2577 372.7018,957.2607 378.3257,953.4918 384.3291,949.9703 390.6829,946.6818 397.3442,943.4905 404.2107,940.2769 411.265,936.9714 418.4986,933.5507 425.769,929.7887 432.8239,925.6748 439.3369,921.718 445.2719,917.8216 450.7205,913.5832 455.832,908.9387 460.6221,904.0906 464.9936,899.1916 468.9783,894.1476 472.5717,888.9105 475.6749,883.405 478.2495,877.6074 480.3301,871.4757 481.8587,865.0825 482.7856,858.5197 483.1155,851.7789 482.8549,844.9002 481.9892,837.9458 480.5401,830.9641 478.5636,823.9406 476.249,816.7906 473.6072,809.5258 470.8132,802.0897 467.9525,794.457 465.0282,786.634 462.0471,778.6243 459.0104,770.4327 455.8773,762.0823 452.6714,753.5694 449.3643,744.9101 445.9701,736.1051 442.5329,727.1643 439.0636,718.0817 435.6302,708.8202 432.228,699.3857 428.9587,689.7508 425.8741,679.9106 423.0985,669.8365 420.4458,659.5873 417.9171,649.1691 415.4092,638.611 412.9163,627.9147 410.3766,617.1003 407.6696,606.2014 404.9273,595.1893 402.3211,584.0269 399.7912,572.7305 397.3135,561.3093 394.8238,549.7985 392.0929,537.0213 389.9187,526.4573 387.4854,514.6219 385.0231,502.689 382.5401,490.6605 380.0293,478.5366 377.4889,466.3322 374.5468,453.1409 371.7773,442.7838 368.3155,431.7706 364.6053,421.2526 360.4488,411.3126 355.903,401.9917 351.0076,393.3195 345.7944,385.3152 340.2878,377.928 334.3366,371.0677 327.9579,364.7615 321.1911,359.0379 314.117,353.9368 306.7273,349.4201 298.944,345.4174 290.7975,341.9147 282.3131,338.9361 273.5503,336.5132 264.6366,334.618 255.5529,333.2375 246.3698,332.3773 237.1178,332.0098 227.7722,332.1712 218.3569,332.868 208.9057,334.1524 199.4281,336.0143 189.9617,338.4442 180.5638,341.5057 171.2521,345.1812 162.0439,349.4378 152.9883,354.2827 144.0852,359.6632 135.351,365.541 126.8232,371.9194 118.5323,378.7897 110.5119,386.1435 102.7869,393.9617 95.4263,402.2551 88.5347,411.0509 82.1407,420.3213 76.2622,430.0206 70.9586,440.1296 66.2052,450.597 61.9137,461.3387 58.0945,472.3174 54.6557,483.5134 51.2736,494.827 47.8395,506.221 44.3857,517.7031 40.904,529.2673 37.397,540.9111 33.8628,552.6298 30.3233,564.4268 26.8044,576.3073 23.3588,588.2822 20.0918,600.3766 16.6614,612.4902 12.8957,624.5672 8.9031,636.6331 4.6855,648.684 0.3058,660.7369 -4.0325,672.6255 -8.1201,683.76 -11.9886,694.1296 -15.6467,703.7011 -19.1814,712.517 -22.8938,720.6461 -26.9228,728.1679 -31.0815,735.0479 -35.4087,741.2853 -40.0542,746.9288 -44.9205,752.0878 -50.0495,756.7195 -55.5009,760.8182 -61.2713,764.4128 -67.2985,767.564 -73.5522,770.2824 -79.9551,772.495 -86.3889,774.1176 -92.8438,775.085 -99.3959,775.4658 -106.023,775.2863 -112.6572,774.5441 -119.2343,773.2426 -125.7166,771.4177 -132.0708,769.0883 -138.3086,766.2671 -144.5102,763.023 -150.8596,759.633 -157.2927,756.355 -163.782,753.5609 -170.3011,751.3572 -176.8102,749.7651 -183.3003,748.7896 -189.7782,748.4171 -196.3092,748.6121 -202.9246,749.3566 -209.583,750.6558 -216.2382,752.5109 -222.842,754.926 -229.3542,757.9033 -235.7612,761.421 -242.0161,765.4769 -248.1299,770.0374 -254.0464,775.1061 -259.7072,780.6809 -265.0591,786.7486 -270.1066,793.2573 -274.8347,800.1642 -279.2171,807.4473 -283.4886,814.9901 -287.7944,822.7018 -292.0594,830.618 -296.3331,838.7059 -300.8675,847.8798 -304.5855,855.5328 -308.7316,864.1827 -312.8598,872.9723 -317.055,881.8696 -321.9126,891.7111 -326.0573,899.81 -330.7231,908.6112 -335.0908,916.7859 -339.1662,924.3175 -343.1362,931.2006 -347.2049,937.4373 -351.4786,943.0858 -355.9917,948.1517 -360.7747,952.6746 -365.8151,956.7107 -371.0072,960.2479 -376.2668,963.1863 -381.6385,965.4919 -387.158,967.1763 -392.8592,968.2934 -398.7529,968.8719 -404.8086,968.913 -410.9691,968.3847 -417.1933,967.2719 -423.4512,965.5928 -429.69,963.3594 -435.9097,960.6151 -442.108,957.4024 -448.4399,953.96 -454.8924,950.3015 -461.4002,946.4032 -468.0317,942.3162 -474.7764,938.0423 -481.5898,933.5302 -488.4851,928.813 -496.1627,923.4028 -502.5491,918.8602 -509.7535,913.6975 -516.8964,908.2214 -523.6591,902.2516 -529.9528,895.8179 -535.8387,888.925 -541.2419,881.5973 -546.0582,873.9123 -550.2781,865.9514 -553.9109,857.7112 -556.9469,849.2302 -559.3704,840.5028 -561.1797,831.5527 -562.3349,822.4292 -562.8492,813.1683 -562.7339,803.8051 -562.0013,794.3751 -560.6763,784.9301 -558.7058,774.4857 -556.8839,765.8717 -554.6453,756.2366 -551.9779,746.6032 -548.8143,737.0159 -545.3198,727.4282 -541.414,717.8972 -537.2068,708.3815 -532.6943,698.9049 -527.7482,689.5418 -522.5416,680.2097 -517.1742,670.8619 -511.5495,661.5596 -505.7574,652.2562 -498.8417,642.288 -492.8576,634.2729 -485.936,625.4828 -478.8405,616.725 -471.5108,608.0612 -463.7786,599.6649 -455.7154,591.4805 -447.5744,583.2638 -439.3743,574.9979 -431.1169,566.6853 -422.7673,558.3762 -414.2173,550.2055 -405.4662,542.1492 -396.5541,534.1665 -387.4471,526.3098 -378.1718,518.5486 -368.7897,510.8169 -359.0505,503.4696 -348.9643,496.5109 -338.5386,489.9844 -327.8267,483.8244 -316.9137,477.9008 -305.9268,471.9851 -294.8842,466.0464 -283.8003,460.0618 -272.787,453.8409 -261.7806,447.4956 -250.73,441.1169 -239.6398,434.7007 -228.5066,428.2523 -217.3342,421.7689 -206.1265,415.2457 -194.9474,408.581 -183.9901,401.4937 -173.3135,393.9242 -162.6994,386.1846 -152.1679,378.262 -141.9188,369.9272 -132.0317,361.1201 -122.3245,352.0545 -112.9525,342.6093 -104.064,332.6848 -95.5245,322.4117 -87.4227,311.7606 -79.8092,300.7229 -72.6442,289.3571 -65.8996,277.7038 -59.2926,265.9311 -52.7732,254.0728 -46.5451,242.0263 -40.6848,229.7727 -35.2634,217.2901 -29.9109,204.7418 -24.5507,192.1624 -19.1858,179.5506 -14.0792,166.8112 -9.6233,153.85 -5.6887,140.7063 -2.1918,127.4162 0.5621,113.9671 2.4975,100.4072 3.621,86.8683 3.9058,73.3818 3.6024,59.9109 2.7301,46.4557 1.0986,33.0779 -1.3039,19.8308 -4.2961,6.6773 -7.7281,-6.3862 -12.182,-20.5626 -16.3663,-31.9814 -21.3457,-44.5838 -26.6002,-57.1053 -32.3294,-69.4443 -38.1509,-81.7846 -44.1636,-94.0704 -50.4449,-106.2617 -56.665,-118.5227 -62.4668,-131.011 -67.8965,-143.6932 -73.2444,-157.9134 -77.4771,-169.6324 -82.1795,-182.6851 -86.7869,-195.7993 -91.2195,-208.9996 -95.5234,-222.2676 -100.0371,-236.9567 -103.4324,-249.0762 -106.7563,-262.6734 -109.867,-276.34 -112.6226,-290.0973 -115.1636,-303.9153 -117.4186,-317.7896 -119.4486,-331.5101 -121.3772,-344.5971 -123.1675,-356.816 -124.8066,-368.1788 -126.2975,-378.7093 -127.6453,-388.4315 -128.8426,-397.4181 -129.689,-405.7419 -130.1238,-413.5115 -130.3572,-420.626 -130.3884,-427.1011 -130.0925,-433.0531 -129.4365,-438.494 -128.4293,-443.3942 -127.1117,-447.7831 -125.4682,-451.5863 -123.4921,-454.7328 -121.2483,-457.3255 -118.8243,-459.4497 -116.2522,-461.0945 -113.575,-462.2556 -110.8074,-462.935 -107.8471,-463.278 -104.6587,-463.3477 -101.2064,-463.3632 -97.4741,-463.4164 -93.6195,-463.6654 -90.0362,-464.2994 -86.8515,-465.3763 -84.0297,-466.7354 -81.3601,-468.205 -78.965,-469.9666 -76.9925,-472.0709 -75.3848,-474.691 -74.5502,-476.9999 -74.1395,-479.6587 -74.1827,-482.4269 -74.4045,-485.4376 -74.6806,-488.7151 -75.1567,-492.6057 -75.7704,-495.9699 -76.6696,-499.8983 -77.9178,-503.942 -79.4122,-508.1556 -81.1712,-512.5342 -83.1476,-517.1415 -85.4485,-521.8458 -88.0225,-526.6351 -90.8413,-531.5307 -93.9152,-536.4874 -97.2232,-541.5927 -100.7286,-546.855 -104.418,-552.267 -108.2966,-557.811 -112.3031,-563.5242 -116.4161,-569.4136 -120.6377,-575.4692 -124.9599,-581.6623 -129.3812,-587.9889 -134.3691,-595.1172 -138.5446,-601.0764 -143.2805,-607.8279 -148.1164,-614.7112 -153.0476,-621.7242 -158.0716,-628.8629 -163.1861,-636.1226 -168.3871,-643.501 -173.6722,-650.9951 -179.0399,-658.6006 -184.4869,-666.3154 -190.0113,-674.1357 -195.6029,-682.0468 -201.2549,-690.042 -206.9137,-698.1806 -212.5679,-706.4673 -218.2348,-714.8855 -223.9148,-723.4312 -229.6363,-732.0818"/>
	<!-- Raw distance reference points -->
	<polyline id="dist" fill="none" stroke="none" stroke-width="0" points="9.1157,22.3101 19.755,22.5016 30.4988,22.7176 41.3284,22.9244 52.231,23.1569 63.2292,23.3663 74.3381,23.5949 85.5354,23.8145 96.8204,24.036 108.1953,24.2646 119.645,24.5245 131.1648,24.7771 142.7573,25.0801 154.4306,25.4759 165.666,25.896 176.0331,26.3217 185.5327,26.7477 194.267,27.1359 202.2147,27.5087 209.4426,27.846 216.0688,28.132 222.0611,28.372 227.4527,28.5589 232.3171,28.7033 236.8798,28.8071 241.2729,28.8665 245.3519,28.896 249.0825,28.886 252.7131,28.836 256.6476,28.7587 261.1405,28.6509 266.011,28.5314 271.2787,28.4416 276.9315,28.412 282.4047,28.4146 287.3257,28.4051 291.5964,28.3609 295.1356,28.2685 298.4837,28.1437 302.1553,27.9939 306.1533,27.8171 310.4761,27.6128 315.0999,27.3781 320.0439,27.1218 325.3151,26.8339 330.9002,26.5261 336.7333,26.1977 342.8584,25.8457 349.245,25.4686 355.8608,25.0708 362.7179,24.6601 369.7964,24.1839 377.1021,23.772 384.6022,23.2992 392.3068,22.8103 400.2128,22.2752 408.3224,21.7255 416.6002,21.161 425.0545,20.5865 433.7198,19.9964 442.5589,19.3827 451.5908,18.7551 460.7818,18.1453 470.1314,17.5623 479.6575,16.9212 489.3273,16.2927 499.1564,15.5591 509.1401,14.9849 519.2856,14.342 529.5792,13.6883 540.0173,13.0198 550.5921,12.4968 561.3038,11.9126 572.1542,11.3509 583.1313,10.7805 594.2234,10.2549 605.4133,9.7235 616.721,9.1977 628.1393,8.6478 639.674,8.1024 651.2944,7.528 663.0197,6.9345 674.8217,6.3341 686.6868,5.7206 698.6566,5.1177 710.7442,4.4931 722.9208,3.8795 735.1857,3.2471 747.5384,2.6179 759.9773,1.979 772.5069,1.3633 785.1289,0.7593 797.8212,0.1005 810.5957,-0.3969 823.4622,-0.9499 836.4005,-1.4809 849.4044,-2.0535 862.4824,-2.5164 875.6213,-3.0553 888.8181,-3.5997 902.01,-4.1083 915.2078,-4.544 928.5198,-4.8487 941.7942,-4.9158 955.0864,-4.7066 968.3717,-4.2049 981.4915,-3.3875 994.1158,-2.2041 1006.3698,-0.7782 1018.576,0.7925 1030.7639,2.5594 1042.9327,4.4078 1055.1229,6.2408 1067.124,8.0873 1079.0096,9.8818 1090.8231,11.5115 1102.5519,13.0786 1114.226,14.4694 1125.9257,15.6444 1137.679,16.6691 1149.5992,17.62 1161.4801,18.501 1173.3744,19.3469 1185.377,19.9935 1197.1919,20.534 1209.0851,21.1133 1221.0509,21.6666 1233.0685,22.2245 1245.1354,22.7713 1257.2728,23.2864 1269.4908,23.8167 1281.7765,24.355 1294.106,24.8856 1306.491,25.4479 1318.9312,26.0024 1331.415,26.5781 1343.9509,27.1473 1356.5366,27.7076 1369.1737,28.2866 1381.8629,28.8568 1394.6086,29.4343 1407.4059,29.9912 1420.2643,30.5507 1433.139,31.1 1446.0662,31.63 1459.0435,32.1961 1472.1237,32.7627 1485.2465,33.3465 1498.3885,33.991 1511.5458,34.6413 1524.6324,35.3504 1537.7522,36.0515 1550.8965,36.7397 1564.0626,37.3769 1577.2281,37.9757 1590.4856,38.5439 1603.8038,39.1111 1617.1489,39.6858 1630.5435,40.2604 1643.9856,40.8592 1657.4341,41.464 1670.8804,42.0671 1684.3634,42.6785 1697.8994,43.293 1711.4818,43.9744 1725.0835,44.5302 1738.7009,45.1493 1752.3424,45.7761 1766.0044,46.3787 1779.6992,47.0035 1793.4125,47.6205 1807.1456,48.2357 1820.9141,48.8626 1834.7052,49.505 1848.522,50.126 1862.3649,50.7662 1876.2229,51.401 1890.1003,52.0379 1903.9996,52.6734 1917.9253,53.3101 1931.8715,53.9467 1945.8364,54.5878 1959.8231,55.2175 1973.833,55.8451 1987.8632,56.4834 2001.9032,57.1145 2015.9639,57.7567 2030.0472,58.4008 2044.1449,59.0474 2058.2488,59.7026 2072.3433,60.3592 2086.4551,61.007 2100.5859,61.6668 2114.7385,62.3321 2128.9084,63.0593 2143.0886,63.6562 2157.2434,64.383 2171.0256,64.9568 2183.9692,65.5457 2196.0303,66.1008 2207.2258,66.6209 2217.5925,67.0956 2227.4233,67.52 2236.6824,67.9254 2245.2146,68.2859 2253.0972,68.6042 2260.4834,68.8856 2267.6299,69.1429 2274.6338,69.3955 2281.5759,69.6414 2288.4646,69.8965 2295.6606,70.1759 2302.374,70.4399 2309.446,70.7276 2315.9346,71.0193 2322.1353,71.2692 2328.2156,71.5229 2334.2837,71.7355 2340.4412,71.9532 2346.9138,72.1073 2353.6677,72.253 2361.0212,72.4013 2367.9458,72.5654 2375.0352,72.705 2381.1697,72.8408 2387.0591,72.9898 2392.8542,73.1404 2398.6152,73.2819 2404.6316,73.4188 2410.5037,73.5572 2416.4978,73.689 2422.6667,73.8016 2429.0081,73.8988 2435.532,73.9856 2442.2485,74.0674 2449.187,74.1408 2456.3284,74.2228 2463.6667,74.3093 2470.8303,74.3923 2477.6523,74.4419 2484.3105,74.4677 2490.9294,74.4672 2497.583,74.4301 2504.4639,74.3658 2511.5615,74.2869 2518.7524,74.2172 2526.1238,74.1832 2533.3467,74.1509 2540.9375,74.0863 2548.2229,74.0074 2555.6011,73.9344 2562.8843,73.9358 2570.1821,73.9069 2577.6658,73.869 2585.3147,73.8085 2593.1824,73.7082 2601.2495,73.5745 2609.5422,73.4143 2618.0239,73.2162 2626.6846,72.9956 2635.4956,72.7646 2644.4583,72.5116 2653.5857,72.24 2662.8657,71.9294 2672.312,71.6112 2681.9099,71.2632 2691.6265,70.8986 2701.4749,70.5068 2711.4668,70.1078 2721.6052,69.7008 2731.8828,69.2625 2742.2937,68.7948 2752.8357,68.3106 2763.5005,67.7932 2774.272,67.2499 2785.1809,66.6851 2796.2063,66.0995 2806.8879,65.4983 2816.8716,64.9134 2826.0977,64.3591 2834.6313,63.8095 2842.585,63.2705 2850.1365,62.7172 2857.2849,62.1656 2864.0437,61.6371 2870.7422,61.1525 2877.1941,60.6869 2883.3567,60.2545 2889.3845,59.8366 2894.9175,59.3872 2900.3118,59.0327 2905.6631,58.6441 2910.9805,58.2594 2916.2898,57.8719 2921.6392,57.479 2927.0066,57.0947 2932.2798,56.7348 2937.4146,56.3853 2942.417,56.0386 2947.4431,55.6847 2952.5725,55.3281 2957.7917,54.9529 2963.0415,54.5729 2968.3135,54.1982 2973.6448,53.8249 2979.054,53.4364 2984.4895,53.0043 2990.0454,52.6532 2995.7075,52.2785 3001.4629,51.9088 3007.2881,51.5524 3013.2129,51.1866 3019.2319,50.8076 3025.2942,50.3833 3031.9155,49.9018 3038.7314,49.3984 3045.6885,48.8804 3052.8201,48.3312 3060.1592,47.7848 3067.6824,47.2462 3075.4128,46.7082 3083.3525,46.1747 3091.5002,45.6227 3099.6599,45.0753 3107.28,44.5893 3114.3809,44.113 3121.2793,43.6367 3128.1418,43.1311 3134.874,42.6233 3141.3701,42.0961 3147.812,41.576 3154.7415,41.0597 3161.5356,40.5576 3168.4326,40.0715 3175.7869,39.585 3182.6472,39.121 3189.5,38.676 3196.157,38.2527 3202.8933,37.8345 3209.7563,37.4206 3216.79,36.9759 3224.0168,36.4805 3231.5068,35.9457 3239.2971,35.3911 3247.2568,34.8035 3255.3843,34.2 3263.7461,33.5781 3272.2979,32.9356 3281.053,32.2904 3290.0125,31.6332 3299.1355,30.9722 3308.4211,30.3086 3317.885,29.6383 3327.5088,28.9795 3337.2893,28.315 3347.2476,27.6329 3357.3564,26.9463 3367.6069,26.2344 3378.0027,25.496 3388.5354,24.7589 3399.1853,24.0169 3409.9321,23.2548 3420.8098,22.4697 3431.8179,21.7097 3442.9573,20.9494 3454.2349,20.1973 3465.6187,19.4339 3477.1177,18.6521 3488.7344,17.8652 3500.4666,17.0597 3512.2766,16.2272 3524.1746,15.315 3536.1755,14.5626 3548.282,13.733 3560.4927,12.8962 3572.8113,12.031 3585.23,11.1851 3597.7175,10.3186 3610.0188,9.3852 3621.9524,8.6127 3633.4971,7.7706 3644.6396,6.9347 3655.448,6.1288 3665.9653,5.3415 3676.1936,4.6021 3685.9751,3.9119 3695.5081,3.2373 3704.8921,2.5844 3713.967,1.9525 3722.9785,1.344 3731.7075,0.7583 3740.3235,0.1737 3749.0146,-0.3975 3757.7014,-0.9656 3766.4595,-1.5329 3775.2512,-2.0978 3784.1553,-2.6862 3793.0972,-3.2917 3802.1985,-3.917 3811.291,-4.5714 3820.5579,-5.2185 3829.8914,-5.8895 3839.269,-6.5631 3848.7849,-7.2285 3858.2881,-7.9133 3867.9514,-8.5971 3877.8328,-9.278 3887.9509,-9.9333 3898.26,-10.582 3908.7236,-11.1978 3919.3606,-11.8017 3930.0869,-12.3868 3940.8931,-12.9403 3951.822,-13.4561 3962.8384,-13.9376 3973.9294,-14.3961 3985.0217,-14.822 3996.1187,-15.2136 4007.2991,-15.5836 4018.5691,-15.912 4029.9194,-16.2215 4041.3984,-16.5863 4053.0125,-16.9221 4064.6741,-17.2828 4076.46,-17.5992 4088.3811,-17.8833 4100.3584,-18.1472 4112.4204,-18.3743 4124.5894,-18.5296 4136.8452,-18.6539 4149.1533,-18.7502 4161.522,-18.827 4173.9619,-18.8836 4186.458,-18.8857 4199.0107,-18.8444 4211.6538,-18.78 4224.3916,-18.7019 4237.1655,-18.6321 4249.9785,-18.4714 4262.6309,-18.3344 4274.4678,-18.1785 4285.5234,-18.062 4295.7715,-17.9584 4305.2485,-17.8808 4314.1353,-17.838 4322.624,-17.8159 4330.6484,-17.7936 4338.2485,-17.7729 4345.6255,-17.7314 4352.7651,-17.6618 4359.8257,-17.5977 4366.7739,-17.548 4373.7407,-17.4873 4381.002,-17.4204 4388.1089,-17.3527 4395.3848,-17.2938 4402.1738,-17.2451 4408.8247,-17.1845 4415.5825,-17.134 4422.2837,-17.091 4429.0288,-17.0384 4435.8843,-16.9736 4442.7173,-16.9167 4449.6938,-16.8619 4456.606,-16.8302 4463.6245,-16.8135 4470.8052,-16.7923 4478.0142,-16.7848 4485.0557,-16.7952 4491.9248,-16.8158 4498.6245,-16.8472 4505.3813,-16.8857 4512.084,-16.9346 4518.876,-16.9928 4525.9414,-17.0508 4532.9814,-17.1063 4540.5464,-17.1647 4547.814,-17.2242 4555.3335,-17.2834 4562.7256,-17.352 4570.2607,-17.415 4577.9092,-17.4682 4585.6865,-17.5053 4593.5542,-17.5308 4601.4585,-17.5426 4609.5303,-17.6008 4617.8457,-17.7317 4626.3418,-17.8804 4635.0117,-18.0216 4643.8452,-18.1801 4652.8374,-18.3446 4661.9839,-18.5237 4671.2739,-18.7665 4680.7031,-18.9701 4690.2705,-19.176 4699.9492,-19.3871 4709.7524,-19.5984 4719.7002,-19.8392 4729.7886,-20.0452 4739.7427,-20.2787 4749.0054,-20.492 4757.5654,-20.7048 4765.5103,-20.9341 4772.9424,-21.1741 4779.9175,-21.4325 4786.5991,-21.694 4793.0933,-21.9601 4799.6401,-22.2225 4806.0859,-22.477 4812.313,-22.7222 4818.3442,-22.9595 4824.4595,-23.1849 4830.4824,-23.41 4836.6367,-23.6291 4842.9009,-23.8494 4849.3301,-24.0679 4855.6465,-24.2736 4862.0361,-24.4702 4868.5493,-24.6733 4875.1978,-24.8991 4882.0967,-25.1453 4889.2349,-25.3946 4896.6357,-25.6315 4904.209,-25.8489 4911.9917,-26.0505 4919.9702,-26.2646 4928.146,-26.481 4936.5098,-26.6609 4945.0532,-26.8394 4953.7651,-26.9829 4962.623,-27.1516 4971.5591,-27.32 4980.4053,-27.4596 4989.1528,-27.5953 4998.0913,-27.7119 5007.125,-27.79 5016.2173,-27.8211 5025.3379,-27.8271 5034.5088,-27.8091 5043.6138,-27.7737 5052.8799,-27.6963 5062.2119,-27.5883 5071.5801,-27.4317 5081.0151,-27.2436 5090.5283,-27.0346 5100.0396,-26.8088 5109.5225,-26.539 5119.1118,-26.2093 5128.8179,-25.9278 5138.5913,-25.6128 5148.4814,-25.2972 5158.5356,-24.9868 5168.6743,-24.7 5178.8745,-24.4246 5189.1826,-24.0975 5199.6323,-23.7484 5210.1064,-23.4332 5220.6738,-23.0979 5231.2974,-22.7407 5241.9922,-22.4018 5252.8496,-22.0845 5263.8047,-21.7255 5274.8159,-21.4083 5285.9312,-21.0355 5297.1377,-20.6592 5308.4341,-20.2933 5319.8003,-19.9256 5331.2295,-19.5788 5342.751,-19.2166 5354.3667,-18.8716 5366.0825,-18.5057 5377.8618,-18.1567 5389.6831,-17.8021 5401.5605,-17.4591 5413.521,-17.1258 5425.5903,-16.7857 5437.7432,-16.4361 5450.0376,-16.1068 5462.2969,-15.762 5474.626,-15.4719 5486.9814,-15.2152 5499.4058,-14.9356 5511.8481,-14.6584 5524.3491,-14.3825 5536.8799,-14.1097 5549.46,-13.8351 5562.1074,-13.5434 5574.8076,-13.2498 5587.5776,-12.9682 5600.3926,-12.6688 5613.2446,-12.3977 5626.1548,-12.1209 5639.1128,-11.8402 5652.124,-11.5635 5665.1587,-11.3073 5678.1973,-11.0586 5691.2944,-10.8232 5704.4795,-10.553 5717.7061,-10.282 5730.979,-10.0269 5744.3262,-9.7428 5757.6919,-9.4438 5771.1187,-9.1463 5784.5869,-8.8443 5798.0166,-8.53 5811.4717,-8.201 5824.916,-7.8521 5838.3779,-7.4919 5851.8569,-7.1029 5865.3423,-6.6939 5878.8521,-6.2628 5892.3545,-5.8372 5905.9375,-5.4444 5919.5869,-5.0392 5933.2671,-4.6376 5946.9565,-4.2268 5960.6631,-3.8522 5974.3442,-3.4593 5988.021,-3.1714 6001.6846,-2.9257 6015.2573,-2.6831 6028.8779,-2.4338 6042.9009,-2.1464 6056.9399,-1.7567 6070.9526,-1.4368 6084.6455,-1.0988 6098.2148,-0.6892 6111.791,-0.3074 6125.1343,0.0779 6138.4341,0.4077 6152.0303,0.6278 6165.4448,0.7626 6178.9746,0.8992 6192.5669,1.0193 6206.1982,1.1506 6219.8315,1.2304 6233.4912,1.3882 6247.1826,1.5523 6260.8989,1.7765 6274.666,2.0203 6288.4888,2.2855 6302.3052,2.5975 6316.2056,2.8579 6330.1484,3.1681 6344.1914,3.5582 6358.2427,3.9817 6372.3076,4.4433 6386.3467,5.0052 6400.3354,5.4765 6414.3281,6.0009 6428.3213,6.5054 6442.3384,7.0504 6456.373,7.5865 6470.4238,8.1221 6484.2939,8.6334 6497.5054,9.147 6509.8677,9.6113 6521.335,10.0461 6531.9751,10.4432 6541.8179,10.8121 6550.9292,11.1269 6559.2935,11.418 6567.0474,11.661 6574.1245,11.8773 6580.5435,12.0672 6586.4072,12.2112 6591.7729,12.3303 6596.8149,12.441 6601.8931,12.5254 6606.9106,12.6437 6611.6343,12.849 6615.0566,13.0876 6619.1201,13.2785 6622.6665,13.4269 6625.5239,13.5441 6628.4771,13.6549 6631.4424,13.7615 6634.6235,13.8746 6638.0503,13.9881 6641.7896,14.103 6645.6196,14.209 6649.4116,14.2769 6653.207,14.3371 6656.9902,14.424 6660.0376,14.535 6663.7764,14.6754 6667.5225,14.8174 6671.2095,14.9559 6673.9365,15.0605 6677.3853,15.1689 6680.1523,15.2816 6683.8354,15.4325 6687.584,15.5989 6691.0928,15.78 6694.6362,15.9361 6698.4316,16.1263 6702.4907,16.3068 6706.8149,16.4694 6711.4375,16.6304 6716.4009,16.7909 6721.6191,16.9478 6727.0259,17.1027 6732.6567,17.2616 6738.4883,17.4249 6744.5796,17.5793 6750.9351,17.7379 6757.4971,17.8986 6764.2778,18.0625 6771.2876,18.213 6778.4795,18.3499 6785.8794,18.4884 6793.4287,18.6534 6801.1382,18.8105 6809.0278,18.9798 6817.0923,19.1187 6825.3223,19.272 6833.707,19.4307 6842.251,19.5681 6850.9507,19.7191 6859.8223,19.8719 6868.8481,20.0305 6878.0195,20.18 6887.3252,20.3455 6896.7612,20.5056 6906.3242,20.6911 6915.9985,20.8748 6925.7803,21.0434 6935.6855,21.2343 6945.71,21.429 6955.8457,21.6228 6966.1011,21.825 6976.4746,22.0361"/>
</svg>
