<?xml version="1.0" encoding="utf-8"?>
<!-- Track map generated with TinyPedal -->
<svg viewBox="-774.4726 -446.9433 1852.4073 1093.3470" version="1.1" xmlns="http://www.w3.org/2000/svg">
	<title>Circuit of the Americas</title>
	<!-- Sector coordinates index -->
	<desc>186,440</desc>
	<!-- Raw global coordinates -->
	<polyline id="map" fill="none" stroke="black" stroke-width="10" points="-645.2712,259.9116 -638.2302,264.9942 -631.063,270.1605 -623.7766,275.4114 -616.3816,280.7558 -608.8764,286.1843 -601.3311,291.7849 -593.7694,297.5805 -586.1718,303.5378 -578.4998,309.5508 -569.9457,316.2468 -562.8368,321.7596 -554.7869,327.8708 -546.6348,334.038 -538.3892,340.2677 -530.0521,346.5579 -521.6276,352.9095 -513.1166,359.3194 -504.5203,365.785 -495.8405,372.3051 -487.0795,378.879 -478.2399,385.5061 -469.3095,392.1662 -460.2589,398.8162 -451.1779,405.5728 -442.1014,412.4788 -432.9549,419.433 -423.7412,426.432 -414.4691,433.4879 -405.1439,440.6029 -395.7704,447.7458 -386.3863,454.9745 -376.9946,462.3032 -373.254,465.2814 -366.7379,470.5665 -358.33,477.395 -348.939,485.0004 -339.5016,492.636 -330.0242,500.2945 -320.4791,507.939 -310.8609,515.5562 -301.0404,522.9695 -291.1479,530.3406 -281.2367,537.7275 -271.3075,545.1402 -261.4428,552.6771 -251.5737,560.2337 -241.6873,567.7857 -231.824,575.3051 -222.4231,582.4728 -213.7505,589.1119 -205.7831,595.1846 -198.4753,600.7254 -191.7373,605.6613 -185.4745,609.9855 -179.6716,613.7248 -174.1719,616.8561 -168.9676,619.5135 -164.0369,621.8058 -159.3049,623.7689 -154.7386,625.2134 -150.2521,626.0849 -145.808,626.4037 -141.5839,626.261 -137.5154,625.6824 -133.5744,624.7824 -129.8058,623.529 -126.2534,621.9174 -123.0593,619.8434 -120.3529,617.3215 -118.1577,614.4565 -116.4609,611.3279 -115.2781,607.9781 -114.6019,604.4661 -114.2298,600.7872 -114.0365,596.9031 -114.0776,592.7876 -114.5256,588.5088 -115.4071,584.126 -116.5094,579.4886 -117.6951,574.5334 -119.0294,569.3027 -120.7089,563.9253 -122.7153,558.4157 -124.9014,552.6793 -127.256,546.7173 -130.075,540.6902 -133.3755,534.6373 -137.0374,528.5159 -140.8641,522.2117 -144.7647,515.7193 -148.5982,508.9435 -152.0347,501.7556 -154.9774,494.1663 -157.4814,486.2227 -159.5833,477.973 -161.4261,469.4718 -162.8826,460.7366 -163.7253,451.7793 -164.0654,442.6417 -163.7944,433.3549 -162.9516,424.0109 -161.4823,414.6426 -159.2666,405.3063 -156.365,396.0575 -152.756,386.9682 -148.4477,378.1048 -143.4963,369.4875 -137.9188,361.1567 -131.7455,353.1357 -125.0051,345.4758 -117.7737,338.1379 -110.1243,331.0941 -102.0489,324.4095 -93.557,318.1211 -84.6902,312.2206 -75.4853,306.7171 -65.9408,301.6646 -56.141,296.9279 -46.2564,292.1666 -36.5155,286.9737 -26.8427,281.4787 -17.1805,275.8831 -7.7927,270.136 1.0116,264.0566 9.2117,257.6481 16.8192,250.8772 23.8679,243.7144 30.3859,236.1543 36.5087,228.1815 42.3396,219.8975 47.6549,211.1836 52.5386,202.1108 57.3905,192.8929 62.639,183.7971 68.4572,175.0367 74.7729,166.6956 81.4835,158.7981 88.5517,151.3699 95.971,144.4509 103.7513,138.0596 111.883,132.1981 120.2663,126.7855 128.4179,121.6539 136.0341,116.5227 143.0076,111.1914 149.2646,105.4995 154.9543,99.4989 160.0891,93.2449 164.5509,86.9609 168.3852,80.4913 171.6467,73.8223 174.4023,66.9777 176.7243,59.8622 178.5228,52.4432 180.0329,44.8183 181.7217,37.2616 183.9192,29.8871 186.9297,21.9782 190.1206,14.9611 193.2439,8.7471 196.9668,1.9523 201.121,-4.6087 205.6954,-10.8915 210.7323,-16.7827 216.1748,-22.2586 221.9164,-27.3816 228.0265,-32.0032 234.4061,-36.0854 241.0172,-39.593 247.8593,-42.5855 254.8996,-45.0948 262.0769,-47.2436 269.3707,-49.0471 276.7242,-50.3532 284.061,-50.9908 291.361,-51.0581 298.5851,-50.6172 305.6858,-49.6267 312.6772,-48.1225 319.6331,-46.1358 326.5619,-43.6048 333.4414,-40.5656 340.2384,-37.022 347.0924,-33.2137 354.2063,-29.5539 361.6553,-26.3102 369.2842,-23.5751 376.4999,-21.2605 383.1429,-19.2191 389.4179,-17.5977 395.483,-16.5135 401.4258,-15.9094 407.2909,-15.4456 413.1426,-15.1192 418.9899,-15.2605 424.7733,-15.9451 430.5395,-17.1409 436.3147,-18.8802 442.0968,-21.1436 447.9262,-23.8753 453.7606,-27.0628 459.4872,-30.8007 465.0654,-35.076 470.4747,-39.8419 475.7173,-45.0517 480.7773,-50.6291 485.7274,-56.5226 490.6565,-62.6471 495.7347,-68.8295 500.9911,-74.5651 506.3322,-79.6426 511.7823,-84.1166 517.2698,-88.1239 522.6411,-91.6854 528.0883,-94.8328 534.2796,-97.7514 539.4583,-99.6903 545.2676,-101.3225 550.9438,-102.3724 556.3046,-102.9091 561.5256,-102.9143 566.6122,-102.3444 571.5618,-101.2128 576.4002,-99.5416 581.0908,-97.3258 585.5844,-94.5876 589.8436,-91.3433 593.916,-87.6688 598.0521,-83.7299 602.4411,-79.7229 607.1978,-75.8186 612.3213,-72.2325 617.8118,-69.1015 623.6862,-66.4878 629.8528,-64.3273 636.2656,-62.5973 642.8928,-61.2317 649.7476,-60.3436 656.8214,-59.8662 664.0917,-59.7887 671.4774,-60.2 678.9343,-61.1078 686.4492,-62.4609 694.1078,-64.0016 701.9366,-65.5692 709.8912,-67.2643 717.941,-69.1943 726.0581,-71.4717 734.2374,-74.0901 742.5638,-76.773 751.0379,-79.5054 759.6583,-82.2889 768.4089,-85.1579 777.1943,-88.3294 785.8776,-92.0649 794.4526,-96.2969 803.009,-100.8749 811.6324,-105.6167 820.3126,-110.5313 828.8654,-115.9097 837.1511,-121.8969 845.1499,-128.4304 852.8241,-135.5107 860.2125,-143.0627 867.5504,-150.8395 874.9205,-158.7542 882.2033,-166.9064 889.4,-175.2823 896.5278,-183.8543 903.3277,-192.8077 909.9821,-202.0017 916.7552,-211.23 923.652,-220.4874 930.805,-229.66 938.1064,-238.8267 945.4683,-248.0359 952.9318,-257.2492 961.4384,-267.2488 968.5218,-275.4142 976.4209,-284.5521 984.263,-293.8272 992.0623,-303.2234 998.1149,-310.5302 998.8873,-311.4634 1006.317,-320.4503 1013.174,-328.757 1019.4968,-336.4283 1025.3436,-343.5097 1030.7067,-349.9878 1035.5868,-355.8824 1040.0071,-361.2292 1043.9762,-366.0405 1047.5104,-370.3589 1050.5131,-374.3109 1052.9485,-378.0655 1054.8235,-381.7273 1056.1749,-385.4578 1057.1202,-389.3664 1057.7738,-393.4448 1057.9347,-397.5305 1057.5438,-401.5175 1056.6501,-405.4247 1055.28,-409.1886 1053.4431,-412.6548 1050.9003,-416.084 1048.4377,-418.5912 1045.3784,-421.0377 1041.9934,-423.074 1038.2977,-424.7095 1034.3297,-425.9144 1030.1421,-426.6641 1025.7646,-426.9433 1021.1713,-426.8329 1016.4123,-426.2894 1011.5414,-425.2819 1006.4504,-424.0085 1001.1259,-422.5051 995.7343,-420.582 990.2051,-418.357 983.8116,-415.8542 978.3494,-413.7639 972.0639,-411.3556 965.5572,-408.8713 958.8376,-406.3077 951.9114,-403.6615 944.8022,-400.9953 937.507,-398.2662 930.0043,-395.5356 922.2858,-392.8491 914.3436,-390.2664 906.2224,-387.672 897.937,-385.0398 889.4833,-382.4008 880.8821,-379.7113 872.1395,-376.9718 863.2581,-374.1913 854.2105,-371.4856 845.0214,-368.7876 835.7328,-366.0173 826.3968,-363.0629 816.9573,-360.0342 807.4096,-356.9644 797.7606,-353.848 787.9873,-350.7786 778.0643,-347.8585 767.9832,-345.1553 757.7985,-342.4729 746.4969,-339.4773 737.188,-336.9438 726.7703,-334.0786 716.269,-331.1812 705.6849,-328.2531 695.0195,-325.295 684.2742,-322.306 673.4501,-319.2867 662.5324,-316.2989 651.5048,-313.41 640.3788,-310.5848 629.1295,-307.9406 617.8013,-305.2863 606.4005,-302.6016 594.9327,-299.8927 583.4148,-297.1628 571.8234,-294.4073 560.1586,-291.6264 548.4208,-288.8216 536.6086,-286.0055 524.6981,-283.2954 512.7068,-280.6082 500.6133,-278.0598 488.4246,-275.6172 476.1613,-273.19 463.8,-270.9036 451.3704,-268.6101 438.8786,-266.2891 426.3267,-263.9424 413.716,-261.5742 401.0479,-259.1883 388.3254,-256.7815 375.5534,-254.3463 362.7336,-251.8792 349.8661,-249.391 336.9384,-246.961 323.9516,-244.5892 310.909,-242.2699 297.8088,-240.0218 284.6348,-237.967 271.4086,-235.9706 258.1224,-234.0925 244.763,-232.5099 231.343,-231.1155 217.8929,-229.6404 204.4341,-227.9268 190.9427,-226.1663 177.4148,-224.3924 163.8514,-222.599 150.2486,-220.8185 135.2388,-218.889 122.9195,-217.3604 109.1854,-215.7676 95.4173,-214.162 81.6143,-212.5516 67.7771,-210.9338 53.9108,-209.3029 40.2589,-207.6848 27.3527,-206.1491 15.2816,-204.7159 4.0504,-203.3724 -6.4115,-202.1151 -16.0581,-200.9471 -24.9766,-199.8518 -33.1957,-198.8293 -40.736,-197.8817 -47.8045,-196.9915 -54.313,-196.1651 -60.1925,-195.3969 -65.4428,-194.5176 -70.1538,-193.3584 -74.3602,-191.8991 -78.1389,-190.0778 -81.7406,-188.0384 -85.2727,-185.9569 -88.6379,-183.7025 -91.6545,-181.1017 -94.2488,-178.1761 -96.4079,-174.9659 -98.1282,-171.535 -99.2191,-167.9023 -99.6986,-164.1596 -99.7762,-159.9686 -99.5392,-156.4421 -98.8547,-152.3989 -97.7136,-148.2636 -96.1865,-143.9731 -94.2636,-139.5145 -91.8525,-135.0676 -88.99,-130.7044 -85.7005,-126.3716 -81.9606,-122.1287 -77.7716,-118.0848 -73.2522,-114.0656 -68.5208,-109.92 -63.5634,-105.6842 -58.4595,-101.2839 -53.3127,-96.6209 -48.1303,-91.7069 -42.8596,-86.6089 -37.5094,-81.3455 -32.1196,-75.9172 -26.8149,-70.1808 -21.72,-64.0605 -16.9261,-57.5304 -12.4555,-51.0135 -8.5618,-44.8787 -5.2716,-39.068 -2.5342,-33.6253 -0.3639,-28.5151 1.2198,-23.6532 2.2829,-18.9166 3.1009,-14.1394 3.571,-9.3952 3.5051,-4.7285 2.8581,-0.1879 1.4704,4.6078 -0.3381,8.752 -2.3632,12.2275 -5.0522,15.7723 -8.1618,18.9609 -11.6368,21.7665 -15.8237,24.3709 -19.5169,26.1209 -23.8534,27.6503 -28.3447,28.6843 -32.9191,29.2008 -37.5506,29.2015 -42.2554,28.6999 -47.0269,27.7138 -51.8432,26.2422 -56.6658,24.2785 -61.5364,21.8885 -66.4196,19.0637 -71.1896,15.7042 -75.9993,11.9723 -80.8196,7.8748 -85.455,3.2865 -90.2351,-2.3226 -93.9368,-7.3142 -97.827,-13.2409 -101.4301,-19.562 -104.9774,-26.1421 -108.6045,-32.8561 -112.348,-39.7224 -116.2946,-46.6838 -120.677,-53.5662 -125.6597,-60.2008 -131.1284,-66.6434 -136.6943,-72.9629 -142.0133,-78.869 -147.2904,-84.1504 -152.6475,-88.7104 -158.136,-92.5405 -163.6983,-95.7241 -169.1457,-98.2981 -174.4171,-100.2668 -179.4298,-101.696 -184.1209,-102.6065 -188.4481,-103.0413 -192.4094,-103.0444 -196.1334,-102.607 -199.5839,-101.7092 -202.6659,-100.3971 -205.4234,-98.6508 -207.7932,-96.5037 -209.8219,-93.9763 -211.6578,-90.7615 -212.7958,-87.82 -213.6357,-84.2831 -214.1295,-80.471 -214.3429,-76.3531 -214.1072,-72.0593 -213.3649,-67.6729 -212.2027,-63.1596 -210.8336,-58.3863 -209.2879,-53.3644 -207.3923,-48.1825 -205.0556,-42.9829 -202.2554,-37.7862 -199.0406,-32.5507 -195.5169,-27.2328 -191.8086,-21.765 -187.8344,-16.2242 -183.5287,-10.674 -178.9756,-5.0664 -174.0825,0.5025 -169.0443,6.1609 -163.9226,11.9747 -158.8667,18.0726 -154.0023,24.5236 -149.3683,31.333 -145.0129,38.4913 -141.0459,46.0154 -137.5086,53.8896 -134.3846,62.0683 -131.7204,70.5304 -129.5245,79.2356 -127.8875,88.1076 -126.8437,97.0869 -126.4592,106.1158 -126.7711,115.1053 -127.7375,123.9971 -129.3307,132.7464 -131.5067,141.322 -134.2708,149.6722 -137.6,157.7482 -141.4696,165.5054 -145.892,172.936 -150.8656,180.0533 -156.355,186.8242 -162.3261,193.225 -168.7755,199.194 -175.5913,204.7901 -182.7434,209.879 -190.1847,214.4186 -197.879,218.4009 -205.7863,221.8224 -213.8709,224.6643 -222.0969,226.9114 -230.4743,228.5789 -239.0524,229.6894 -247.7996,230.2487 -256.6755,230.2277 -265.6377,229.6087 -274.6464,228.3919 -283.6688,226.5986 -292.673,224.2454 -301.5986,221.2885 -310.3807,217.7431 -319.0525,213.6841 -327.5732,209.0906 -335.9232,203.9832 -344.0938,198.3804 -351.9967,192.2186 -359.5664,185.4875 -366.7807,178.2214 -373.6272,170.4662 -380.108,162.2701 -386.2667,153.6949 -392.1411,144.7938 -398.0299,135.7682 -403.987,126.6602 -410.0092,117.4729 -416.0913,108.2079 -422.222,98.8908 -428.0912,89.989 -433.6037,81.7742 -439.0062,74.3764 -444.361,67.6547 -449.7015,61.641 -455.0238,56.258 -460.3244,51.5176 -466.0962,47.0099 -470.8363,43.8712 -476.3276,40.8857 -482.1678,38.315 -488.3484,36.1469 -494.8279,34.3533 -501.5795,32.9935 -508.5795,32.2076 -515.798,31.9218 -523.1998,32.1682 -530.7458,32.9453 -538.4077,34.2348 -546.1753,35.9542 -554.0415,38.0402 -561.9802,40.5134 -569.9686,43.3589 -577.9406,46.6518 -585.8708,50.4255 -593.9023,54.3506 -602.0762,58.333 -611.2709,62.6792 -618.9595,66.1812 -627.6237,70.1253 -636.4035,74.1338 -645.202,78.3218 -654.0361,82.7212 -663.0333,87.0579 -672.2165,91.2619 -681.606,95.2659 -691.093,99.2658 -700.0989,103.3058 -708.2888,107.3858 -715.7269,111.3078 -722.466,114.8364 -729.1111,118.4542 -733.9444,121.3898 -738.6747,124.6712 -742.7492,127.9546 -746.2184,131.2449 -749.334,134.8494 -751.3011,137.7471 -752.9324,141.0329 -753.9848,144.4152 -754.4726,147.8641 -754.4325,151.3744 -753.906,154.9284 -753.022,158.626 -751.8048,162.5073 -750.1266,166.3962 -747.9613,170.2062 -745.3648,173.9727 -742.4794,177.9018 -739.4075,182.0599 -736.0435,186.3331 -732.2725,190.5683 -728.1081,194.7093 -723.2092,199.3518 -719.0286,203.278 -714.0687,207.5977 -708.8263,211.919 -704.496,215.4461 -703.3898,216.3311 -697.7326,220.7917 -691.8112,225.2233 -685.7109,229.6925 -679.4796,234.2624 -673.1166,238.9555 -666.618,243.7575 -659.9875,248.664 -653.2255,253.6682"/>
	<!-- Raw distance reference points -->
	<polyline id="dist" fill="none" stroke="none" stroke-width="0" points="6.3019,-5.7538 14.9903,-5.7663 23.8247,-5.7622 32.8026,-5.7339 41.9257,-5.7877 51.187,-5.7881 60.5861,-5.7942 70.1177,-5.7903 79.7739,-5.7826 89.5276,-5.7915 99.4028,-5.7853 109.3884,-5.7703 119.4929,-5.7848 129.7105,-5.7819 140.0429,-5.7906 150.4757,-5.7901 161.0034,-5.7765 171.647,-5.7768 182.4038,-5.775 193.2688,-5.7923 204.2296,-5.7951 215.2795,-5.7886 226.4216,-5.7888 237.6546,-5.7923 248.9791,-5.8213 260.3872,-5.8178 271.8814,-5.8336 283.4536,-5.8149 295.1129,-5.8365 306.849,-5.8018 318.6418,-5.7265 330.4966,-5.5437 342.4176,-5.3056 344.5755,-5.1782 354.3964,-4.9067 366.4289,-4.5859 378.5094,-4.0949 390.64,-3.5903 402.83,-2.9594 415.058,-2.2553 427.341,-1.4959 439.6646,-0.6705 452.0356,0.2436 464.4442,1.2846 476.8885,2.3842 489.3586,3.5019 501.8547,4.7504 514.3654,6.1146 526.8477,7.5957 538.7531,9.0204 549.7372,10.3649 559.7743,11.6589 568.9694,12.874 577.3842,14.0127 585.019,15.0464 591.9494,15.9786 598.2835,16.797 604.1032,17.4784 609.489,18.0647 614.5097,18.5595 619.0847,18.9486 623.3041,19.2557 627.3431,19.508 631.379,19.7051 635.7721,19.8692 640.7499,20.0343 646.3173,20.1854 652.4079,20.3262 661.4967,20.4722 667.7825,20.6359 673.3413,20.7815 677.7773,20.8724 681.3375,20.9218 684.4866,20.9273 687.8594,20.9009 691.4163,20.841 695.3099,20.7221 699.4832,20.5408 703.9584,20.282 708.722,19.9489 713.7819,19.5448 719.1489,19.0451 724.7792,18.4512 730.6561,17.7735 736.8406,17.0012 743.2959,16.1751 749.9393,15.386 756.7995,14.5895 763.8672,13.7301 771.1738,12.8664 778.6764,12.009 786.4161,11.1551 794.3867,10.3375 802.5571,9.5596 810.9118,8.8094 819.4286,8.0899 828.1127,7.3873 836.9637,6.6901 846.0718,6.0541 855.6805,5.3608 865.6779,4.7659 875.7371,4.1674 885.772,3.577 895.7543,3.1142 905.8112,2.7106 916.0161,2.3771 926.34,2.123 936.7832,1.9203 947.1819,1.7911 957.6024,1.7404 968.0406,1.7488 978.386,1.8237 988.6926,1.9445 999.0912,2.0918 1009.6204,2.2964 1020.2594,2.5705 1030.9825,2.872 1041.7577,3.1726 1052.5837,3.433 1063.4989,3.6673 1074.5209,3.9509 1085.6407,4.1072 1096.8046,4.2904 1107.8104,4.3937 1118.4923,4.4447 1128.8309,4.4431 1138.9119,4.4076 1148.989,4.3365 1159.321,4.2347 1170.2389,4.1339 1180.9415,3.9269 1191.5697,3.7774 1202.0382,3.61 1212.4949,3.4871 1222.9164,3.3185 1233.2231,3.2074 1243.5459,3.1146 1254.1571,2.9979 1265.3054,2.8403 1276.0956,2.6653 1286.4664,2.5066 1296.3906,2.375 1306.2129,2.1774 1315.8237,2.0318 1325.3236,1.9681 1334.389,1.8967 1343.575,1.9314 1352.5862,1.9735 1361.2695,2.0178 1369.1836,2.0734 1377.0061,2.1408 1384.4409,2.1887 1391.7063,2.1571 1398.9927,2.0585 1406.62,2.0202 1414.452,1.9616 1422.411,1.8181 1430.4696,1.7666 1438.4005,1.7262 1446.6512,1.6804 1454.6674,1.6619 1462.9233,1.6328 1471.1122,1.6361 1479.0378,1.6127 1487.0754,1.6525 1494.876,1.7239 1502.6797,1.7029 1510.4567,1.7636 1518.0867,1.8479 1525.6913,1.9609 1533.22,2.1059 1540.8534,2.2667 1548.4545,2.3741 1556.319,2.5852 1563.9979,2.7534 1571.96,2.987 1580.1488,3.2074 1587.8605,3.3989 1595.7664,3.5906 1603.12,3.7494 1610.524,3.8657 1617.9319,4.0164 1625.4827,4.1534 1633.1256,4.2867 1640.9225,4.4144 1648.9111,4.5061 1657.0294,4.5646 1665.1084,4.575 1672.6403,4.5718 1679.5378,4.5372 1685.9269,4.4816 1691.9159,4.3965 1697.6357,4.2926 1703.384,4.1708 1709.4021,4.0503 1716.621,3.9271 1723.5076,3.7959 1731.4471,3.6819 1737.8569,3.6175 1744.1744,3.5509 1750.7435,3.5121 1757.4207,3.5015 1764.3141,3.5192 1771.4653,3.5715 1778.7268,3.6482 1786.1973,3.7749 1793.7766,3.9637 1801.5964,4.2049 1809.5188,4.5209 1817.6195,4.9089 1825.4159,5.3247 1832.6738,5.7028 1839.5248,6.0266 1846.3624,6.3312 1853.0519,6.6498 1860.3396,6.994 1867.0647,7.397 1873.6777,7.722 1880.6735,8.0808 1886.9438,8.4269 1892.8112,8.7461 1898.4836,9.0528 1904.0348,9.3591 1909.5564,9.6606 1915.6788,9.9647 1921.4318,10.2842 1927.2145,10.6129 1933.0225,10.9511 1938.9045,11.2944 1945.1118,11.6506 1950.8857,11.9934 1956.7136,12.2895 1962.7953,12.535 1969.2383,12.7919 1977.1873,13.1833 1985.994,13.6067 1993.4207,13.9992 2000.2372,14.2849 2006.7206,14.5481 2013.5394,14.7486 2020.6537,14.9345 2027.9598,15.1246 2035.4229,15.2526 2043.0326,15.3536 2050.8262,15.4324 2058.8145,15.5453 2066.9529,15.5149 2075.2227,15.4762 2083.6377,15.3964 2092.1736,15.2696 2100.8584,15.1096 2109.7271,14.8587 2118.7485,14.6117 2127.9199,14.3389 2137.2031,13.9454 2146.5149,13.5272 2155.866,13.0686 2165.5972,12.5439 2176.3489,11.912 2187.7122,11.1724 2198.2429,10.4543 2208.4216,9.8078 2218.6519,9.1139 2229.0232,8.4327 2239.5723,7.7808 2250.2202,7.1445 2261.03,6.5356 2271.9561,5.9936 2282.9653,5.4544 2294.0955,4.8682 2305.3635,4.386 2316.719,3.9781 2328.1733,3.5694 2339.7266,3.2553 2351.3696,3.0158 2363.0977,2.7662 2374.9006,2.5156 2386.771,2.366 2398.7192,2.2701 2410.7261,2.2505 2422.7966,2.2937 2434.9265,2.3617 2447.1165,2.4958 2455.9346,2.6564 2457.7886,2.6795 2469.4265,2.9045 2480.1624,3.1692 2490.0693,3.4579 2499.2283,3.7236 2507.5808,4.0107 2515.1409,4.297 2522.0273,4.5702 2528.2356,4.8358 2533.8005,5.073 2538.7595,5.2835 2543.2334,5.4559 2547.2993,5.5915 2551.0854,5.6945 2554.8237,5.7668 2558.4387,5.826 2561.7771,5.864 2565.1553,5.8834 2568.5623,5.9023 2572.926,5.93 2578.0586,5.9438 2583.7007,5.9491 2591.6367,5.9516 2596.9805,5.9254 2601.2351,5.8808 2604.6868,5.8274 2608.2795,5.7713 2611.9819,5.695 2615.9993,5.6032 2620.3816,5.4711 2625.0916,5.3024 2630.0537,5.0992 2635.3076,4.8371 2640.8479,4.5428 2646.5867,4.1935 2652.5654,3.7903 2658.8201,3.3412 2665.3127,2.9597 2672.02,2.5365 2678.97,2.0608 2686.1494,1.5873 2693.5503,1.1833 2701.1201,0.7628 2708.9033,0.3821 2716.8933,0.0214 2725.0813,-0.3005 2733.4387,-0.5905 2741.9724,-0.8793 2750.6824,-1.1491 2759.5461,-1.3811 2768.5786,-1.5757 2777.7668,-1.7516 2787.0918,-1.8774 2796.5532,-1.9797 2806.1523,-2.0077 2815.8701,-2.006 2825.6882,-1.9876 2835.6226,-1.9303 2845.6643,-1.81 2855.8145,-1.6348 2866.075,-1.4041 2876.4343,-1.1454 2886.8838,-0.8264 2897.4304,-0.48 2908.0813,-0.095 2918.8313,0.2132 2929.6711,0.5358 2940.5925,0.8209 2951.5632,1.0676 2962.6348,1.2992 2973.8018,1.5153 2985.0549,1.717 2996.3867,1.8825 3007.7957,2.0463 3019.2771,2.1604 3030.8335,2.2659 3042.4678,2.3331 3054.1846,2.3866 3065.9919,2.4187 3077.8464,2.4059 3089.769,2.3292 3101.7822,2.2045 3113.8699,2.0753 3126.0486,1.967 3138.2903,1.7671 3150.6133,1.53 3162.9866,1.2822 3175.4446,1.0132 3187.9675,0.723 3200.5532,0.4566 3213.2004,0.2183 3225.9038,0.0151 3238.6794,-0.1709 3251.5286,-0.3412 3264.4287,-0.4676 3277.387,-0.5641 3290.4102,-0.6216 3303.4739,-0.6294 3316.5984,-0.6557 3329.7734,-0.6393 3343.0176,-0.5999 3356.2954,-0.5836 3369.5994,-0.5304 3382.9526,-0.481 3396.3513,-0.4198 3409.7903,-0.3855 3423.2554,-0.3498 3436.7751,-0.2802 3450.3289,-0.2035 3463.9084,-0.1407 3477.5317,-0.0752 3491.199,-0.0209 3504.8979,-0.0026 3518.6226,-0.0459 3532.3835,-0.0447 3546.1743,-0.0419 3559.9895,-0.0471 3573.8455,-0.0928 3587.7388,-0.1303 3601.6724,-0.2021 3615.6382,-0.2932 3629.3843,-0.391 3642.3684,-0.5377 3654.5186,-0.6798 3665.8044,-0.8032 3676.3313,-0.9545 3686.0405,-1.0716 3695.022,-1.2004 3703.3066,-1.3287 3710.9221,-1.4586 3718.0532,-1.581 3724.6179,-1.6742 3730.5586,-1.7707 3735.8853,-1.8568 3740.7117,-1.9436 3745.071,-2.0382 3749.0471,-2.1337 3752.873,-2.2299 3756.6311,-2.3236 3760.2981,-2.4065 3763.7107,-2.4886 3767.3313,-2.5881 3772.033,-2.7173 3781.8689,-2.8961 3792.1069,-2.9905 3796.5364,-3.0096 3799.3962,-3.0087 3802.5544,-3.0077 3806.0393,-3.0103 3810.0103,-3.0224 3814.281,-3.0413 3819.0708,-3.0662 3824.1138,-3.0808 3829.325,-3.0937 3834.7844,-3.1274 3840.5337,-3.1504 3846.3303,-3.1577 3852.2827,-3.1557 3858.4507,-3.1444 3864.8186,-3.1208 3871.4043,-3.0646 3878.2192,-2.9847 3885.2534,-2.8582 3892.4795,-2.697 3899.8652,-2.4974 3907.4072,-2.2797 3915.1216,-2.0486 3923.0356,-1.8222 3931.0688,-1.6003 3938.937,-1.4007 3946.137,-1.2124 3952.7761,-1.0528 3958.8062,-0.9167 3964.2432,-0.7953 3969.1494,-0.6874 3973.6948,-0.6033 3978.2588,-0.529 3982.8469,-0.4744 3987.5437,-0.4323 3992.5471,-0.3886 3997.8879,-0.3035 4003.4673,-0.2073 4009.1172,-0.1339 4015.7068,-0.0527 4020.7124,0.0261 4025.1172,0.103 4029.1284,0.1742 4033.0947,0.2251 4037.2141,0.2687 4041.5957,0.2948 4046.1702,0.2927 4050.8252,0.2652 4055.533,0.2217 4060.3052,0.1474 4065.135,0.0386 4070.0276,-0.0874 4075.0757,-0.2469 4080.3406,-0.45 4085.9688,-0.6006 4092.3831,-0.769 4100.6934,-0.91 4108.2266,-1.043 4115.6841,-1.1574 4122.3599,-1.2187 4129.2827,-1.2904 4136.5,-1.3734 4143.9639,-1.4954 4151.7144,-1.6433 4159.6523,-1.7893 4167.8047,-1.9241 4175.9199,-2.0555 4184.1885,-2.1048 4192.6284,-2.1571 4201.0356,-2.1856 4208.9624,-2.2066 4216.2593,-2.244 4223.0522,-2.2383 4229.3564,-2.1599 4234.8911,-2.0615 4240.5181,-1.9833 4245.9121,-1.9119 4250.9517,-1.8658 4255.5713,-1.8254 4259.6963,-1.7879 4263.6416,-1.7572 4266.9058,-1.7739 4269.6084,-1.8148 4272.8047,-1.8569 4275.0273,-1.9026 4277.9429,-1.9413 4280.5679,-1.9805 4283.6196,-2.0228 4287.4424,-2.0441 4291.8984,-2.0552 4296.6162,-2.0491 4301.396,-2.0098 4305.8848,-1.9554 4310.1558,-1.9016 4314.6328,-1.8454 4319.3867,-1.792 4324.4639,-1.738 4329.9663,-1.6751 4335.6436,-1.6245 4341.543,-1.5921 4347.6787,-1.5639 4354.0469,-1.5414 4360.6558,-1.5227 4367.4502,-1.505 4374.4155,-1.4981 4381.5552,-1.4974 4388.8374,-1.4925 4396.2734,-1.5026 4403.8901,-1.4817 4411.7222,-1.4505 4419.7578,-1.3935 4427.9761,-1.3109 4436.333,-1.1619 4444.8071,-1.0079 4453.3774,-0.8425 4461.9985,-0.6941 4470.6909,-0.5576 4479.5503,-0.467 4488.728,-0.3872 4498.1914,-0.3059 4507.6099,-0.1855 4516.9092,-0.0175 4526.3745,0.1576 4535.8779,0.335 4545.0176,0.4846 4553.834,0.6229 4562.5942,0.7484 4571.3545,0.8542 4580.6011,0.968 4590.4341,1.1211 4599.644,1.2846 4608.9277,1.436 4617.7485,1.6225 4626.4224,1.7537 4635.1045,1.8696 4643.7847,1.9484 4652.4219,1.9855 4660.9995,1.9799 4669.5088,1.9367 4677.9229,1.8615 4686.4805,1.7634 4695.3633,1.66 4704.2466,1.5287 4713.2993,1.3782 4722.3979,1.2101 4731.6123,1.017 4740.9531,0.7843 4750.396,0.5129 4759.9502,0.245 4769.5103,-0.0385 4779.2896,-0.4092 4789.1963,-0.8175 4799.2856,-1.2711 4809.5898,-1.7813 4820.3433,-2.2539 4830.833,-2.6723 4841.2153,-3.0379 4851.5747,-3.3705 4862.0103,-3.6963 4872.5688,-3.9888 4883.23,-4.2535 4893.9946,-4.4707 4904.8584,-4.6316 4915.8101,-4.7519 4926.8535,-4.8412 4937.9697,-4.8521 4948.5996,-4.8221 4958.4668,-4.8105 4967.6143,-4.7457 4976.1401,-4.71 4984.1133,-4.6537 4991.5474,-4.6226 4998.5615,-4.6227 5005.0938,-4.6585 5011.2192,-4.7021 5017.167,-4.7666 5023.3564,-4.862 5031.1548,-4.9829 5038.8784,-5.1565 5047.4448,-5.3626 5054.7749,-5.5349 5062.0581,-5.7519 5069.252,-5.9911 5076.5801,-6.2572 5084.1685,-6.5457 5091.9497,-6.8552 5099.9907,-7.1752 5108.2437,-7.4797 5116.6855,-7.7811 5125.2998,-8.1117 5134.0688,-8.3584 5142.9917,-8.6517 5152.0674,-8.8638 5161.2856,-9.0528 5170.6558,-9.2231 5180.1465,-9.3724 5189.7773,-9.4571 5199.4932,-9.5285 5209.3604,-9.5518 5219.3516,-9.5447 5229.4565,-9.4639 5239.6665,-9.3518 5249.9609,-9.2021 5259.8354,-9.0263 5268.9951,-8.8236 5277.4028,-8.6241 5285.0049,-8.3928 5291.8965,-8.1632 5298.1626,-7.9985 5303.8193,-7.831 5308.8789,-7.6831 5313.4536,-7.5666 5317.7017,-7.4606 5321.7056,-7.3578 5325.8164,-7.2362 5329.0249,-7.1137 5333.6787,-6.9934 5341.519,-6.8758 5347.48,-6.7506 5353.3867,-6.6141 5358.8999,-6.4719 5363.4941,-6.3378 5367.6387,-6.223 5371.9717,-6.1272 5376.6348,-6.0378 5381.5962,-5.9483 5386.8774,-5.8766 5392.4619,-5.8218 5398.2891,-5.792 5404.3721,-5.7732 5410.6753,-5.7662 5417.228,-5.7586 5424.0132,-5.7539 5429.4517,-5.7582 5431.0029,-5.7582 5438.2046,-5.7592 5445.5972,-5.7613 5453.1587,-5.7614 5460.9009,-5.7589 5468.8789,-5.7586 5476.9521,-5.751 5485.1382,-5.7427 5493.5459,-5.7492"/>
</svg>
