<?xml version="1.0" encoding="utf-8"?>
<!-- Track map generated with TinyPedal -->
<svg viewBox="-336.7000 -1249.5092 1297.0287 2206.6984" version="1.1" xmlns="http://www.w3.org/2000/svg">
	<title>Monza Curva Grande Circuit</title>
	<!-- Sector coordinates index -->
	<desc>135,341</desc>
	<!-- Raw global coordinates -->
	<polyline id="map" fill="none" stroke="black" stroke-width="10" points="-304.3758,462.4583 -303.3093,447.3228 -302.3438,434.6509 -301.291,421.9277 -300.1575,407.8643 -299.2387,396.3066 -298.2675,383.4089 -297.3546,370.453 -296.4376,357.4447 -295.4162,344.3935 -294.3508,331.2951 -293.2899,318.1467 -292.1246,303.6271 -291.1732,291.7041 -290.1176,278.4119 -289.0636,265.0738 -288.0121,251.6911 -286.9643,238.2644 -285.9178,224.7947 -284.8809,211.2825 -283.8075,197.7327 -282.7103,184.1443 -281.6228,170.5154 -280.5354,156.8476 -279.443,143.1416 -278.2862,129.4044 -277.0846,115.6335 -275.8883,101.8262 -274.685,87.9841 -273.4854,74.1071 -272.2905,60.1957 -271.0734,46.253 -269.8597,32.2778 -268.6703,18.2679 -267.5602,4.2208 -266.5952,-9.8673 -265.6587,-23.988 -264.7308,-38.1391 -263.8697,-52.3233 -263.0303,-66.5317 -261.8335,-80.7005 -260.3127,-94.8521 -258.8279,-109.0367 -257.3506,-123.2527 -255.8838,-137.499 -254.4713,-151.7777 -253.0152,-167.5231 -251.8335,-180.4306 -250.5246,-194.7967 -249.2172,-209.1883 -247.9139,-223.6036 -246.6133,-238.043 -245.3144,-252.5061 -244.0216,-266.9929 -242.735,-281.5025 -241.4494,-296.0353 -240.1625,-310.5892 -238.8756,-325.1654 -237.5866,-339.7641 -236.3028,-354.3839 -234.982,-369.02 -233.6476,-383.6753 -232.318,-398.3503 -230.9937,-413.0442 -229.7043,-427.7588 -228.4745,-442.4958 -227.2485,-457.2512 -226.0471,-472.0254 -224.8644,-486.8173 -223.8523,-501.6351 -222.9682,-516.4772 -221.9765,-531.3263 -220.8707,-546.1817 -219.6722,-562.5413 -218.7311,-575.9424 -217.7082,-590.8475 -216.584,-607.2594 -215.6679,-620.7035 -214.6606,-635.6549 -213.5957,-650.6169 -212.5154,-665.5923 -211.4345,-680.5819 -210.3521,-695.5848 -209.2578,-710.6002 -208.1923,-725.6306 -207.2657,-740.6818 -206.2524,-755.7377 -204.896,-770.7736 -203.3623,-785.8037 -201.4184,-800.7774 -198.637,-815.567 -195.043,-830.1298 -190.6842,-844.4412 -185.6053,-858.4791 -179.798,-872.1876 -173.2502,-885.508 -166.0073,-898.4218 -158.1128,-910.9102 -149.5652,-922.9158 -140.3931,-934.4023 -130.637,-945.3882 -120.3981,-955.9337 -108.7279,-967.1482 -98.802,-975.9075 -87.3007,-985.0483 -75.4512,-993.7585 -63.3825,-1002.1886 -50.9754,-1010.1023 -38.1893,-1017.3659 -25.1858,-1024.2679 -11.9248,-1030.6483 1.6389,-1036.3248 15.4132,-1041.5093 29.2635,-1046.5375 43.2529,-1051.1963 57.4035,-1055.3489 71.7262,-1058.7637 86.196,-1061.4362 100.759,-1063.6407 115.3562,-1065.7319 129.9733,-1067.7996 144.6203,-1069.7595 159.3233,-1071.3199 174.065,-1072.6509 188.8375,-1073.7769 203.6419,-1074.6494 218.4638,-1075.5034 233.3026,-1076.3553 248.1576,-1077.2065 263.0286,-1078.0542 277.9149,-1078.9023 292.8157,-1079.7545 307.732,-1080.6083 322.6627,-1081.4639 337.6084,-1082.3223 352.5645,-1083.1879 367.347,-1084.0559 381.581,-1084.9038 396.3499,-1085.7921 407.6899,-1086.476 419.5037,-1087.1995 430.4889,-1087.8885 440.7158,-1088.5414 450.1517,-1089.1602 458.8501,-1089.7343 466.8394,-1090.2717 474.1726,-1090.9064 480.8484,-1091.7683 486.8987,-1092.7566 492.3645,-1093.9178 497.2899,-1095.3792 501.8025,-1097.1554 506.0243,-1099.1859 509.9332,-1101.55 513.4852,-1104.2517 516.7366,-1107.1689 519.4016,-1110.4537 521.6981,-1113.9138 523.5718,-1117.5544 525.1509,-1121.2635 526.6538,-1124.9542 528.4811,-1128.4277 530.7089,-1131.5696 533.5829,-1134.5626 536.2396,-1136.6143 539.5142,-1138.6473 543.1249,-1140.7067 547.0994,-1142.663 551.4363,-1144.5233 556.0953,-1146.4032 561.0682,-1148.27 566.3386,-1150.0513 571.8688,-1151.7566 577.5868,-1153.2847 583.5311,-1154.6991 589.6965,-1155.9493 596.0502,-1157.1743 602.5973,-1158.4799 609.3495,-1159.851 616.3032,-1161.2798 623.4525,-1162.762 630.7848,-1164.3187 639.0244,-1166.2189 645.7848,-1168.1465 653.3386,-1170.6946 660.9246,-1173.6389 668.6161,-1176.7772 676.4772,-1179.9324 684.5003,-1183.1117 692.7147,-1186.2164 701.1306,-1189.208 709.6879,-1192.2402 718.3786,-1195.3226 727.1981,-1198.457 736.1462,-1201.6342 745.2234,-1204.8412 754.449,-1208.0111 763.7983,-1211.2047 773.2617,-1214.4396 782.7374,-1217.6633 791.7344,-1220.665 800.0967,-1223.3632 807.9432,-1225.6113 815.3314,-1227.375 822.2736,-1228.6375 828.8747,-1229.3655 835.3414,-1229.5092 841.786,-1229.0507 848.2285,-1228.0603 854.656,-1226.626 861.0713,-1224.8623 867.4601,-1222.7808 873.8064,-1220.397 879.9636,-1217.4751 885.8412,-1213.9872 891.3852,-1209.9867 896.5786,-1205.5033 901.3763,-1200.5621 905.7737,-1195.168 909.7796,-1189.3302 913.3016,-1183.0763 916.3307,-1176.4539 918.8875,-1169.489 921.0276,-1162.2065 922.7122,-1154.6428 924.0102,-1146.8289 925.0822,-1138.8079 925.8707,-1130.5885 926.4143,-1122.1875 926.8399,-1113.6179 927.3215,-1104.8949 928.0603,-1096.0421 928.8919,-1087.0488 929.699,-1077.9094 930.4777,-1068.6278 931.2419,-1059.2094 932.0157,-1049.6595 932.8692,-1039.9882 933.7318,-1030.192 934.5497,-1020.2697 935.3734,-1010.2386 936.1866,-1000.2249 936.942,-990.7888 937.6292,-982.0964 938.2545,-974.0752 938.8426,-966.4134 939.377,-959.305 939.7941,-952.8125 940.0482,-946.9096 940.205,-941.3254 940.3287,-935.8187 940.1499,-930.4489 939.5164,-925.438 938.3516,-920.6464 936.7244,-915.9467 934.6407,-911.3549 932.0396,-906.9314 928.9026,-902.7525 925.2674,-898.8729 921.2848,-895.1735 917.1068,-891.3633 912.6639,-887.4841 907.9431,-883.5649 902.8454,-879.7823 897.4135,-876.0842 891.7151,-872.3926 885.8031,-868.6422 879.6981,-864.8132 873.4166,-860.8945 866.9301,-856.948 860.2565,-852.9617 853.4262,-848.9633 846.3985,-844.9594 839.1729,-840.9897 831.6594,-837.2714 823.9422,-833.6066 816.0989,-829.8414 808.1306,-825.987 800.0392,-822.0499 791.8217,-818.0465 783.5577,-813.8357 775.287,-809.3522 766.9124,-804.7823 758.4344,-800.1327 749.8633,-795.392 741.211,-790.546 732.485,-785.5909 723.687,-780.5895 714.7891,-775.5303 705.7933,-770.4144 696.7015,-765.244 686.597,-759.4872 678.2493,-754.7264 668.8937,-749.3797 659.4565,-743.9726 649.9398,-738.507 640.3457,-732.984 630.6766,-727.4049 620.9451,-721.7542 611.2391,-715.8936 601.5718,-709.8085 592.0047,-703.4236 582.6244,-696.6376 573.3433,-689.5803 564.0788,-682.3702 554.9564,-674.8604 545.8358,-667.2222 536.6586,-659.5276 527.4372,-651.7632 518.2036,-643.8925 508.9221,-635.9577 499.5999,-627.983 490.2277,-619.9591 480.8001,-611.8817 471.3171,-603.7535 461.7841,-595.5697 452.1996,-587.3353 442.5606,-579.0549 432.8677,-570.7313 423.1183,-562.37 413.317,-553.968 403.4644,-545.5265 392.5742,-536.1897 383.6739,-528.4568 373.8105,-519.7496 363.908,-511.004 353.9713,-502.218 344.0278,-493.3639 333.0776,-483.5547 324.125,-475.4613 314.2018,-466.3805 304.2665,-457.2546 294.2608,-448.1494 284.214,-439.0342 274.1146,-429.9227 263.9828,-420.7939 253.7898,-411.6823 243.5728,-402.5448 233.3004,-393.4188 222.9527,-384.3283 212.4888,-375.3221 201.8797,-366.4377 191.24,-357.5378 180.6057,-348.6305 170.3338,-340.0153 160.7081,-331.9228 151.7251,-324.3575 143.336,-317.3109 135.5708,-310.7712 128.3698,-304.6807 121.7485,-299.0054 115.7532,-293.6662 110.3902,-288.5711 105.6696,-283.6158 101.5555,-278.6971 98.0048,-273.6694 94.9981,-268.4326 92.5568,-263.0063 90.696,-257.4152 89.3287,-251.5889 88.2799,-245.4721 87.3645,-239.1026 86.828,-232.4855 86.5561,-225.636 86.308,-218.5741 86.0768,-211.3084 85.8833,-203.8484 85.6984,-196.3541 85.3405,-189.0373 84.7201,-181.8164 83.5743,-174.0534 82.085,-167.8412 79.8826,-161.1504 77.1171,-154.7024 73.8324,-148.456 70.0499,-142.3631 65.7465,-136.4532 60.9358,-130.7865 55.7519,-125.2141 50.4574,-119.4964 45.1136,-113.6298 39.8017,-107.5057 34.7235,-100.9902 29.9876,-94.0651 25.6591,-86.7811 21.8399,-79.14 18.56,-71.1793 15.7906,-62.9058 13.412,-54.3637 11.4964,-45.5717 10.0115,-36.5609 8.7598,-27.3732 7.6764,-18.0277 6.6505,-7.5757 5.8235,1.0951 4.8714,10.8482 3.8805,20.7229 2.8644,30.7165 1.8436,40.7976 0.7743,50.9907 -0.3986,61.287 -1.5824,71.6947 -2.7732,82.2114 -3.9716,92.8349 -5.1774,103.5628 -6.3902,114.3931 -7.6193,125.3222 -8.8691,136.3482 -10.1307,147.4693 -11.4049,158.6834 -12.6931,169.9884 -13.989,181.383 -15.2112,192.8735 -16.3878,204.4551 -17.5565,216.1219 -18.5738,227.8831 -19.5277,239.7302 -20.4864,251.6557 -21.4662,263.6566 -22.4528,275.7326 -23.4492,287.8817 -24.4554,300.0893 -25.4656,312.3524 -26.4817,324.6853 -27.5034,337.087 -28.534,349.5556 -29.5692,362.0903 -30.6029,374.6899 -31.6299,387.3537 -32.6428,400.0811 -33.6206,412.8723 -34.6425,425.7199 -35.6392,438.6282 -36.6131,451.5958 -37.5633,464.6216 -38.5094,477.703 -39.5154,490.8329 -40.7981,503.9875 -42.1171,517.1913 -43.4294,530.447 -44.7398,543.7529 -46.0484,557.1077 -47.3571,570.5104 -48.6632,583.9605 -49.9667,597.4573 -51.266,610.9997 -52.5645,624.5872 -53.8609,638.2186 -55.1544,651.8931 -56.4452,665.6094 -57.7304,679.3671 -58.9825,693.168 -60.3032,707.0014 -61.6409,720.8715 -63.0004,734.7776 -64.3816,748.7186 -65.7523,762.6979 -67.1153,776.6692 -68.4183,790.0657 -69.6289,802.6086 -70.7452,814.2931 -71.7818,825.1693 -72.8085,835.2685 -73.9707,844.6486 -75.2571,853.308 -76.678,861.2928 -78.304,868.7209 -80.2531,875.6746 -82.6665,882.2552 -85.5925,888.5267 -89.0249,894.5925 -92.9859,900.5259 -97.4486,906.2328 -102.3234,911.5219 -107.5165,916.3112 -113.0342,920.6036 -118.9235,924.4376 -125.7555,928.1334 -132.3422,931.0364 -138.563,933.2217 -145.7337,935.1198 -153.1317,936.4019 -160.73,937.0907 -168.5054,937.1892 -176.4003,936.6968 -184.3598,935.5708 -192.3521,933.8405 -200.3127,931.5141 -208.2087,928.6206 -216.0316,925.1773 -223.8335,921.3322 -231.5346,917.0216 -239.773,911.6364 -246.3203,906.7646 -253.3115,900.9228 -259.9366,894.5853 -266.1542,887.7432 -271.8922,880.4178 -277.1571,872.6324 -281.9695,864.4361 -286.829,855.0278 -290.406,847.035 -294.0641,837.8995 -297.6873,828.6202 -300.9945,819.1456 -304.0474,808.4359 -306.4001,799.5264 -308.8913,789.4938 -310.9059,779.2653 -312.5685,768.8679 -313.9827,758.3333 -315.0828,747.6635 -315.9391,736.873 -316.5107,725.9719 -316.7,714.9678 -316.5546,703.8726 -316.3451,692.6867 -316.0403,681.413 -315.6748,670.0538 -315.1924,658.6151 -314.6637,647.0951 -314.1035,635.4951 -313.5356,623.8158 -312.9538,612.0591 -312.3534,600.2269 -311.694,588.3231 -310.955,576.3507 -310.2148,564.3065 -309.5128,552.1898 -308.9019,539.9998 -308.2629,527.7642 -307.274,515.5029 -306.1214,503.1889 -304.9852,490.808 -303.9373,478.3572 -303.1604,465.8282"/>
	<!-- Raw distance reference points -->
	<polyline id="dist" fill="none" stroke="none" stroke-width="0" points="5732.8096,-2.0128 12.9867,-1.9388 25.682,-1.8805 38.4376,-1.8172 51.2581,-1.7469 64.136,-1.693 77.0693,-1.6334 90.055,-1.5732 103.0903,-1.5095 116.1783,-1.4485 129.3167,-1.3816 142.505,-1.3146 155.743,-1.245 169.0289,-1.1928 182.3617,-1.1247 195.7401,-1.0572 209.1621,-0.9918 222.627,-0.9174 236.1346,-0.8384 249.6834,-0.7728 263.2724,-0.7019 276.9006,-0.6321 290.5699,-0.5637 304.2824,-0.4921 318.0367,-0.4304 331.8275,-0.3449 345.6531,-0.2855 359.5086,-0.2083 373.3964,-0.1398 387.3226,-0.072 401.2922,-0.0048 415.2952,0.0656 429.3253,0.1577 443.3824,0.2187 457.469,0.2875 471.5847,0.3531 485.7314,0.4178 499.9186,0.4805 514.1418,0.5338 528.3797,0.5924 542.6001,0.6821 556.8312,0.7333 571.0923,0.829 585.3896,0.9 599.7228,0.9689 614.0737,1.0342 628.4489,1.128 642.8503,1.1872 657.2737,1.2915 671.7227,1.3747 686.1982,1.4654 700.6947,1.5546 715.2119,1.6254 729.748,1.6913 744.3159,1.7829 758.9052,1.8567 773.5042,1.9513 788.1373,2.0157 802.7922,2.103 817.4745,2.1598 832.1746,2.2271 846.8838,2.3021 861.623,2.3875 876.3769,2.4869 891.1476,2.6031 905.9364,2.7101 920.7432,2.8026 935.5667,2.9055 950.4131,3.0007 965.2654,3.1255 980.1324,3.2251 995.0142,3.347 1009.912,3.4535 1024.8293,3.5906 1039.7554,3.6871 1054.6958,3.79 1069.65,3.9303 1084.6204,3.992 1099.6067,4.08 1114.6061,4.1589 1129.6202,4.198 1144.6495,4.26 1159.6799,4.3369 1174.7261,4.3865 1189.7816,4.4398 1204.8494,4.5167 1219.9415,4.6026 1235.045,4.6679 1250.1245,4.738 1265.1072,4.7434 1280.036,4.7843 1294.8702,4.8121 1309.7006,4.811 1324.5159,4.804 1339.2847,4.8038 1354.0206,4.8097 1368.7532,4.7934 1383.446,4.7617 1398.113,4.7428 1412.7629,4.7143 1427.4364,4.6946 1442.1381,4.6913 1456.8629,4.684 1471.5869,4.7027 1486.2946,4.7228 1501.0277,4.7406 1515.7726,4.8008 1530.5226,4.8599 1545.2666,4.909 1560.0308,4.9812 1574.8313,5.0737 1589.6096,5.1462 1604.3962,5.2259 1619.1891,5.3415 1633.9779,5.4793 1648.7648,5.6272 1663.5125,5.7703 1678.251,5.895 1693.004,6.016 1707.791,6.1602 1722.5626,6.3268 1737.3248,6.4639 1752.1122,6.6009 1766.9144,6.7143 1781.7277,6.8252 1796.5518,6.913 1811.3915,7.0098 1826.2477,7.0889 1841.1317,7.1603 1856.0256,7.2509 1870.9305,7.3426 1885.8573,7.4423 1900.7877,7.5326 1915.7352,7.6168 1930.712,7.6648 1945.7035,7.7457 1960.5548,7.7477 1974.8247,7.7604 1988.3314,7.7419 2001.0199,7.7167 2012.8613,7.6852 2023.8762,7.6632 2034.1438,7.6296 2043.6001,7.6092 2052.2915,7.5872 2060.2839,7.564 2067.6243,7.5227 2074.3298,7.4987 2080.4233,7.4628 2085.9556,7.4138 2090.9954,7.3824 2095.8015,7.3523 2100.8374,7.3072 2106.6152,7.2796 2112.7148,7.3208 2117.6826,7.2263 2121.8682,7.2767 2125.9058,7.223 2129.948,7.1929 2133.9668,7.172 2137.9812,7.1622 2142.0352,7.1535 2146.2229,7.1343 2149.9993,7.1091 2154.1094,7.1004 2158.0476,7.0963 2162.0503,7.0906 2166.3386,7.0723 2170.9731,7.0628 2175.9021,7.0569 2181.1208,7.0353 2186.626,7.0224 2192.3992,6.9948 2198.3538,6.9616 2204.5273,6.9274 2210.9292,6.8757 2217.4824,6.853 2224.2424,6.7974 2231.1934,6.7552 2238.3015,6.7023 2245.6521,6.6482 2253.106,6.6149 2260.7502,6.5646 2268.5447,6.5169 2276.5181,6.459 2284.6523,6.4109 2292.948,6.3767 2301.4072,6.3312 2310.0276,6.2954 2318.803,6.2396 2327.7324,6.1925 2336.8079,6.1505 2346.0232,6.1143 2355.3813,6.0568 2364.8723,6.0092 2374.4871,5.9566 2384.2317,5.9332 2394.1008,5.8764 2404.0911,5.8542 2414.0913,5.8206 2423.5725,5.7897 2432.3535,5.7434 2440.5073,5.6852 2448.0598,5.6088 2455.02,5.5243 2461.4714,5.4396 2467.8164,5.335 2474.2358,5.2271 2480.8401,5.1066 2487.489,5.0352 2494.2393,4.9638 2501.1541,4.8965 2508.0071,4.847 2514.8972,4.8033 2521.873,4.7707 2528.7961,4.7408 2535.7915,4.7127 2542.7085,4.6907 2549.6758,4.6797 2556.7227,4.6604 2563.8411,4.6532 2570.9705,4.6394 2578.2693,4.6244 2585.6128,4.6334 2593.2427,4.645 2601.0391,4.6426 2609.0881,4.6114 2617.3308,4.5641 2625.7974,4.5107 2634.3738,4.4408 2643.0906,4.3906 2652.0027,4.3562 2661.0381,4.3161 2670.218,4.2921 2679.5413,4.2747 2689.0085,4.2572 2698.5916,4.2552 2708.292,4.2273 2718.1189,4.2225 2728.071,4.2085 2738.1399,4.2002 2748.1819,4.1908 2757.6492,4.175 2766.3621,4.1729 2774.4036,4.1612 2782.0845,4.1444 2789.2134,4.1498 2795.7144,4.1403 2801.6082,4.1275 2807.1763,4.1072 2812.6667,4.0693 2818.0217,4.0155 2823.0571,3.9426 2827.9927,3.8562 2833.1003,3.7819 2838.4736,3.7141 2844.0715,3.6632 2849.7297,3.6472 2855.5938,3.6518 2861.1406,3.6817 2866.7522,3.7454 2872.5715,3.7957 2878.6177,3.8489 2884.9099,3.8667 2891.4426,3.8614 2898.2092,3.8536 2905.1946,3.815 2912.3958,3.7658 2919.7881,3.7379 2927.3684,3.6905 2935.1367,3.6383 2943.0571,3.5806 2951.1458,3.5547 2959.3838,3.5018 2967.7534,3.4645 2976.2878,3.4116 2984.9744,3.4143 2993.8086,3.4092 3002.7922,3.4142 3011.9229,3.4275 3021.2007,3.4393 3030.6135,3.4474 3040.1543,3.4279 3049.823,3.4334 3059.6191,3.4263 3069.5378,3.434 3079.5701,3.4327 3089.6846,3.4411 3099.9189,3.4245 3110.2737,3.4256 3120.7346,3.4167 3131.301,3.423 3141.9741,3.4012 3152.7515,3.4028 3163.6313,3.3851 3174.6086,3.4035 3185.6992,3.4188 3196.8811,3.4572 3208.1514,3.5185 3219.4998,3.5912 3230.938,3.6277 3242.4441,3.6367 3254.0283,3.6198 3265.7029,3.6161 3277.4487,3.5534 3289.2695,3.4831 3301.1741,3.3789 3313.1567,3.2413 3325.2134,3.0618 3337.3464,2.839 3349.5586,2.5777 3361.8293,2.2703 3374.1697,1.9653 3386.5859,1.6601 3399.0793,1.3411 3411.647,1.0297 3424.2883,0.7083 3437.0017,0.4039 3449.7842,0.1062 3462.6333,-0.1872 3475.5444,-0.4842 3488.5188,-0.7827 3501.5535,-1.0818 3514.6531,-1.286 3527.8081,-1.4273 3541.0181,-1.5319 3554.282,-1.5884 3567.5942,-1.5995 3580.9558,-1.5722 3594.3621,-1.472 3607.8176,-1.3365 3621.3188,-1.1304 3634.8479,-0.9097 3648.4146,-0.6814 3662.0188,-0.4533 3675.6565,-0.2265 3689.3298,0.0278 3703.0381,0.2607 3716.7803,0.49 3730.5549,0.6994 3744.3604,0.8833 3758.1943,1.0613 3772.0662,1.2214 3785.9412,1.3664 3799.3472,1.4909 3811.9226,1.588 3823.6641,1.6641 3834.6165,1.7193 3844.7607,1.7847 3854.176,1.8268 3862.8909,1.8457 3870.915,1.8522 3878.3008,1.8491 3885.1111,1.8457 3891.4299,1.8275 3897.5059,1.7924 3903.5334,1.7496 3909.6643,1.7091 3916.0901,1.6854 3922.2056,1.6625 3928.3584,1.6731 3934.6577,1.6803 3941.1204,1.67 3947.8857,1.6321 3954.8994,1.5785 3962.3315,1.5216 3970.0344,1.4722 3978.1072,1.3988 3985.9346,1.3655 3993.3296,1.3323 4000.728,1.2507 4007.9619,1.2122 4015.1245,1.1685 4022.3452,1.1376 4029.4802,1.1061 4036.7922,1.0585 4044.1685,1.0039 4051.7214,0.9452 4059.3821,0.8984 4067.1917,0.8757 4075.0378,0.8352 4083.0713,0.8082 4091.7852,0.7878 4101.0244,0.7662 4109.7563,0.7315 4118.5034,0.7172 4126.9663,0.7051 4135.5581,0.6878 4144.3296,0.6362 4153.2563,0.6111 4162.3501,0.5784 4171.6226,0.525 4181.0278,0.4805 4190.5693,0.4413 4200.2397,0.3734 4210.0347,0.3147 4219.9565,0.256 4230.0005,0.1844 4240.1318,0.116 4250.3711,0.0725 4260.7104,0.0146 4271.1938,-0.0219 4281.7441,-0.0756 4292.3936,-0.1327 4303.2017,-0.1979 4314.1206,-0.2526 4325.1494,-0.3601 4336.2393,-0.4227 4347.417,-0.4958 4358.6948,-0.5835 4370.0752,-0.6592 4381.5635,-0.7477 4393.1279,-0.8273 4404.7715,-0.9093 4416.4888,-0.9765 4428.2739,-1.0683 4440.1426,-1.1144 4452.0972,-1.1887 4464.1328,-1.2451 4476.2495,-1.3144 4488.4414,-1.379 4500.6924,-1.4439 4512.9951,-1.4943 4525.3667,-1.5599 4537.8159,-1.6317 4550.334,-1.6917 4562.9204,-1.7583 4575.5601,-1.8307 4588.2588,-1.8905 4601.0215,-1.963 4613.8447,-2.0301 4626.7271,-2.1039 4639.666,-2.1851 4652.6646,-2.2557 4665.7173,-2.3227 4678.8286,-2.4031 4692.0039,-2.4928 4705.231,-2.5681 4718.5073,-2.6484 4731.8354,-2.7182 4745.208,-2.7775 4758.6289,-2.8418 4772.0977,-2.9054 4785.6128,-2.9866 4799.1772,-3.0675 4812.7847,-3.13 4826.4272,-3.2128 4840.1006,-3.296 4853.8252,-3.3628 4867.6318,-3.4431 4881.4341,-3.5212 4895.2896,-3.5932 4909.1841,-3.6809 4923.105,-3.7324 4937.0771,-3.8259 4951.0913,-3.9086 4965.1416,-3.9581 4979.1821,-4.0239 4992.6509,-4.0798 5005.252,-4.1318 5016.9756,-4.1656 5027.877,-4.1897 5037.9893,-4.2106 5047.4336,-4.2498 5056.1973,-4.2892 5064.2847,-4.3017 5071.7998,-4.3428 5078.938,-4.3937 5085.8604,-4.4467 5092.731,-4.502 5099.7095,-4.5754 5107.0361,-4.6451 5114.4014,-4.7007 5121.9927,-4.7457 5129.2617,-4.796 5136.6436,-4.8486 5143.897,-4.885 5151.52,-4.9312 5158.9673,-4.9559 5166.7012,-4.9611 5174.3315,-4.9707 5182.2905,-4.9586 5190.0957,-4.9395 5198.1895,-4.9083 5206.3979,-4.8809 5214.5098,-4.8348 5222.7832,-4.7982 5231.0957,-4.7571 5239.48,-4.7187 5247.9639,-4.6817 5256.5596,-4.6277 5265.3071,-4.5744 5274.0464,-4.5159 5282.8584,-4.4524 5291.728,-4.3854 5300.7515,-4.3303 5309.6431,-4.2909 5318.6284,-4.2455 5327.7554,-4.2012 5337.0142,-4.1579 5346.4189,-4.1242 5355.9517,-4.0909 5365.7012,-4.0677 5375.4839,-4.0158 5385.3179,-3.9607 5395.2676,-3.9141 5405.3481,-3.8629 5415.543,-3.7898 5425.8232,-3.7373 5436.1699,-3.6885 5446.6758,-3.6168 5457.2886,-3.5843 5468.0537,-3.5443 5478.9307,-3.5059 5489.8799,-3.4886 5500.9204,-3.4566 5512.0835,-3.3881 5523.3306,-3.3645 5534.665,-3.2923 5546.0815,-3.2053 5557.5962,-3.1282 5569.1875,-3.0584 5580.8628,-2.9623 5592.6309,-2.8899 5604.4653,-2.8143 5616.3638,-2.7412 5628.3428,-2.6672 5640.4014,-2.5852 5652.5991,-2.5059 5664.9092,-2.4268 5677.2505,-2.3457 5689.5864,-2.2771 5702.062,-2.2179 5714.5269,-2.1504 5727.061,-2.0793 5739.6606,-2.0319"/>
</svg>
