<?xml version="1.0" encoding="utf-8"?>
<!-- Track map generated with TinyPedal -->
<svg viewBox="-1156.2804 -751.3427 2150.0462 1268.0286" version="1.1" xmlns="http://www.w3.org/2000/svg">
	<title>Paul Ricard - ELMS</title>
	<!-- Sector coordinates index -->
	<desc>187,388</desc>
	<!-- Raw global coordinates -->
	<polyline id="map" fill="none" stroke="black" stroke-width="10" points="95.6957,60.0111 81.8787,49.9202 74.0251,44.1594 65.2249,37.6992 56.3484,31.1773 46.4968,23.9346 38.3705,17.955 29.2741,11.255 20.1081,4.4979 10.8628,-2.2995 1.4999,-9.0807 -7.9461,-15.8922 -17.457,-22.7564 -27.0116,-29.665 -36.6236,-36.6183 -47.2733,-44.3194 -56.0439,-50.6631 -65.8475,-57.7587 -75.7131,-64.9028 -85.6416,-72.0931 -95.6309,-79.3281 -105.6941,-86.5878 -115.8175,-93.8879 -125.9952,-101.2344 -136.2278,-108.6246 -146.5152,-116.0545 -156.8663,-123.5096 -167.2946,-130.9669 -177.865,-138.3316 -188.5327,-145.6656 -200.2326,-153.9024 -209.8136,-160.7237 -220.5021,-168.3377 -231.2315,-175.9921 -242.0001,-183.6866 -252.8032,-191.4244 -263.6407,-199.2027 -274.5179,-207.0115 -285.4339,-214.8492 -296.3854,-222.7176 -307.3712,-230.6172 -318.2668,-238.4459 -328.7381,-245.9446 -338.5521,-252.9536 -347.7497,-259.3902 -356.4616,-265.1883 -364.6807,-270.3504 -372.2646,-275.0406 -379.2453,-279.3339 -385.8112,-283.1165 -392.1041,-286.3136 -398.185,-288.9449 -404.0612,-291.032 -408.0621,-292.1673 -409.7612,-292.5691 -415.369,-293.5481 -420.9016,-293.99 -426.3694,-293.8947 -431.6936,-293.3722 -436.9379,-292.4617 -442.19,-291.0819 -447.9455,-288.9113 -452.6267,-286.6603 -457.7692,-283.6784 -463.3242,-279.8547 -467.8929,-276.4783 -473.0858,-272.6066 -478.4574,-268.6909 -484.1303,-264.9336 -490.1738,-261.5218 -496.5608,-258.5148 -503.2315,-256.0074 -510.1302,-254.0464 -517.2362,-252.5586 -524.5643,-251.5611 -532.0806,-251.0878 -539.7604,-251.1132 -547.5581,-251.6774 -555.4553,-252.8064 -563.4404,-254.4532 -571.4533,-256.6482 -579.4541,-259.3994 -587.4258,-262.5833 -594.5341,-265.7839 -603.0496,-270.2676 -610.7344,-274.745 -618.4056,-279.5191 -626.004,-284.66 -633.6376,-289.9982 -641.2179,-295.6386 -648.6994,-301.6167 -656.0541,-307.8845 -663.417,-314.3139 -670.9065,-320.7794 -678.5341,-327.2422 -686.3752,-333.6216 -694.5252,-339.7907 -702.9544,-345.7653 -711.514,-351.7527 -721.0031,-358.4541 -728.733,-364.1429 -737.3712,-370.563 -746.197,-376.8932 -755.2666,-383.043 -764.4794,-389.1566 -773.8679,-395.1712 -783.4329,-401.0784 -793.2013,-406.8202 -803.186,-412.3581 -813.385,-417.6732 -823.7868,-422.7675 -834.4005,-427.5292 -845.2704,-431.8687 -856.2997,-435.866 -866.8577,-439.6583 -876.6685,-443.213 -886.0555,-446.6433 -895.05,-450.1546 -903.806,-453.9462 -912.4066,-457.7349 -920.6258,-461.6053 -928.4266,-465.7451 -935.8486,-470.0833 -943.0261,-474.406 -949.9532,-478.5826 -956.4678,-482.5157 -962.4274,-486.1315 -967.8309,-489.4802 -972.9258,-492.8225 -977.7523,-496.2621 -982.3197,-499.9231 -986.6489,-503.8801 -990.5458,-508.1755 -994.0385,-512.7408 -997.3936,-517.4075 -1000.5432,-522.2201 -1003.2418,-527.2743 -1005.4338,-532.5445 -1007.0531,-538.0126 -1008.1669,-543.6425 -1008.9009,-549.4155 -1009.4106,-555.3141 -1009.8535,-561.9327 -1010.2962,-567.3965 -1011.1754,-573.3055 -1012.5497,-578.9211 -1014.4287,-584.1497 -1016.7183,-588.965 -1019.415,-593.5172 -1022.4948,-597.767 -1025.9277,-601.61 -1029.5638,-605.0695 -1033.3334,-608.1856 -1037.3713,-610.9075 -1041.6672,-613.1514 -1046.1671,-614.8631 -1050.8691,-616.0602 -1055.7699,-616.7758 -1060.9214,-617.166 -1066.3104,-617.158 -1071.8743,-616.6899 -1078.2366,-615.8132 -1083.6798,-615.1648 -1089.9104,-614.6681 -1095.9788,-614.5514 -1101.5024,-614.7849 -1106.5768,-615.3271 -1111.234,-616.2438 -1115.5557,-617.5815 -1119.5149,-619.353 -1123.0756,-621.5063 -1126.2062,-624.0201 -1128.8842,-626.8561 -1131.1128,-629.9368 -1132.821,-633.213 -1134.0891,-636.6689 -1135.2246,-640.7006 -1135.8531,-644.2084 -1136.2427,-648.3145 -1136.2804,-652.633 -1135.8951,-657.0873 -1135.2595,-661.7828 -1134.374,-666.7428 -1133.1211,-671.9071 -1131.6096,-677.2881 -1129.7677,-682.7692 -1127.4846,-688.3148 -1124.756,-693.8764 -1121.6945,-699.3019 -1118.2094,-704.5027 -1114.2593,-709.4854 -1109.8701,-714.1195 -1105.1744,-718.2572 -1100.2258,-721.8951 -1095.0331,-724.9754 -1089.6344,-727.4595 -1084.0651,-729.3093 -1078.3665,-730.5529 -1072.5951,-731.2162 -1066.7958,-731.3427 -1060.3523,-730.8755 -1055.0228,-729.9954 -1048.5284,-728.296 -1043.2921,-726.3638 -1037.5236,-723.7221 -1031.7701,-720.6515 -1025.97,-717.4109 -1019.5718,-713.5803 -1014.4032,-710.0635 -1008.8033,-705.6712 -1003.3768,-700.7911 -998.0456,-695.5482 -992.9894,-689.8863 -988.3503,-683.7706 -984.2042,-677.2358 -980.4998,-670.3331 -977.1487,-663.0778 -973.9082,-655.5858 -970.6226,-647.9328 -967.2767,-640.1313 -963.8221,-632.2095 -960.045,-624.2831 -955.7507,-616.4969 -950.9113,-608.9228 -945.5351,-601.6038 -939.6671,-594.5404 -933.3354,-587.7814 -926.5771,-581.3323 -919.398,-575.2375 -911.8594,-569.4924 -903.9258,-564.1522 -895.6339,-559.2059 -886.9952,-554.6728 -878.0989,-550.3849 -869.0621,-546.1145 -859.8926,-541.8551 -850.5104,-537.8302 -840.8499,-534.2655 -830.9788,-530.9845 -820.9717,-527.7888 -810.8159,-524.7388 -800.5651,-521.6601 -790.2348,-518.512 -778.7676,-515.0145 -769.3228,-512.0769 -758.7999,-508.6242 -748.1993,-505.1222 -736.4432,-501.2362 -726.7532,-498.0277 -715.9122,-494.4326 -706.0897,-491.1708 -694.0009,-487.1516 -682.9331,-483.4669 -671.7934,-479.7524 -659.481,-475.6454 -649.351,-472.2644 -638.0302,-468.4809 -626.6429,-464.6671 -615.1911,-460.8247 -603.6746,-456.9563 -592.0956,-453.0598 -580.4551,-449.1368 -568.7546,-445.1888 -556.994,-441.2184 -543.9901,-436.8223 -533.2996,-433.2018 -521.3696,-429.1524 -509.3868,-425.0744 -497.3526,-420.9693 -485.2684,-416.8391 -473.1341,-412.6867 -460.9497,-408.5143 -448.7179,-404.3177 -436.4434,-400.0862 -424.1221,-395.8358 -411.7466,-391.5926 -399.3195,-387.3473 -385.5994,-382.6547 -374.3321,-378.8105 -361.7715,-374.5217 -349.1713,-370.2106 -336.5322,-365.8768 -323.8544,-361.5227 -311.1378,-357.1532 -298.3791,-352.7813 -285.5616,-348.4575 -272.6615,-344.2645 -259.7221,-340.069 -246.7532,-335.8441 -233.749,-331.61 -220.7198,-327.334 -207.6603,-323.0358 -194.5657,-318.7329 -181.4302,-314.4461 -168.2696,-310.1272 -155.0965,-305.7408 -141.9079,-301.3008 -128.7122,-296.7873 -115.4888,-292.2619 -102.2402,-287.7229 -87.6383,-282.7113 -75.6889,-278.541 -62.3934,-273.8801 -49.0817,-269.2104 -34.6982,-264.1625 -23.6042,-260.2664 -12.0422,-256.2135 -1.1747,-252.4146 8.8903,-248.8788 19.0857,-245.2878 26.81,-242.6096 34.8754,-240.0732 42.5329,-238.048 49.7914,-236.5434 56.6303,-235.5242 63.0341,-234.9535 68.9707,-234.8299 74.5866,-235.127 80.0204,-235.8956 85.2171,-237.0723 90.3028,-238.5514 95.2691,-240.5995 100.1181,-243.1117 104.7073,-246.1113 109.0005,-249.6024 113.1202,-253.5295 117.2884,-257.6425 121.4575,-261.4098 125.5535,-264.6489 129.5917,-267.3108 133.5625,-269.3849 137.4975,-270.9169 141.5763,-272.0543 145.911,-272.8482 150.4311,-273.1819 155.0159,-272.9944 159.6107,-272.2531 164.2061,-271.028 168.7486,-269.345 173.1533,-267.1572 177.3469,-264.4689 181.352,-261.3032 185.2802,-257.7544 189.2821,-253.9526 193.3474,-249.8683 197.5079,-245.5626 201.832,-241.0696 206.3206,-236.4086 211.0519,-231.6731 216.0986,-226.9552 216.619,-226.4844 221.4334,-222.2534 227.1491,-217.7159 233.1737,-213.2632 239.3641,-208.7725 245.7528,-204.2359 252.2993,-199.6071 259.0224,-194.9247 265.9895,-190.2998 273.1794,-185.7157 280.5434,-181.1088 288.0868,-176.5005 295.8232,-171.9261 303.7838,-167.4579 311.9736,-163.1249 320.3593,-158.8764 328.9153,-154.6735 337.6765,-150.6294 346.6772,-146.9109 355.8974,-143.4192 365.2521,-139.9441 374.7313,-136.4702 384.3528,-133.0606 394.1034,-129.6865 403.9567,-126.2792 413.9083,-122.8352 423.9554,-119.3542 434.096,-115.8384 444.3279,-112.2876 454.652,-108.7177 465.1055,-105.2557 475.6753,-101.8703 486.3279,-98.4606 497.0548,-95.0049 508.9215,-91.1011 518.6909,-87.8632 529.5611,-84.09 540.4861,-80.2429 551.4448,-76.2703 562.457,-72.2294 573.5218,-68.1712 584.6837,-64.2238 595.9834,-60.4701 607.3698,-56.7646 618.8371,-53.0975 630.4261,-49.615 642.1071,-46.224 653.8436,-42.8075 665.6033,-39.2615 677.3474,-35.4828 689.0817,-31.4952 700.8265,-27.3705 712.6167,-23.2161 724.4794,-19.1212 736.4402,-15.1652 748.4491,-11.199 760.5042,-7.2155 772.6039,-3.2164 784.7486,0.8 796.9349,4.8388 810.3315,9.2904 821.1903,12.9486 833.0256,17.2163 844.4407,21.8807 855.5544,26.8179 866.2531,32.1413 876.4376,37.968 886.1208,44.3269 895.2721,51.2105 903.9291,58.5335 912.074,66.2652 919.6606,74.4018 926.6198,82.9442 932.9333,91.8414 938.6898,101.0895 944.0047,110.6915 948.8572,120.6263 953.2682,130.8343 957.2301,141.2964 960.7012,152.0018 963.6108,162.9308 965.9061,174.0706 967.5873,185.3911 968.7646,196.859 969.5519,208.4462 970.0191,220.1348 970.32,231.9165 970.4877,243.7859 970.6537,255.7412 970.9432,267.7742 971.3862,279.8848 971.866,292.072 972.4547,304.26 973.0589,316.3614 973.4941,327.9794 973.669,338.9915 973.7658,349.437 973.578,359.2531 972.9952,368.5156 972.0009,377.3979 970.5953,385.9081 968.8248,394.2957 966.9057,402.6087 964.7522,410.8187 962.2197,418.8714 959.2914,426.7392 955.949,434.3918 952.1808,441.8043 947.9235,448.891 943.2427,455.6467 938.1589,462.0229 932.7828,467.9215 927.333,473.1333 921.6494,477.7614 915.6553,481.8659 909.3995,485.4435 902.2726,488.7461 896.2911,490.994 889.5884,493.2179 882.9058,495.0018 876.2464,496.1552 869.5757,496.6859 862.9484,496.6178 856.4326,495.9478 849.4878,494.532 843.9601,492.874 837.9523,490.6449 832.068,488.1788 826.4391,485.2757 821.1024,481.8932 816.0728,478.087 811.4373,473.9277 807.2507,469.4181 803.4883,464.5515 800.1103,459.374 797.1774,453.8876 794.6079,448.1552 792.4129,442.1942 790.6825,436.0116 789.5428,429.6432 788.9987,423.1396 788.8491,416.467 789.0924,409.6309 789.8309,402.6914 791.1246,395.7284 792.9822,388.7684 795.3589,381.8004 798.2368,374.848 801.5217,367.892 805.2031,360.9539 809.5041,353.2424 813.275,346.9227 817.9342,340.0544 823.0795,333.382 828.6916,326.9164 835.1677,319.8538 841.1537,313.3265 846.5422,307.3004 852.3722,300.3125 858.1433,293.1103 863.9521,285.7778 869.7314,278.3043 875.0389,270.9324 879.685,263.843 883.2961,257.7159 887.0416,250.457 889.7928,244.0027 891.9095,237.704 893.4561,231.6713 894.6306,226.0815 895.5308,220.5989 895.9688,215.0553 895.9182,209.3866 895.5719,203.5645 894.8719,197.6909 893.801,191.9294 892.3461,186.3707 890.6013,181.1696 888.7659,176.378 886.4481,171.5195 884.199,167.8263 881.2391,163.9085 877.8083,160.2729 873.9648,157.0051 869.7996,154.1407 865.4265,151.6937 860.985,149.613 856.461,148.0022 851.7877,146.8439 847.0025,146.1504 842.25,145.9312 837.4445,146.1459 832.5695,146.8515 827.6671,148.0712 822.749,149.7867 817.7123,151.8822 812.4763,154.2074 807.0716,156.8122 801.4719,159.6103 795.6848,162.5867 789.6851,165.6662 783.4713,168.8117 777.0291,171.975 770.335,175.0434 763.3521,177.8584 756.0443,180.3258 748.4584,182.5282 740.6456,184.6014 731.8143,186.799 724.416,188.5516 715.9966,190.3177 707.3644,191.7339 698.5397,192.9192 689.5519,194.0044 680.3973,194.7072 671.0819,194.9436 661.6305,194.7674 652.079,194.1216 642.4717,193.0211 632.8036,191.4554 623.097,189.4449 613.3657,187.0084 603.6048,184.2441 593.8785,181.0031 584.2188,177.2689 574.6865,172.9951 565.3107,168.1842 556.1098,162.8549 546.9795,157.2151 537.9632,151.485 529.5455,146.0297 521.7422,140.9589 514.5566,136.2663 508.0006,131.8908 502.0275,127.7683 496.6588,123.9115 491.8091,120.3774 487.4475,117.196 483.5219,114.3467 479.8643,111.8186 476.3254,109.5603 472.6704,107.4571 468.7956,105.622 464.7271,104.0529 460.0572,102.5545 456.0916,101.4366 451.5342,100.3358 446.8008,99.6089 441.9227,99.3583 436.9261,99.5212 431.8161,99.7886 426.6162,100.2506 421.4056,101.2062 416.255,102.7007 411.2119,104.719 406.2928,107.2036 401.5075,110.0997 396.7808,113.2513 392.0768,116.5745 387.6311,120.2625 383.6281,124.331 380.1448,128.6835 377.2094,133.2914 374.8401,138.1394 372.9581,143.2478 371.4918,148.6099 370.4828,154.1873 369.9313,159.934 369.6937,166.4562 369.7333,171.9416 369.9555,178.2099 370.4176,184.6318 370.9279,190.9966 371.3985,196.9832 371.7052,202.3689 371.6867,207.2132 371.3019,211.5904 370.5677,215.4969 369.5317,218.9552 368.1969,221.9819 366.5405,224.5961 364.5686,226.7821 362.3129,228.5595 359.7945,229.9598 357.0571,231.0182 354.1269,231.8674 350.952,232.4941 347.5739,232.8983 344.0737,233.1422 340.4659,232.984 336.7676,232.4521 333.019,231.5466 329.2543,230.2506 325.5215,228.5422 321.7922,226.5166 317.966,224.2424 313.9332,221.6978 309.6989,218.9009 305.3636,215.7512 300.9023,212.3096 296.2967,208.69 291.5031,204.907 286.4919,201.0041 281.2855,196.9671 275.8905,192.804 270.3036,188.5338 264.5116,184.19 258.5603,179.7224 252.5208,175.1026 246.347,170.356 240.0172,165.5105 233.5237,160.589 226.8951,155.5645 220.1223,150.4594 213.1364,145.378 206.0071,140.2314 198.7757,134.9712 191.4341,129.6164 183.9804,124.1767 175.6567,118.0962 168.7527,113.047 160.9842,107.3614 153.0901,101.6817 145.0191,96.0478 136.8559,90.3305 128.6116,84.5195 120.2723,78.6399 111.8623,72.6618 103.3701,66.6069"/>
	<!-- Raw distance reference points -->
	<polyline id="dist" fill="none" stroke="none" stroke-width="0" points="5800.4028,0.4331 14.4443,0.4092 25.2618,0.4142 36.1786,0.4024 47.1916,0.3805 58.3033,0.3405 69.5093,0.323 80.8096,0.2795 92.1956,0.2754 103.6594,0.2628 115.2171,0.226 126.8626,0.1746 138.5941,0.0901 150.3849,0.027 162.2526,-0.056 174.2848,-0.1794 186.2358,-0.3144 198.33,-0.5284 210.5012,-0.741 222.7532,-0.9388 235.0887,-1.1646 247.499,-1.3586 259.9874,-1.5864 272.5489,-1.8182 285.1715,-2.0073 297.8826,-2.2083 310.6353,-2.4125 323.4356,-2.6891 336.3109,-2.8956 349.2636,-3.1191 362.2768,-3.3616 375.3464,-3.538 388.4707,-3.7299 401.6332,-3.8986 414.8647,-4.036 428.1608,-4.1767 441.5145,-4.2734 454.9067,-4.3446 468.3403,-4.4494 481.8113,-4.5108 495.3423,-4.5273 508.7449,-4.4578 521.6118,-4.4449 533.6636,-4.4481 544.8669,-4.4531 555.3059,-4.467 564.9883,-4.4544 573.8602,-4.409 582.0426,-4.3679 589.6202,-4.3452 596.6268,-4.3216 603.1286,-4.3081 609.2164,-4.3184 612.8809,-4.3396 614.9631,-4.3517 620.508,-4.4053 626.6756,-4.4906 632.8184,-4.5815 638.925,-4.672 645.051,-4.7658 651.9981,-4.8958 658.0648,-5.003 664.1439,-5.0724 670.228,-5.0825 676.3985,-5.0082 682.6776,-4.8759 689.1302,-4.6798 695.7495,-4.5037 702.498,-4.3878 709.3824,-4.3021 716.4592,-4.2728 723.6517,-4.2882 731.2213,-4.3307 738.7585,-4.4443 746.7856,-4.6198 754.5995,-4.8474 762.7268,-5.1556 770.6834,-5.5047 778.7603,-5.8115 786.752,-6.0424 794.8808,-6.193 803.1853,-6.2954 811.6423,-6.3667 820.2495,-6.4432 828.9911,-6.5176 837.8134,-6.5891 846.6879,-6.6691 855.7684,-6.7451 864.8479,-6.8273 874.0074,-6.8868 883.311,-6.9443 892.8547,-6.9804 902.7058,-7.0747 912.7114,-7.2673 922.8415,-7.2595 933.1027,-7.3641 943.432,-7.3849 953.8209,-7.4499 964.3148,-7.4894 974.9498,-7.5444 985.665,-7.5974 996.4989,-7.6555 1007.4332,-7.6886 1018.4984,-7.7669 1029.6619,-7.8161 1040.9792,-7.8807 1052.3301,-7.9517 1063.754,-8.0308 1075.2397,-8.1369 1086.8551,-8.2419 1098.5369,-8.3372 1110.2747,-8.4656 1122.1141,-8.5357 1133.8986,-8.5874 1145.0898,-8.6748 1155.49,-8.7479 1165.3744,-8.8399 1174.8844,-8.9738 1184.2933,-9.1306 1193.5879,-9.2284 1202.626,-9.4216 1211.4371,-9.5839 1220.0162,-9.7544 1228.3409,-9.9424 1236.3466,-10.1383 1243.9305,-10.3309 1250.8802,-10.5227 1257.1937,-10.684 1263.2584,-10.8303 1269.1445,-10.9618 1274.9252,-11.0799 1280.6713,-11.1878 1286.2911,-11.2919 1291.9037,-11.3978 1297.793,-11.5123 1304.0031,-11.6187 1311.3284,-11.7234 1317.8949,-11.8402 1324.4081,-11.9046 1331.1978,-11.9394 1336.9182,-11.9912 1342.658,-12.0528 1348.5616,-12.1408 1354.5962,-12.2246 1360.575,-12.3423 1366.7399,-12.4729 1372.5695,-12.5683 1378.2031,-12.6615 1383.8346,-12.754 1389.4786,-12.8521 1395.0454,-12.9234 1400.4518,-13.012 1405.6952,-13.0788 1411.2151,-13.1292 1416.4227,-13.1888 1421.5959,-13.2442 1426.7397,-13.308 1431.9034,-13.3783 1437.2039,-13.4378 1442.6791,-13.5055 1448.3187,-13.5917 1454.2025,-13.6793 1460.3876,-13.7229 1466.7701,-13.7627 1472.7928,-13.7858 1478.224,-13.7812 1483.1838,-13.8227 1487.75,-13.8688 1492.0854,-13.9136 1496.3075,-13.9495 1500.1,-13.9859 1504.2032,-14.0012 1508.8203,-13.9927 1517.7391,-13.9621 1524.0762,-13.8869 1529.6443,-13.792 1534.4948,-13.724 1538.5817,-13.6742 1542.4688,-13.62 1546.5789,-13.5855 1550.9342,-13.5695 1555.5935,-13.5773 1560.5858,-13.595 1565.9065,-13.6099 1571.5074,-13.652 1577.2876,-13.7013 1583.2435,-13.7689 1589.3572,-13.8268 1595.5129,-13.9002 1601.8354,-13.9633 1608.3035,-14.0377 1614.8806,-14.1062 1621.7455,-14.1696 1628.1389,-14.2307 1634.4128,-14.2819 1640.6161,-14.314 1647.0238,-14.2992 1653.0167,-14.257 1658.9126,-14.2116 1664.7233,-14.1968 1670.5483,-14.2009 1676.4103,-14.2033 1682.4021,-14.2185 1688.4902,-14.2123 1694.7365,-14.2194 1701.1013,-14.222 1707.6589,-14.2164 1714.3262,-14.2075 1721.0575,-14.1961 1728.0745,-14.1765 1735.2788,-14.1585 1742.5874,-14.137 1750.1007,-14.1133 1757.6188,-14.0791 1765.2422,-14.0241 1772.9376,-13.9922 1780.8118,-13.9526 1788.9667,-13.9048 1797.371,-13.8571 1805.9238,-13.7874 1814.7841,-13.6806 1823.6512,-13.5853 1832.5317,-13.4646 1841.4191,-13.3278 1850.3065,-13.1638 1859.2085,-13.0014 1868.4462,-12.8295 1878.2982,-12.6877 1888.5175,-12.5446 1898.7504,-12.4568 1908.7485,-12.3849 1918.3564,-12.3494 1927.9868,-12.2984 1937.7759,-12.2228 1947.7247,-12.1375 1957.771,-12.0362 1967.9443,-11.9276 1978.2301,-11.8177 1988.6395,-11.6597 1999.1501,-11.5416 2009.7524,-11.3516 2020.4447,-11.239 2031.2384,-11.0561 2042.1279,-10.8717 2053.1101,-10.724 2064.1826,-10.5632 2075.3467,-10.4072 2086.5911,-10.2569 2097.9255,-10.127 2109.3469,-10.0013 2120.856,-9.8892 2132.4448,-9.7674 2144.1147,-9.6678 2155.8525,-9.551 2167.6492,-9.3788 2179.5112,-9.2718 2191.46,-9.1635 2203.4749,-9.0644 2215.5562,-8.9279 2227.7043,-8.8018 2239.9238,-8.6907 2252.2112,-8.5792 2264.5603,-8.4482 2276.969,-8.3375 2289.4456,-8.2233 2301.9814,-8.1361 2314.5774,-8.0336 2327.23,-7.919 2339.9456,-7.7921 2352.7136,-7.6325 2365.5408,-7.4808 2378.4229,-7.3483 2391.3606,-7.2181 2404.3494,-7.0951 2417.3794,-6.969 2430.4614,-6.8188 2443.5942,-6.716 2456.7712,-6.5703 2469.9922,-6.4369 2483.2646,-6.3277 2496.585,-6.2052 2509.949,-6.0756 2523.3635,-5.9356 2536.8154,-5.7822 2550.2979,-5.614 2563.821,-5.4979 2577.3872,-5.3542 2590.9902,-5.2404 2604.6304,-5.1149 2618.303,-4.9357 2632.0178,-4.7874 2645.7681,-4.6455 2659.5459,-4.4964 2673.3423,-4.3286 2687.2026,-4.1835 2701.0962,-4.0489 2715.0208,-3.872 2728.9756,-3.6785 2742.9617,-3.4731 2756.967,-3.2534 2770.9919,-3.0057 2785.0439,-2.8318 2799.1443,-2.642 2813.2649,-2.4368 2827.1367,-2.2306 2840.2576,-2.0733 2852.5466,-1.9032 2864.0562,-1.8259 2874.7317,-1.7351 2884.6021,-1.6234 2893.7202,-1.5454 2902.1736,-1.457 2910.0703,-1.3791 2917.417,-1.2984 2924.2112,-1.2212 2930.4478,-1.1465 2936.2004,-1.0486 2941.9167,-0.9804 2947.7986,-0.8984 2953.675,-0.7298 2959.3806,-0.6733 2964.9639,-0.497 2970.4519,-0.342 2975.8811,-0.1588 2981.3943,0.0618 2987.0896,0.2922 2992.9553,0.5361 2998.5889,0.7931 3003.8281,1.0161 3008.6902,1.2057 3013.2388,1.3648 3017.7024,1.4987 3022.4607,1.6241 3027.6523,1.7495 3033.1035,1.9 3038.6138,2.0279 3044.2397,2.1634 3050.019,2.2974 3056.3318,2.4258 3061.4395,2.534 3066.467,2.615 3071.5337,2.6778 3076.6885,2.7268 3082.0332,2.7493 3087.6802,2.7513 3093.6208,2.7146 3099.9419,2.6642 3107.1257,2.6288 3114.1238,2.5471 3121.3984,2.4357 3122.1174,2.43 3128.655,2.3713 3136.1797,2.2743 3143.7258,2.197 3151.4099,2.1244 3159.2493,2.0346 3167.2646,1.9577 3175.45,1.8522 3183.8171,1.7599 3192.3469,1.6915 3201.032,1.658 3209.8728,1.6244 3218.8682,1.6074 3228.0222,1.6417 3237.364,1.6583 3246.8579,1.6758 3256.4531,1.6877 3266.1853,1.7124 3276.1204,1.7749 3286.1594,1.8488 3296.1819,1.9186 3306.28,2.0167 3316.4849,2.1302 3326.7991,2.2374 3337.2239,2.3469 3347.7539,2.4676 3358.3889,2.5997 3369.1274,2.719 3379.96,2.8381 3390.8857,2.9944 3401.9021,3.2266 3413.0017,3.4785 3424.186,3.7077 3435.457,3.9162 3446.8042,4.138 3458.2361,4.3711 3469.75,4.6656 3481.3386,4.9388 3492.9985,5.196 3504.7261,5.4424 3516.5088,5.6915 3528.3516,5.954 3540.2642,6.2269 3552.25,6.5233 3564.2949,6.8297 3576.3914,7.1375 3588.5508,7.449 3600.7671,7.7895 3613.0513,8.1263 3625.3892,8.46 3637.7803,8.8015 3650.2317,9.1579 3662.7356,9.5626 3675.2878,10.0065 3687.8896,10.4662 3700.5444,10.9242 3713.2507,11.3501 3726.0042,11.783 3738.8188,12.1874 3751.6785,12.5841 3764.5249,12.9836 3777.2471,13.2998 3789.7966,13.6492 3802.0789,13.9962 3814.1868,14.3103 3826.0593,14.5595 3837.7488,14.7581 3849.3594,14.9198 3860.9312,15.0585 3872.5552,15.1363 3883.9849,15.1843 3895.3442,15.1823 3906.7573,15.2153 3917.9607,15.2543 3929.1423,15.2484 3940.4392,15.1777 3951.8989,15.1302 3963.1675,15.008 3974.4604,14.8612 3985.7217,14.6636 3996.9495,14.4252 4008.2134,14.1972 4019.5393,13.9806 4030.9812,13.7421 4042.6023,13.4912 4054.3098,13.2293 4066.085,12.9705 4077.9629,12.6987 4089.9265,12.4559 4101.9712,12.1943 4114.0884,11.9482 4126.2915,11.7028 4138.4961,11.433 4150.6177,11.1536 4162.2686,10.879 4173.2788,10.5958 4183.7036,10.3298 4193.4937,10.0554 4202.7314,9.7687 4211.5879,9.4563 4220.0679,9.1332 4228.5244,8.8026 4237.1846,8.4446 4245.7832,8.0775 4254.6816,7.6916 4263.8091,7.3065 4272.9097,6.956 4281.7603,6.5522 4290.2969,6.1492 4299.0898,5.7348 4307.7954,5.3541 4315.9766,5.0172 4323.8232,4.7409 4331.3433,4.4768 4338.6597,4.2196 4345.8999,3.9845 4353.062,3.734 4360.1367,3.5411 4367.0742,3.334 4373.8677,3.157 4380.502,2.996 4386.8877,2.8463 4393.3359,2.7168 4399.6938,2.6093 4405.9253,2.5113 4411.8994,2.4383 4418.1416,2.3748 4424.3779,2.3317 4430.5605,2.3034 4436.6133,2.2722 4442.7905,2.2482 4448.8853,2.2119 4454.9019,2.1773 4460.8911,2.1473 4467.0698,2.0817 4473.3726,2.0239 4479.8687,1.9576 4487.0815,1.9345 4494.1016,1.9694 4502.1245,2.1061 4509.3286,2.3325 4516.6353,2.6051 4523.5068,2.9007 4530.4551,3.1718 4537.4951,3.4428 4544.6284,3.7127 4551.9004,3.9666 4559.3687,4.2286 4566.9541,4.4847 4574.7622,4.7578 4582.7231,5.0637 4590.8926,5.3097 4599.1978,5.6039 4607.5493,5.876 4616.0181,6.1664 4624.6152,6.4955 4633.394,6.8112 4642.3286,7.1032 4651.396,7.4119 4660.6055,7.6992 4669.9409,7.9983 4679.3721,8.2934 4688.4409,8.5909 4696.8408,8.8503 4704.6182,9.0791 4711.7627,9.3711 4718.646,9.6307 4725.1304,9.8815 4731.0889,10.1104 4736.7085,10.3127 4742.209,10.4822 4747.7388,10.627 4753.4009,10.7904 4759.2671,10.9458 4765.2427,11.0966 4771.2441,11.2391 4777.0854,11.3703 4782.7026,11.4846 4788.0117,11.578 4793.1382,11.6547 4798.2056,11.6931 4803.4414,11.7193 4808.8672,11.7354 4814.3965,11.7429 4819.9155,11.7206 4825.3457,11.6865 4830.6362,11.6126 4835.8491,11.5466 4841.3877,11.4655 4846.3389,11.3573 4851.0195,11.252 4855.8145,11.1143 4860.6509,10.9495 4865.5645,10.7592 4870.6108,10.548 4875.8887,10.3215 4881.3564,10.0734 4887.3037,9.8197 4893.6045,9.5501 4900.2349,9.2764 4907.2827,9.0141 4914.3994,8.7217 4921.8848,8.4089 4929.3901,8.0928 4937.1782,7.7599 4945.019,7.4432 4953.1538,7.0899 4961.4429,6.7499 4969.8457,6.487 4978.5874,6.228 4987.5327,5.943 4996.6357,5.667 5005.7197,5.4276 5015.0796,5.1921 5024.4526,4.9503 5033.9585,4.7516 5043.5977,4.546 5053.3867,4.3849 5063.3188,4.2027 5073.3652,4.0818 5083.4854,3.9655 5093.6719,3.9085 5103.978,3.8224 5114.3862,3.7444 5124.9966,3.6898 5135.77,3.6694 5146.645,3.6276 5157.4614,3.6148 5168.3936,3.606 5179.2666,3.5923 5189.4321,3.5968 5198.7637,3.5745 5207.2466,3.5514 5215.0244,3.5353 5222.1948,3.5052 5228.7607,3.4903 5234.7935,3.4712 5240.3076,3.4482 5245.3169,3.4026 5249.9526,3.3531 5254.373,3.3125 5258.8408,3.2816 5263.4009,3.2414 5268.0376,3.2055 5272.7568,3.1718 5277.5889,3.1436 5282.5522,3.1126 5287.6382,3.0813 5292.8237,3.0352 5298.1353,2.9896 5303.561,2.9499 5309.0405,2.9234 5314.5767,2.9072 5320.1963,2.8878 5326.1948,2.8566 5332.0034,2.8004 5337.8696,2.7405 5343.8105,2.6839 5349.8242,2.6454 5356.1802,2.6094 5362.1636,2.5805 5368.0151,2.5415 5373.7344,2.5015 5379.3784,2.4833 5385.0649,2.4767 5390.8174,2.4656 5396.7334,2.4483 5402.5767,2.4242 5408.5483,2.3898 5414.6738,2.3415 5420.9878,2.2835 5427.4844,2.2117 5433.8643,2.1589 5439.8506,2.1132 5445.2231,2.0802 5450.0435,2.0625 5454.3984,2.0506 5458.314,2.0513 5461.9385,2.0391 5465.1226,2.0148 5468.542,1.9865 5472.1846,1.9604 5474.8901,1.929 5478.8823,1.8942 5483.2949,1.8684 5488.1138,1.8668 5493.1357,1.8462 5497.9268,1.7986 5502.0991,1.8082 5505.4253,1.8123 5509.2056,1.8128 5512.8569,1.7977 5516.6548,1.7742 5520.6724,1.742 5524.8838,1.7036 5529.3237,1.6523 5534.0869,1.6143 5539.1602,1.5699 5544.5229,1.504 5550.1577,1.4191 5556.0137,1.3701 5562.1167,1.2951 5568.4663,1.1811 5575.0522,1.0712 5581.8652,0.9467 5588.894,0.8456 5596.1343,0.7298 5603.5752,0.6157 5611.1787,0.4948 5618.9639,0.3886 5626.9336,0.3249 5635.0781,0.287 5643.3931,0.2636 5651.8711,0.261 5660.5093,0.2563 5669.3022,0.2531 5678.2437,0.2685 5687.3291,0.2901 5696.5562,0.3097 5705.9199,0.3405 5715.417,0.3789 5725.0435,0.4001 5734.7681,0.4087 5744.6113,0.4036 5754.5776,0.4044 5764.6631,0.4084 5774.8672,0.4048 5785.1865,0.4055 5795.6162,0.4227"/>
</svg>
