<?xml version="1.0" encoding="utf-8"?>
<!-- Track map generated with TinyPedal -->
<svg viewBox="-573.7149 -797.9059 1236.2067 1032.7813" version="1.1" xmlns="http://www.w3.org/2000/svg">
	<title>Sebring International Raceway</title>
	<!-- Sector coordinates index -->
	<desc>291,460</desc>
	<!-- Raw global coordinates -->
	<polyline id="map" fill="none" stroke="black" stroke-width="10" points="-106.5742,-4.5117 -86.5505,-3.9389 -74.6636,-3.6005 -62.6989,-3.2596 -50.6566,-2.9214 -38.5377,-2.668 -26.3444,-2.4558 -14.0793,-2.2524 -1.743,-2.1271 10.6637,-2.0161 23.1392,-1.8983 35.6819,-1.7768 48.2905,-1.6528 60.9606,-1.5256 73.6934,-1.3709 86.4875,-1.207 99.3422,-1.0424 112.2561,-0.8782 125.2276,-0.7105 138.256,-0.5443 151.3404,-0.3937 164.4794,-0.2624 177.6717,-0.1332 190.9163,-0.0293 204.2113,-0.0325 217.5449,-0.1065 230.5492,-0.2813 242.8676,-0.6454 254.3492,-1.0728 265.0572,-1.5394 275.2255,-2.2246 284.9742,-3.2441 295.3349,-5.0054 303.5291,-6.7959 312.312,-8.86 320.8362,-11.2453 329.1051,-14.1291 337.0638,-17.4457 344.6724,-21.1865 351.881,-25.3722 358.6084,-29.9408 364.8285,-34.9107 370.6452,-40.2394 376.1622,-45.8831 381.2513,-51.9236 385.8921,-58.2937 390.0973,-64.9791 393.88,-71.9882 397.2659,-79.3345 400.2288,-87.0155 402.7377,-95.0025 404.8038,-103.2544 406.3597,-111.7606 407.45,-120.4774 408.1104,-129.3788 408.2904,-138.4411 408.097,-147.6423 407.4617,-156.9174 406.4144,-166.2504 404.9563,-175.6568 403.398,-185.1806 401.6132,-194.794 399.662,-204.5034 397.1525,-215.2443 394.9934,-224.1206 392.4995,-234.0761 389.7027,-245.154 387.4891,-254.3419 385.1602,-264.6902 383.1563,-275.2083 381.3213,-285.8649 379.6349,-296.6485 378.1837,-307.5634 377.0382,-318.6122 376.225,-329.7792 375.6927,-341.0542 375.3811,-352.4256 375.2795,-363.8861 375.2223,-375.2157 375.1633,-385.788 375.1142,-395.5835 375.0764,-404.6234 375.0381,-412.9624 374.9036,-420.6331 374.498,-427.6953 373.7874,-434.2484 372.7036,-440.3551 371.1495,-446.0989 369.1577,-451.4386 366.8478,-456.474 364.2101,-461.2583 361.1893,-465.718 357.7906,-469.769 354.0388,-473.4346 349.9687,-476.6651 345.6501,-479.4301 341.0707,-481.7896 336.1554,-483.7227 330.9355,-485.3078 325.4652,-486.5542 319.7798,-487.3519 313.9002,-487.7576 307.8975,-488.2906 301.841,-489.2108 295.2196,-490.8211 289.8699,-492.6577 283.9732,-495.188 278.1645,-498.2427 272.4723,-501.8148 266.8411,-505.8499 261.0954,-510.0981 255.2128,-514.4439 249.4658,-518.5744 243.9411,-522.1658 238.5965,-525.1574 233.4191,-527.6061 228.2521,-529.4836 223.0357,-530.8055 217.67,-531.6814 212.1333,-532.1426 206.5521,-532.1877 201.092,-531.7207 195.8177,-530.7444 190.6649,-529.2885 185.6182,-527.3529 180.6371,-524.9261 175.7402,-522.1083 171.0471,-518.8168 166.6201,-515.0212 162.4153,-510.8567 158.569,-506.2881 155.0957,-501.4525 152.0718,-496.6744 149.4455,-492.0434 147.2084,-487.6017 145.3169,-483.3774 143.7312,-479.4069 142.4233,-475.7318 141.3604,-472.3893 140.5057,-469.4036 139.8239,-466.7895 139.2903,-464.5571 138.8806,-462.7167 138.5608,-461.2847 138.3449,-460.2664 138.2697,-459.6778 138.3393,-459.5186 139.5654,-458.902 140.1577,-458.5217 140.7406,-458.0847 141.3352,-457.5827 141.8988,-457.0106 142.4064,-456.4062 142.8682,-455.7658 143.275,-455.0541 143.6492,-454.2788 143.9699,-453.4495 144.2187,-452.5664 144.4088,-451.6395 144.4973,-450.6736 144.5071,-449.6756 144.4148,-448.6546 144.2166,-447.6166 143.8951,-446.5842 143.4592,-445.5549 142.8933,-444.5524 142.2895,-443.5192 141.6508,-442.4025 140.9063,-441.181 140.0709,-439.8556 139.1045,-438.4143 137.992,-436.907 136.6976,-435.3566 135.2728,-433.7193 133.7458,-431.9838 132.1008,-430.14 130.3556,-428.1677 128.5204,-426.0982 126.5706,-423.9373 124.5198,-421.6646 122.367,-419.2805 120.0508,-416.8396 117.5588,-414.3452 114.8426,-411.8828 111.9618,-409.4768 109.0978,-406.9717 106.2275,-404.2503 103.3069,-401.2686 100.2093,-398.0585 96.9006,-394.6297 93.3851,-390.9841 89.6626,-387.1294 85.7152,-383.0968 81.4999,-378.9486 77.0014,-374.727 72.3253,-370.4564 67.4345,-366.0996 62.3414,-361.6274 57.0112,-357.0919 51.4173,-352.5466 45.5257,-348.0457 39.3546,-343.5921 32.9161,-339.1881 26.3,-334.8386 19.4441,-330.5445 12.3404,-326.3226 4.9813,-322.2025 -3.3905,-317.7775 -10.46,-314.272 -18.5559,-310.5339 -26.8529,-306.8666 -35.3434,-303.2739 -44.0468,-299.8216 -52.909,-296.4472 -61.9189,-293.2192 -71.1192,-290.1438 -80.5336,-287.333 -90.1742,-284.8885 -99.9828,-282.5995 -109.9335,-280.3842 -120.0402,-278.3325 -130.3031,-276.4956 -140.7173,-274.8868 -151.2835,-273.5999 -161.9746,-272.4518 -172.7881,-271.4641 -183.7224,-270.748 -195.8839,-270.2187 -205.931,-269.9452 -217.1901,-269.758 -228.5445,-269.6706 -239.9892,-269.7149 -251.5188,-269.7741 -263.0891,-269.8377 -274.7441,-269.9012 -286.4846,-269.9633 -298.3089,-270.0259 -310.2153,-270.0852 -322.2022,-270.1409 -334.2679,-270.1919 -346.4079,-270.0687 -358.6196,-269.8088 -365.9808,-269.6621 -370.9026,-269.587 -383.2579,-269.4612 -395.6842,-269.3849 -408.1785,-269.3311 -420.7378,-269.1695 -433.2812,-268.9774 -445.2029,-268.7934 -456.3924,-268.6235 -467.7959,-268.479 -476.4558,-268.3679 -485.3937,-268.2508 -493.6764,-268.1377 -501.2389,-268.0397 -508.1203,-267.9849 -514.4089,-268.1236 -520.1586,-268.5581 -525.4074,-269.3678 -530.2225,-270.5359 -534.5902,-272.0102 -538.5087,-273.7816 -541.9643,-275.8482 -544.9229,-278.2084 -547.3716,-280.8281 -549.386,-283.7211 -551.0929,-286.8355 -552.4691,-290.1389 -553.3745,-293.6118 -553.7149,-297.1732 -553.5539,-300.7548 -553.007,-304.4086 -552.1572,-308.2125 -551.0956,-312.2626 -549.8376,-316.5666 -548.1957,-320.9854 -546.1979,-325.4836 -543.941,-330.1804 -541.5719,-335.1331 -539.1648,-340.3108 -536.6842,-345.7182 -533.8556,-351.9274 -531.4783,-357.1334 -528.7241,-363.1029 -525.8309,-369.2564 -522.6478,-375.5036 -519.247,-381.8777 -515.7109,-388.4101 -511.9463,-395.0376 -507.9324,-401.6912 -503.5905,-408.2952 -498.9318,-414.8956 -493.985,-421.4973 -488.719,-428.0591 -482.4705,-435.1259 -477.1151,-440.8839 -470.8233,-447.137 -464.1438,-453.1896 -457.2244,-459.1988 -449.9772,-465.0147 -442.3907,-470.4837 -433.5785,-476.0321 -426.1415,-480.4243 -417.722,-485.2723 -409.044,-489.9066 -400.1411,-494.3744 -391.0205,-498.6662 -381.6824,-502.761 -372.1702,-506.7382 -362.4829,-510.5866 -352.6541,-514.3785 -342.6665,-518.0545 -332.5428,-521.671 -322.3195,-525.3229 -312.0064,-529.0262 -301.6508,-532.9003 -291.2389,-536.9012 -280.8004,-541.0851 -270.4633,-545.715 -260.2639,-550.8221 -250.1285,-556.2393 -240.0334,-561.834 -230.083,-567.797 -220.2966,-574.167 -210.6195,-580.8405 -201.0973,-587.8598 -190.8241,-595.9819 -181.6791,-603.722 -173.6013,-610.9568 -164.8261,-619.3079 -156.3566,-628.0589 -148.1676,-637.1606 -140.1145,-646.4764 -132.0121,-655.8422 -123.6578,-665.0588 -115.007,-674.0883 -105.3159,-683.9565 -97.3399,-692.0676 -88.4427,-701.1264 -79.6622,-710.0851 -71.4204,-718.4909 -63.7423,-726.3254 -56.6035,-733.616 -49.9995,-740.374 -43.9623,-746.5544 -38.4219,-752.2227 -33.3113,-757.395 -28.455,-762.0059 -23.7236,-765.9978 -19.0207,-769.3641 -14.2967,-772.1458 -9.5923,-774.357 -4.9239,-776.0048 -0.3129,-777.047 4.1886,-777.64 8.6584,-777.9059 13.0652,-777.7267 17.3501,-777.0329 21.5707,-775.8102 25.8587,-774.1915 30.3004,-772.2479 34.8525,-769.9986 39.2753,-767.3854 43.7808,-763.9999 47.2585,-760.8349 50.8968,-756.8964 54.3587,-752.542 57.8672,-747.891 61.5305,-743.0253 65.3296,-738.0042 69.4109,-732.9812 73.9224,-728.04 78.8912,-723.2573 84.2553,-718.6778 90.0908,-714.4814 96.3301,-710.5452 102.8618,-706.7056 109.7026,-703.1082 116.8421,-699.8412 124.3172,-696.9281 132.0963,-694.3862 140.1311,-692.3068 148.3091,-690.7805 156.5308,-689.8834 164.7365,-689.6125 173.0011,-689.9116 181.3375,-690.8618 189.7401,-692.3206 198.1761,-694.2744 206.5927,-696.8077 214.9598,-699.9087 223.2569,-703.541 231.5413,-707.5483 239.9183,-711.6957 248.3758,-715.9699 256.9095,-720.2758 265.6678,-724.4083 274.6841,-728.2608 283.9445,-731.8389 293.4501,-735.0747 303.2046,-737.8486 313.2014,-740.0985 323.3685,-742.1109 333.6956,-743.8724 344.1855,-745.2517 354.8216,-746.3167 365.4757,-747.0755 375.6994,-747.6711 385.2342,-748.123 394.1126,-748.2332 402.3155,-747.9936 409.9698,-747.4061 417.1126,-746.4523 423.7332,-745.1499 429.883,-743.5233 435.5642,-741.5067 440.8482,-739.0874 445.7334,-736.1751 450.1935,-732.8423 454.1695,-729.1322 457.5873,-725.061 460.6156,-720.6302 463.2438,-715.8823 465.5208,-710.8141 467.514,-705.444 469.3622,-699.7913 470.9931,-693.8527 472.3024,-687.6102 473.3294,-681.0914 473.9546,-674.3365 474.1007,-666.6902 473.8862,-660.2565 473.5951,-652.9089 473.3047,-645.3599 473.0074,-637.6185 472.6725,-629.7367 472.225,-621.7158 471.6885,-613.5245 471.1405,-605.1618 470.7181,-596.6267 470.519,-587.9206 470.3508,-579.0547 470.2867,-570.0357 470.3629,-560.8662 470.4185,-551.5511 470.3847,-542.0971 470.3124,-532.5653 470.1798,-522.908 470.0469,-513.1206 469.8469,-503.2072 469.5574,-493.1719 469.1315,-483.0209 468.6785,-472.7519 468.1878,-462.3674 467.6726,-451.8678 467.1481,-441.2552 466.7943,-430.5269 466.562,-419.6874 466.3086,-408.7424 466.0246,-397.6951 465.7381,-386.5473 465.4602,-375.3046 465.4174,-363.9727 465.6931,-352.5598 466.1766,-341.0715 466.9359,-329.5602 468.1205,-318.0163 469.9259,-306.4882 472.2299,-294.9727 474.7874,-283.4309 477.7502,-271.9158 481.1668,-260.4519 485.0398,-249.0609 489.3922,-237.7713 494.2249,-226.6089 499.5235,-215.5897 505.3168,-204.7546 511.6376,-194.1581 518.4315,-183.8031 525.7537,-173.7787 533.5345,-164.0564 541.8043,-154.7054 550.5471,-145.7281 559.6743,-137.0544 568.9835,-128.4858 578.1027,-120.1114 586.7572,-112.1712 594.8341,-104.6101 602.2755,-97.3249 608.9744,-90.2594 615.0168,-83.5667 620.4913,-77.3075 625.3344,-71.2869 629.5324,-65.403 633.0741,-59.5358 635.9954,-53.5506 638.3073,-47.3836 640.0645,-40.9668 641.369,-34.2833 642.1912,-27.4571 642.4918,-20.6429 642.235,-13.8389 641.441,-6.9795 640.1044,-0.1201 638.2056,6.6774 635.7535,13.3735 632.7629,19.9728 629.2589,26.5111 625.5289,33.157 621.7225,39.98 617.9623,46.9651 614.501,54.2712 611.4822,61.9215 608.9594,69.8159 606.9306,77.9686 605.3935,86.339 604.3074,94.9212 603.4957,103.6815 602.8325,112.5651 602.188,121.3477 601.4902,129.5266 600.5407,137.0428 599.313,143.9615 597.7167,150.3811 595.6324,156.4419 593.1387,162.2085 590.2853,167.7462 587.0468,173.1281 583.4045,178.2761 579.3578,183.2205 574.9761,187.8502 570.2638,192.266 565.2466,196.4953 559.8845,200.3645 553.6034,204.105 548.1473,206.77 541.7731,209.3141 535.1117,211.3953 528.2005,212.9449 521.0707,214.0031 513.7481,214.5864 505.4792,214.8234 498.5946,214.8754 490.8021,214.7975 482.836,214.6256 474.6957,214.4188 466.3857,214.1202 457.9088,213.7508 449.2704,213.3229 440.4718,212.8864 431.5182,212.4399 422.4124,211.9938 413.1582,211.6589 403.7614,211.6103 394.2586,211.6413 384.6548,211.6726 374.921,211.7051 365.0594,211.741 355.0719,211.78 344.9614,211.8162 333.7004,211.8599 324.3805,211.8999 313.9154,211.946 303.3373,211.9956 292.6487,212.0497 280.7669,212.1114 270.9502,212.164 259.9452,212.2249 248.8389,212.2874 237.6343,212.351 226.3336,212.4192 214.9404,212.488 203.4578,212.5596 191.9079,212.6327 180.3039,212.7106 168.6146,212.7927 156.842,212.8786 144.9871,212.9682 133.0515,213.0575 121.0378,213.0744 108.947,213.0201 96.782,212.876 84.543,212.6959 72.2312,212.5225 59.8476,212.384 47.394,212.3555 34.8714,212.3441 22.2807,212.3331 9.6241,212.3256 9.6241,212.3256 -3.0971,212.3205 -15.882,212.3156 -28.7294,212.3145 -41.6377,212.3167 -54.6059,212.3213 -67.6323,212.3285 -80.7162,212.3411 -93.8559,212.3569 -107.0502,212.3753 -120.2974,212.3958 -133.5963,212.4206 -146.9453,212.4516 -160.3431,212.4892 -173.7884,212.5274 -187.2795,212.5641 -200.8153,212.6031 -214.3925,212.6481 -227.9746,212.6976 -241.5988,212.7478 -255.2656,212.8 -268.9745,212.8536 -284.0998,212.8502 -296.4856,212.6731 -309.741,212.3677 -322.1987,211.8603 -333.9403,211.0115 -345.1672,209.6262 -356.0228,207.6317 -366.1939,205.3033 -375.6256,202.9923 -384.42,200.6718 -392.6656,198.1973 -400.3643,195.4571 -407.8209,192.2681 -415.2238,188.637 -422.4688,184.6369 -429.3891,180.4913 -435.7811,176.497 -441.7906,172.3705 -447.4414,168.0522 -452.7733,163.679 -457.6617,159.1781 -462.2465,154.4439 -466.6326,149.6444 -470.697,144.6086 -474.3766,139.2543 -477.745,133.5445 -480.7462,127.4863 -483.2443,121.225 -485.1637,114.8482 -486.5982,108.3014 -487.5349,101.6372 -487.9167,94.871 -487.82,88.0629 -487.2096,81.2277 -486.0536,74.4409 -484.3888,67.73 -482.2285,61.2051 -479.5716,54.8634 -476.4074,48.6993 -472.7244,42.7029 -468.5298,36.8891 -463.8347,31.2967 -458.6587,25.9632 -452.9957,20.9499 -446.8703,16.3011 -440.3301,12.1202 -433.4457,8.373 -426.1873,5.0229 -418.5858,2.0712 -410.6844,-0.49 -402.4958,-2.5842 -394.0792,-4.4351 -385.4935,-6.2647 -376.7024,-7.8179 -367.7097,-9.0205 -358.5356,-9.8841 -349.2015,-10.3595 -339.7807,-10.4668 -330.2348,-10.3621 -320.5633,-10.0793 -310.7755,-9.5505 -300.8633,-8.9659 -290.8269,-8.3747 -280.6689,-7.7775 -270.3923,-7.1928 -259.9962,-6.6729 -249.4868,-6.162 -238.867,-5.6415 -228.1381,-5.1638 -217.3027,-4.7533 -206.3606,-4.4714 -195.3168,-4.2589 -184.176,-4.0357 -172.9388,-3.8076 -161.6074,-3.6407 -150.1845,-3.5519 -138.6738,-3.5253 -127.1211,-3.6291 -115.4922,-3.7594"/>
	<!-- Raw distance reference points -->
	<polyline id="dist" fill="none" stroke="none" stroke-width="0" points="5815.5239,-1.1995 18.7335,-1.1839 30.6246,-1.1718 42.5933,-1.1677 54.6321,-1.1596 66.7499,-1.1383 78.9451,-1.1492 91.2133,-1.1168 103.5547,-1.1078 115.9652,-1.1044 128.4429,-1.118 140.9833,-1.0883 153.5943,-1.1036 166.2631,-1.0819 178.9865,-1.0472 191.774,-1.0402 204.6201,-1.0259 217.5221,-1.0037 230.4918,-1.0032 243.5245,-0.9718 256.622,-0.9717 269.7686,-0.9607 282.9787,-0.965 296.2244,-0.9672 309.5015,-0.9617 322.8331,-0.9612 335.8454,-0.9296 348.1696,-0.9067 359.6543,-0.8831 370.3527,-0.8711 380.5083,-0.8692 390.2707,-0.8938 399.8235,-0.8748 409.2331,-0.8651 418.4291,-0.8875 427.4055,-0.9165 436.39,-0.9037 445.2289,-0.8992 453.9688,-0.9129 462.4415,-0.9182 470.8655,-0.9214 479.0938,-0.8786 487.1155,-0.8528 495.2834,-0.8961 503.4919,-0.8842 511.5256,-0.8667 519.718,-0.8552 527.9507,-0.8334 536.1505,-0.8039 544.5471,-0.7705 553.0009,-0.7389 561.5226,-0.7367 570.2039,-0.6899 579.0192,-0.6435 587.9691,-0.6419 597.0458,-0.5913 606.2469,-0.6064 615.5259,-0.6092 624.8788,-0.6748 634.3482,-0.6531 643.9762,-0.7163 653.755,-0.7202 663.6623,-0.7391 673.686,-0.7185 683.8298,-0.6909 694.0917,-0.6922 704.4703,-0.7389 714.9608,-0.7835 725.5666,-0.8071 736.2789,-0.757 747.0948,-0.6845 758.0117,-0.6867 769.0273,-0.7226 780.147,-0.6961 791.3586,-0.6468 802.6573,-0.6015 814.0386,-0.5424 825.5299,-0.4757 836.8918,-0.4639 847.5082,-0.4465 857.3398,-0.4245 866.3909,-0.3901 874.7305,-0.3666 882.3936,-0.3397 889.4232,-0.2993 895.9681,-0.2942 902.1313,-0.3102 908.0803,-0.3247 913.9874,-0.306 919.6876,-0.2848 925.3491,-0.238 930.9789,-0.1978 936.5352,-0.1385 942.0756,-0.0849 947.5903,-0.0244 953.3317,0.0326 958.7077,0.0554 964.1089,0.1305 969.5417,0.2037 975.1048,0.2179 980.8419,0.2418 986.7344,0.2647 992.7831,0.2709 998.9294,0.2713 1005.1442,0.2849 1011.4391,0.3167 1017.8733,0.3286 1024.4419,0.3311 1031.1674,0.3326 1038.0994,0.3271 1045.2452,0.3189 1052.5466,0.3243 1059.5941,0.3345 1066.1514,0.3288 1072.1979,0.3371 1077.8712,0.3262 1083.3129,0.3167 1088.6343,0.3155 1094.0331,0.2947 1099.5818,0.29 1105.1884,0.2727 1110.7115,0.2705 1116.1471,0.2752 1121.8959,0.2666 1127.5583,0.2613 1133.3706,0.3044 1139.2321,0.3191 1145.076,0.3287 1150.9659,0.3701 1156.9305,0.3347 1162.87,0.3386 1168.7906,0.3343 1174.4135,0.3504 1179.6982,0.3548 1184.6293,0.3692 1189.2284,0.3747 1193.4956,0.3671 1197.3931,0.3598 1200.884,0.3627 1203.9512,0.3731 1206.6027,0.3843 1208.8458,0.3917 1210.663,0.3935 1212.0875,0.3938 1213.0955,0.3901 1213.656,0.3888 1213.7675,0.3884 1213.7736,0.3766 1213.8503,0.3691 1213.9821,0.3567 1214.1667,0.3163 1214.4281,0.2946 1214.7432,0.2974 1215.111,0.2857 1215.567,0.2581 1215.9738,0.2543 1216.5651,0.2722 1217.2371,0.2761 1217.9749,0.2798 1218.7936,0.3021 1219.677,0.3042 1220.6273,0.321 1221.6412,0.3074 1222.5355,0.3317 1223.6492,0.3098 1224.7999,0.3167 1225.9956,0.3274 1227.0768,0.2923 1228.5057,0.3185 1230.0697,0.2972 1231.7983,0.2987 1233.4457,0.2758 1235.4341,0.2475 1237.3519,0.2452 1239.6241,0.2366 1241.8342,0.2654 1244.4305,0.2705 1246.9485,0.2803 1249.823,0.2748 1252.6554,0.276 1255.6742,0.2687 1259.0044,0.2411 1262.3594,0.2448 1265.8564,0.2792 1269.5099,0.3115 1273.165,0.318 1277.0183,0.317 1281.1263,0.3377 1285.5316,0.3498 1290.2346,0.3771 1295.2289,0.3902 1300.5208,0.3867 1306.1049,0.3794 1311.976,0.3665 1318.1156,0.3672 1324.396,0.3443 1330.9138,0.3082 1337.6664,0.281 1344.631,0.2445 1351.8169,0.2121 1359.1976,0.1709 1366.7928,0.1149 1374.5863,0.0914 1382.5029,0.0791 1390.6182,0.0623 1398.9303,0.0378 1407.3862,0.0134 1416.0331,-0.0245 1424.8472,-0.0547 1433.8104,-0.0734 1442.9052,-0.1256 1452.1749,-0.1765 1461.5992,-0.2213 1471.1388,-0.232 1480.7675,-0.2526 1490.5122,-0.3003 1500.365,-0.3535 1510.3295,-0.3962 1520.4188,-0.4441 1530.6317,-0.5054 1540.9528,-0.5095 1551.3794,-0.582 1561.9033,-0.6215 1572.524,-0.6184 1583.2393,-0.6556 1594.0624,-0.6831 1604.9991,-0.7679 1616.0493,-0.8606 1627.1973,-0.933 1638.446,-0.9704 1649.7938,-1.0034 1661.2363,-1.0486 1672.7563,-1.0514 1684.3126,-1.089 1695.9604,-1.1257 1707.7026,-1.1602 1719.5269,-1.1983 1731.4375,-1.2296 1743.4277,-1.2616 1755.4944,-1.3232 1767.6349,-1.3868 1779.8552,-1.4016 1784.6219,-1.417 1792.144,-1.4421 1804.5012,-1.4783 1816.9264,-1.4621 1829.4257,-1.5193 1841.994,-1.5476 1854.5479,-1.604 1866.4648,-1.6035 1877.6532,-1.6673 1888.0431,-1.6846 1897.7262,-1.7055 1906.6956,-1.7265 1914.9834,-1.7763 1922.5466,-1.8012 1929.4532,-1.8115 1935.7473,-1.8256 1941.4457,-1.8397 1946.6154,-1.8284 1951.453,-1.8274 1956.0129,-1.8504 1960.3108,-1.8968 1964.3783,-1.9601 1968.2715,-2.0115 1971.8389,-2.0483 1975.5828,-2.0839 1979.5035,-2.0911 1983.5115,-2.0746 1987.0983,-2.0491 1991.0023,-1.988 1994.8264,-1.9331 1998.6901,-1.8941 2002.6002,-1.8348 2006.6875,-1.7762 2010.9869,-1.7479 2015.5791,-1.7468 2020.5212,-1.7722 2025.8584,-1.8033 2031.525,-1.7797 2037.6422,-1.7259 2043.7148,-1.6596 2049.9097,-1.6033 2056.1543,-1.5632 2062.6287,-1.5314 2069.4233,-1.5269 2076.4739,-1.5186 2083.8762,-1.462 2091.4226,-1.4258 2099.293,-1.3518 2107.282,-1.3294 2115.2903,-1.3088 2123.5427,-1.3013 2131.8931,-1.3066 2140.3359,-1.2992 2148.9702,-1.3088 2157.7693,-1.279 2166.71,-1.2573 2175.8096,-1.2633 2185.0193,-1.2239 2194.3857,-1.1665 2203.7935,-1.1689 2213.3232,-1.1423 2223.0464,-1.0713 2232.9258,-1.0694 2242.8608,-1.0361 2252.8809,-0.9932 2262.9788,-0.9305 2273.1782,-0.8446 2283.4907,-0.7659 2293.9209,-0.7204 2304.4617,-0.6695 2315.1008,-0.6203 2325.8416,-0.574 2336.6863,-0.5609 2347.6406,-0.5278 2358.6899,-0.4368 2369.9006,-0.4075 2381.2275,-0.4056 2392.6206,-0.3661 2404.1885,-0.3392 2415.8159,-0.327 2427.5225,-0.2818 2439.3281,-0.2195 2451.1221,-0.1684 2463.0112,-0.1597 2474.8657,-0.0741 2486.7844,0.0011 2498.7754,0.0642 2510.8264,0.0726 2522.9436,0.042 2535.1221,0.0464 2547.3635,0.0307 2559.6648,0.101 2572.0464,0.1132 2584.4792,0.088 2596.9614,0.1259 2609.5269,0.1406 2622.1467,0.1417 2634.8386,0.1372 2647.3777,0.1676 2659.1416,0.2072 2670.1101,0.2314 2680.3206,0.2344 2689.7756,0.2283 2698.4209,0.2688 2706.3601,0.3132 2713.6421,0.3342 2720.3208,0.3299 2726.4368,0.3289 2732.1118,0.3475 2737.5073,0.3577 2742.6772,0.3498 2747.6863,0.329 2752.5806,0.3323 2757.3699,0.3222 2762.1509,0.3349 2766.8933,0.3497 2771.5549,0.3527 2776.2439,0.3717 2781.0415,0.3962 2785.9119,0.4455 2790.8257,0.4687 2795.7734,0.4323 2800.7515,0.4033 2805.8313,0.3793 2811.0457,0.3668 2816.4907,0.3734 2822.2498,0.3648 2828.3147,0.3776 2834.8586,0.3792 2841.5862,0.3754 2848.5098,0.3546 2855.7329,0.3659 2862.8875,0.328 2870.2678,0.3483 2877.7378,0.364 2885.457,0.3901 2893.2273,0.4037 2901.1475,0.3859 2909.2136,0.3839 2917.4077,0.3826 2925.71,0.3628 2933.9807,0.3473 2942.197,0.363 2950.2715,0.3796 2958.3655,0.3691 2966.6614,0.4161 2974.9888,0.4247 2983.4692,0.4092 2992.1873,0.4251 3000.9878,0.4588 3009.9536,0.492 3019.0911,0.5183 3028.3901,0.5103 3037.8411,0.449 3047.373,0.4237 3057.053,0.4363 3066.877,0.4254 3076.873,0.4007 3087.0144,0.3376 3097.2524,0.2498 3107.5869,0.2284 3118.0317,0.1802 3128.6008,0.1384 3139.2637,0.0654 3149.9841,-0.0157 3160.6479,-0.0827 3170.8765,-0.171 3180.4143,-0.2937 3189.2825,-0.3966 3197.4705,-0.4371 3205.1277,-0.4862 3212.2949,-0.5407 3219.0291,-0.5802 3225.4529,-0.6408 3231.5437,-0.6973 3237.4336,-0.7811 3243.2668,-0.845 3249.1118,-0.9211 3255.2524,-0.9938 3260.8359,-0.9774 3266.3826,-0.9632 3271.9204,-0.8928 3277.5254,-0.8242 3283.2534,-0.791 3289.157,-0.7519 3295.1934,-0.7354 3301.4832,-0.7032 3308.0071,-0.7094 3314.6702,-0.7417 3321.5737,-0.7689 3328.6921,-0.7858 3336.02,-0.7652 3343.5627,-0.7354 3351.2935,-0.6958 3359.1687,-0.6655 3367.1948,-0.6282 3375.3982,-0.5959 3383.7734,-0.6321 3392.3152,-0.6825 3401.0251,-0.686 3409.895,-0.6425 3418.918,-0.6354 3428.0911,-0.6746 3437.4087,-0.7006 3446.8647,-0.7078 3456.3975,-0.7639 3466.053,-0.7576 3475.8386,-0.7778 3485.751,-0.8129 3495.7878,-0.7699 3505.9424,-0.7202 3516.2119,-0.7415 3526.5957,-0.7677 3537.0889,-0.8364 3547.698,-0.9032 3558.4458,-0.9209 3569.3289,-0.9422 3580.3142,-0.99 3591.4033,-1.0175 3602.5972,-1.0336 3613.8704,-1.0537 3625.2029,-0.959 3636.5635,-0.9246 3647.979,-0.8482 3659.6091,-0.8602 3671.5159,-0.8728 3683.311,-0.7981 3695.1506,-0.6637 3707.0681,-0.6235 3718.9519,-0.6253 3730.8611,-0.6592 3742.8713,-0.6938 3754.9695,-0.6965 3767.1123,-0.6925 3779.3032,-0.7307 3791.5376,-0.7772 3803.8464,-0.8001 3816.249,-0.8755 3828.6917,-0.918 3841.1973,-0.998 3853.7109,-1.05 3866.2959,-1.1088 3878.9673,-1.1846 3891.6719,-1.2029 3904.1045,-1.2294 3915.8557,-1.2032 3926.9167,-1.1943 3937.3333,-1.2637 3947.0364,-1.3092 3955.9883,-1.3288 3964.2568,-1.3653 3971.9414,-1.4053 3979.1606,-1.4344 3986.0437,-1.4346 3992.8635,-1.4213 3999.5569,-1.3875 4006.3447,-1.3175 4013.5422,-1.254 4020.6182,-1.1818 4027.7932,-1.1144 4034.7209,-1.0614 4041.7041,-1.0284 4048.7573,-1.0142 4055.7905,-1.0081 4062.8452,-1.0135 4070.0339,-1.0306 4077.3572,-1.04 4084.9583,-1.0533 4092.8428,-1.0725 4100.8506,-1.1084 4109.1436,-1.1566 4117.5972,-1.196 4126.106,-1.2293 4134.6221,-1.2693 4143.3354,-1.3253 4152.1592,-1.3627 4161.1162,-1.4185 4170.0635,-1.5285 4178.8916,-1.5683 4187.0874,-1.586 4194.647,-1.5595 4201.6245,-1.5202 4208.1846,-1.4695 4214.4429,-1.4091 4220.3501,-1.3757 4226.335,-1.3691 4232.5088,-1.3968 4238.7905,-1.4342 4245.6401,-1.4613 4252.3828,-1.4633 4259.2935,-1.4772 4266.6519,-1.5276 4273.5498,-1.5587 4280.5874,-1.5599 4287.3271,-1.551 4294.0898,-1.5449 4300.8511,-1.5475 4307.8052,-1.5213 4314.897,-1.5098 4322.1753,-1.5009 4329.5757,-1.4518 4337.1792,-1.4402 4344.9443,-1.399 4352.9092,-1.3644 4361.063,-1.3418 4369.3867,-1.3386 4377.875,-1.3437 4386.5391,-1.3446 4395.3545,-1.3121 4404.3203,-1.3029 4413.437,-1.2765 4422.6943,-1.256 4432.0923,-1.266 4441.6011,-1.2446 4451.2075,-1.225 4460.9404,-1.2043 4470.8032,-1.1793 4480.7896,-1.1652 4490.8999,-1.1484 4501.1304,-1.1629 4511.4829,-1.1461 4521.9512,-1.1383 4532.5337,-1.1334 4543.2231,-1.1117 4554.0215,-1.1036 4564.9233,-1.0958 4575.9233,-1.1037 4587.022,-1.0808 4598.2271,-1.0928 4609.5317,-1.0955 4620.9292,-1.1029 4632.4077,-1.0802 4643.9546,-1.0833 4655.5591,-1.1036 4667.251,-1.0913 4679.022,-1.0965 4690.873,-1.1252 4702.8052,-1.1134 4714.8198,-1.1318 4726.9175,-1.1421 4739.0903,-1.1505 4751.3325,-1.1604 4763.646,-1.1715 4776.0288,-1.1687 4788.4839,-1.1845 4801.0103,-1.2338 4813.6001,-1.2425 4826.2568,-1.2365 4826.5098,-1.2365 4838.9805,-1.2783 4851.7646,-1.3081 4864.6118,-1.3218 4877.5186,-1.3535 4890.48,-1.3602 4903.5073,-1.3873 4916.5923,-1.4157 4929.7334,-1.4435 4942.9287,-1.4611 4956.1738,-1.4844 4969.4707,-1.5079 4982.8188,-1.5327 4996.2153,-1.5689 5009.6597,-1.5799 5023.1523,-1.5994 5036.688,-1.6244 5050.2725,-1.6491 5063.8657,-1.6749 5077.4795,-1.6812 5091.1362,-1.7086 5104.8462,-1.6972 5118.5972,-1.7316 5132.3618,-1.7107 5145.6221,-1.7191 5158.0747,-1.7313 5169.8115,-1.7319 5181.0688,-1.7333 5192.0884,-1.7403 5202.6074,-1.7194 5212.5454,-1.7141 5221.8262,-1.7308 5230.5327,-1.7374 5238.7593,-1.7422 5246.9814,-1.7255 5255.3677,-1.6531 5263.7358,-1.6249 5271.9941,-1.5941 5279.6631,-1.5871 5286.9771,-1.6064 5294.104,-1.5625 5301.0518,-1.5805 5307.7368,-1.6071 5314.4282,-1.6387 5321.0044,-1.6744 5327.5645,-1.7083 5334.3354,-1.7464 5341.1528,-1.7878 5348.104,-1.8319 5355.1826,-1.8808 5361.9917,-1.8961 5369.0063,-1.9107 5375.9155,-1.9024 5382.8862,-1.8333 5390.0459,-1.7995 5397.0859,-1.7837 5404.3384,-1.7464 5411.3911,-1.7269 5418.4688,-1.7164 5425.3984,-1.7062 5432.3584,-1.6932 5439.4072,-1.6745 5446.5503,-1.6601 5453.7793,-1.658 5461.1558,-1.676 5468.5806,-1.6857 5476.1846,-1.6824 5483.7466,-1.6434 5491.4658,-1.6168 5499.2061,-1.5814 5507.1138,-1.5387 5515.3013,-1.5279 5523.522,-1.5026 5531.9243,-1.4928 5540.6147,-1.4914 5549.377,-1.4802 5558.2612,-1.4606 5567.3506,-1.44 5576.6162,-1.4192 5585.999,-1.3835 5595.4868,-1.3659 5605.1377,-1.3794 5614.9136,-1.3853 5624.7969,-1.365 5634.7954,-1.3368 5644.9409,-1.3475 5655.2163,-1.3498 5665.6001,-1.3253 5676.1035,-1.3 5686.7246,-1.3343 5697.4502,-1.3076 5708.2842,-1.3359 5719.2285,-1.2973 5730.2773,-1.296 5741.4209,-1.2698 5752.6621,-1.2543 5763.9878,-1.2654 5775.4087,-1.2552 5786.9214,-1.2448 5798.4834,-1.2221 5810.1445,-1.2167"/>
</svg>
